#N canvas 892 -21 1161 975 8;
#X obj 433 5 py4pd -lib multichannel;
#X obj 4 3 r start-test;
#X msg 393 382 \; pd quit;
#X obj 440 400 print PASS;
#X msg 440 382 :) ALL Test Pass;
#X msg 4 63 5000;
#N canvas 81 119 450 300 notpassed 0;
#X obj 51 9 inlet;
#X obj 51 80 delay 60000 1 msec;
#X msg 51 101 \; pd quit;
#X obj 51 30 t b f;
#X connect 0 0 3 0;
#X connect 1 0 2 0;
#X connect 3 0 1 0;
#X connect 3 1 1 1;
#X restore 4 83 pd notpassed;
#X obj 4 37 t b b, f 14;
#X obj 73 3 bng 15 250 50 0 empty empty empty 0 -8 0 8 #fcfcfc #000000 #000000;
#X msg 71 64 1 2 3 4 5;
#X obj 184 50 r test1ok;
#X msg 184 91 [1 2 3 4 5] [1 2 3 4 5];
#X obj 184 71 t b b, f 32;
#X msg 341 92 [1 2 3 4 5] [1 2 3 4 5];
#X obj 433 23 py4pd -lib py4pd;
#X obj 341 111 py.mklist;
#X obj 341 132 py.times None 10;
#X obj 184 112 py.mklist;
#X obj 184 133 py.iterate;
#X obj 184 180 py.collect;
#X obj 71 111 py.collect;
#X obj 71 83 py.iterate;
#X obj 184 206 py.equal -a 2;
#X obj 184 253 sel 1;
#X obj 71 263 s test1ok;
#X obj 184 226 py2pd;
#X obj 184 277 bng 15 250 50 0 empty empty empty 0 -8 0 8 #fcfcfc #000000 #000000;
#X obj 184 154 py.times None 10;
#X msg 126 133 4;
#X obj 71 153 py.nth None 4;
#X obj 184 299 int;
#X obj 184 320 + 1;
#X obj 184 339 nbx 5 14 -1e+37 1e+37 0 0 empty empty empty 0 -8 0 8 #fcfcfc #000000 #000000 0 256;
#X obj 184 360 % 26;
#X obj 184 377 spigot;
#X obj 320 338 tgl 15 0 empty empty empty 0 -8 0 8 #fcfcfc #000000 #000000 0 1;
#X obj 115 14 r test1-again;
#X obj 184 457 s test1-again;
#X obj 115 35 bng 15 250 50 0 empty empty empty 0 -8 0 8 #fcfcfc #000000 #000000;
#X obj 71 227 bng 15 250 50 0 empty empty empty 0 -8 0 8 #fcfcfc #000000 #000000;
#X obj 71 174 py2pd;
#X obj 71 195 sel 5;
#X obj 338 293 loadbang;
#X msg 338 314 1;
#X obj 393 353 t b b, f 10;
#X obj 413 292 bng 15 250 50 0 empty empty empty 0 -8 0 8 #fcfcfc #000000 #000000;
#X obj 320 265 sel 25 24, f 30;
#X obj 393 332 del 1 100 msec;
#X obj 471 290 bng 15 250 50 0 empty empty empty 0 -8 0 8 #fcfcfc #000000 #000000;
#X obj 25 397 py.recursive;
#X msg 25 374 1 2 3 4 5;
#X obj 25 418 py.print;
#X obj 184 433 py.recursive;
#X msg 184 415 2;
#X obj 184 398 bng 15 250 50 0 empty empty empty 0 -8 0 8 #fcfcfc #000000 #000000;
#X obj 25 337 else/loop 10000;
#X obj 25 356 bng 15 250 50 0 empty empty empty 0 -8 0 8 #fcfcfc #000000 #000000;
#X obj 25 315 bng 15 250 50 0 empty empty empty 0 -8 0 8 #fcfcfc #000000 #000000;
#X obj 364 201 delay;
#X connect 1 0 7 0;
#X connect 4 0 3 0;
#X connect 5 0 6 0;
#X connect 7 0 5 0;
#X connect 7 1 9 0;
#X connect 8 0 7 0;
#X connect 9 0 21 0;
#X connect 10 0 12 0;
#X connect 11 0 17 0;
#X connect 12 0 11 0;
#X connect 12 1 13 0;
#X connect 13 0 15 0;
#X connect 15 0 16 0;
#X connect 16 0 22 1;
#X connect 17 0 18 0;
#X connect 18 0 27 0;
#X connect 18 1 19 0;
#X connect 19 0 22 0;
#X connect 20 0 29 0;
#X connect 21 0 20 0;
#X connect 21 1 20 0;
#X connect 22 0 25 0;
#X connect 23 0 26 0;
#X connect 25 0 23 0;
#X connect 26 0 30 0;
#X connect 27 0 19 0;
#X connect 28 0 29 1;
#X connect 29 0 40 0;
#X connect 30 0 31 0;
#X connect 31 0 30 1;
#X connect 31 0 32 0;
#X connect 32 0 33 0;
#X connect 33 0 34 0;
#X connect 33 0 46 0;
#X connect 34 0 54 0;
#X connect 35 0 34 1;
#X connect 36 0 38 0;
#X connect 38 0 9 0;
#X connect 39 0 24 0;
#X connect 40 0 41 0;
#X connect 41 0 39 0;
#X connect 42 0 43 0;
#X connect 43 0 35 0;
#X connect 44 0 2 0;
#X connect 44 1 4 0;
#X connect 46 0 35 0;
#X connect 46 1 45 0;
#X connect 46 1 47 0;
#X connect 47 0 44 0;
#X connect 49 0 51 0;
#X connect 50 0 49 0;
#X connect 52 0 37 0;
#X connect 53 0 52 0;
#X connect 54 0 53 0;
#X connect 55 0 56 0;
#X connect 56 0 50 0;
#X connect 57 0 55 0;
