#N canvas 926 49 472 619 8;
#X obj 5 8 py4pd -lib multichannel;
#X obj 180 28 else/setdsp~;
#X obj 139 8 py4pd -lib py4pd;
#X msg 23 66 reload;
#X obj 4 274 dac~, f 12;
#X obj 143 216 py.memuse;
#X msg 143 196 pd;
#X obj 143 235 nbx 5 14 -1e+37 1e+37 0 0 empty empty empty 0 -8 0 8 #fcfcfc #000000 #000000 0 256;
#X obj 4 95 sinusoids~ -ch 4;
#X obj 143 172 metro 200;
#X obj 143 153 tgl 15 0 empty empty empty 0 -8 0 8 #fcfcfc #000000 #000000 0 1;
#X obj 143 131 loadbang;
#X obj 4 227 snake~ out 4;
#X msg 81 69 0.2 0.1 0.3 0.2;
#X obj 83 174 nbx 5 14 -1e+37 1e+37 0 0 empty empty empty 0 -8 0 8 #fcfcfc #000000 #000000 0 256;
#X msg 83 129 reload;
#X obj 83 153 nch~ -ch 4;
#X msg 31 152 0.2;
#X msg 56 152 0.4;
#X obj 4 191 times~;
#X msg 4 42 294 300 440 428;
#X connect 3 0 8 0;
#X connect 5 0 7 0;
#X connect 6 0 5 0;
#X connect 8 0 16 0;
#X connect 8 0 19 0;
#X connect 9 0 6 0;
#X connect 10 0 9 0;
#X connect 11 0 10 0;
#X connect 12 0 4 0;
#X connect 12 1 4 1;
#X connect 12 2 4 0;
#X connect 12 3 4 1;
#X connect 13 0 8 1;
#X connect 15 0 16 0;
#X connect 16 0 14 0;
#X connect 17 0 19 1;
#X connect 18 0 19 1;
#X connect 19 0 12 0;
#X connect 20 0 8 0;
