#N canvas 31 69 450 300 8;
#X obj 7 29 int, f 13;
#X obj 7 50 + 1;
#X obj 7 71 nbx 5 14 -1e+37 1e+37 0 0 empty empty empty 0 -8 0 8 #fcfcfc #000000 #000000 0 256;
#X obj 7 6 inlet;
#X obj 7 90 outlet;
#X connect 0 0 1 0;
#X connect 1 0 2 0;
#X connect 2 0 0 1;
#X connect 2 0 4 0;
#X connect 3 0 0 0;
