#N canvas 131 169 645 770 8;
#X obj 6 11 bng 15 250 50 0 empty empty empty 0 -8 0 8 #fcfcfc #000000 #000000;
#X obj 6 70 bng 15 250 50 0 empty empty empty 0 -8 0 8 #fcfcfc #000000 #000000;
#X msg 6 90 [1 2 3 4 5];
#X obj 6 148 b;
#X obj 6 167 else/count;
#X obj 6 186 nbx 5 14 -1e+37 1e+37 0 0 empty empty empty 0 -8 0 8 #fcfcfc #000000 #000000 0 256;
#X obj 41 13 inlet;
#X obj 6 253 outlet;
#X obj 6 49 else/loop 50000;
#X obj 6 111 py.mklist;
#X obj 102 18 bng 15 250 50 0 empty empty empty 0 -8 0 8 #fcfcfc #000000 #000000;
#X obj 50 229 sel 49999;
#X obj 50 252 print PROBLEM-3-DONE;
#X obj 6 205 t f f;
#X obj 6 129 py+ 2 2;
#X connect 0 0 8 0;
#X connect 1 0 2 0;
#X connect 2 0 9 0;
#X connect 3 0 4 0;
#X connect 4 0 5 0;
#X connect 5 0 13 0;
#X connect 6 0 8 0;
#X connect 8 0 1 0;
#X connect 9 0 14 0;
#X connect 10 0 8 0;
#X connect 11 0 12 0;
#X connect 13 0 7 0;
#X connect 13 1 11 0;
#X connect 14 0 3 0;
