#N canvas 442 77 1107 779 8;
#X obj 59 131 py.iterate;
#X obj 59 196 py.collect;
#X obj 59 78 else/loop 30;
#X obj 59 235 py.nth None 0;
#X obj 144 235 py.nth None 1;
#X obj 59 58 bng 15 250 50 0 empty empty empty 0 -8 0 8 #fcfcfc #000000 #000000;
#X msg 59 109 20889 12338 12367;
#X obj 59 35 else/loop 2001;
#X obj 59 289 else/count;
#X obj 59 308 nbx 8 14 -1e+37 1e+37 0 0 empty empty empty 0 -8 0 8 #fcfcfc #000000 #000000 0 256;
#X obj 59 255 bng 15 250 50 0 empty empty empty 0 -8 0 8 #fcfcfc #000000 #000000;
#X obj 144 288 else/count;
#X obj 144 307 nbx 8 14 -1e+37 1e+37 0 0 empty empty empty 0 -8 0 8 #fcfcfc #000000 #000000 0 256;
#X obj 144 256 bng 15 250 50 0 empty empty empty 0 -8 0 8 #fcfcfc #000000 #000000;
#X obj 59 171 py* None 2932;
#X obj 59 8 inlet;
#X obj 59 327 outlet;
#X obj 144 326 outlet;
#X obj 136 8 bng 15 250 50 0 empty empty empty 0 -8 0 8 #fcfcfc #000000 #000000;
#X obj 230 270 print PROBLEM-4-DONE;
#X obj 230 236 sel 60029;
#X obj 59 152 py* None 2000;
#X connect 0 0 21 0;
#X connect 0 1 1 0;
#X connect 1 0 3 0;
#X connect 1 0 4 0;
#X connect 2 0 6 0;
#X connect 3 0 10 0;
#X connect 4 0 13 0;
#X connect 5 0 2 0;
#X connect 6 0 0 0;
#X connect 7 0 5 0;
#X connect 8 0 9 0;
#X connect 9 0 16 0;
#X connect 10 0 8 0;
#X connect 11 0 12 0;
#X connect 12 0 17 0;
#X connect 12 0 20 0;
#X connect 13 0 11 0;
#X connect 14 0 1 0;
#X connect 15 0 7 0;
#X connect 18 0 7 0;
#X connect 20 0 19 0;
#X connect 21 0 14 0;
