#N canvas 153 69 1051 826 8;
#X obj 8 5 bng 15 250 50 0 empty empty empty 0 -8 0 8 #fcfcfc #000000 #000000;
#X obj 8 269 b;
#X obj 8 311 nbx 5 14 -1e+37 1e+37 0 0 empty empty empty 0 -8 0 8 #fcfcfc #000000 #000000 0 256;
#X obj 8 61 t b b, f 20;
#X obj 132 134 nbx 5 14 -1e+37 1e+37 0 0 empty empty empty 0 -8 0 8 #fcfcfc #000000 #000000 0 256;
#X obj 132 113 random 10;
#X obj 132 74 bng 15 250 50 0 empty empty empty 0 -8 0 8 #fcfcfc #000000 #000000;
#X obj 163 6 bng 15 250 50 0 empty empty empty 0 -8 0 8 #fcfcfc #000000 #000000;
#X msg 8 82 1 2 3 4 5 6 3 9 0 0;
#X obj 212 143 nbx 5 14 -1e+37 1e+37 0 0 empty empty empty 0 -8 0 8 #fcfcfc #000000 #000000 0 256;
#X obj 212 122 random 10;
#X obj 212 103 bng 15 250 50 0 empty empty empty 0 -8 0 8 #fcfcfc #000000 #000000;
#X obj 281 172 nbx 5 14 -1e+37 1e+37 0 0 empty empty empty 0 -8 0 8 #fcfcfc #000000 #000000 0 256;
#X obj 281 151 random 10;
#X obj 281 112 bng 15 250 50 0 empty empty empty 0 -8 0 8 #fcfcfc #000000 #000000;
#X obj 359 183 nbx 5 14 -1e+37 1e+37 0 0 empty empty empty 0 -8 0 8 #fcfcfc #000000 #000000 0 256;
#X obj 359 162 random 10;
#X obj 359 123 bng 15 250 50 0 empty empty empty 0 -8 0 8 #fcfcfc #000000 #000000;
#X obj 143 34 t b b b b b;
#X obj 39 18 inlet;
#X obj 8 330 outlet;
#X obj 8 163 py+ None 9;
#X obj 8 205 py+ None 9;
#X obj 8 185 py+ None 9;
#X obj 8 227 py+ None 9;
#X obj 212 162 pd2py;
#X obj 281 192 pd2py;
#X obj 359 222 pd2py;
#X obj 8 248 py2pd;
#X obj 48 330 sel 30000;
#X obj 48 353 print PROBLEM-5-DONE;
#X obj 8 290 count;
#X obj 8 40 loop 30001;
#X connect 0 0 32 0;
#X connect 1 0 31 0;
#X connect 2 0 20 0;
#X connect 2 0 29 0;
#X connect 3 0 8 0;
#X connect 3 1 5 0;
#X connect 4 0 21 1;
#X connect 5 0 4 0;
#X connect 6 0 5 0;
#X connect 7 0 18 0;
#X connect 8 0 21 0;
#X connect 9 0 25 0;
#X connect 10 0 9 0;
#X connect 11 0 10 0;
#X connect 12 0 26 0;
#X connect 13 0 12 0;
#X connect 14 0 13 0;
#X connect 15 0 27 0;
#X connect 16 0 15 0;
#X connect 17 0 16 0;
#X connect 18 0 8 0;
#X connect 18 1 6 0;
#X connect 18 2 11 0;
#X connect 18 3 14 0;
#X connect 18 4 17 0;
#X connect 19 0 32 0;
#X connect 21 0 23 0;
#X connect 22 0 24 0;
#X connect 23 0 22 0;
#X connect 24 0 28 0;
#X connect 25 0 23 1;
#X connect 26 0 22 1;
#X connect 27 0 24 1;
#X connect 28 0 1 0;
#X connect 29 0 30 0;
#X connect 31 0 2 0;
#X connect 32 0 3 0;
