#N canvas 153 69 1051 826 8;
#X obj 8 5 bng 15 250 50 0 empty empty empty 0 -8 0 8 #fcfcfc #000000 #000000;
#X obj 8 381 else/display;
#X obj 32 292 b;
#X obj 32 313 else/count;
#X obj 32 334 nbx 5 14 -1e+37 1e+37 0 0 empty empty empty 0 -8 0 8 #fcfcfc #000000 #000000 0 256;
#X obj 8 61 t b b, f 20;
#X obj 132 134 nbx 5 14 -1e+37 1e+37 0 0 empty empty empty 0 -8 0 8 #fcfcfc #000000 #000000 0 256;
#X obj 132 113 random 10;
#X obj 132 74 bng 15 250 50 0 empty empty empty 0 -8 0 8 #fcfcfc #000000 #000000;
#X obj 163 6 bng 15 250 50 0 empty empty empty 0 -8 0 8 #fcfcfc #000000 #000000;
#X obj 379 48 tgl 15 0 empty empty empty 0 -8 0 8 #fcfcfc #000000 #000000 0 1;
#X msg 8 82 1 2 3 4 5 6 3 9 0 0;
#X obj 212 143 nbx 5 14 -1e+37 1e+37 0 0 empty empty empty 0 -8 0 8 #fcfcfc #000000 #000000 0 256;
#X obj 212 122 random 10;
#X obj 212 103 bng 15 250 50 0 empty empty empty 0 -8 0 8 #fcfcfc #000000 #000000;
#X obj 281 172 nbx 5 14 -1e+37 1e+37 0 0 empty empty empty 0 -8 0 8 #fcfcfc #000000 #000000 0 256;
#X obj 281 151 random 10;
#X obj 281 112 bng 15 250 50 0 empty empty empty 0 -8 0 8 #fcfcfc #000000 #000000;
#X obj 359 183 nbx 5 14 -1e+37 1e+37 0 0 empty empty empty 0 -8 0 8 #fcfcfc #000000 #000000 0 256;
#X obj 359 162 random 10;
#X obj 359 123 bng 15 250 50 0 empty empty empty 0 -8 0 8 #fcfcfc #000000 #000000;
#X obj 143 34 t b b b b b;
#X obj 376 70 metro 100;
#X obj 287 4 bng 15 250 50 0 empty empty empty 0 -8 0 8 #fcfcfc #000000 #000000;
#X obj 287 39 else/loop 30000;
#X obj 39 18 inlet;
#X obj 32 353 outlet;
#X obj 8 40 else/loop 30001;
#X obj 8 163 py+ None 9;
#X obj 8 205 py+ None 9;
#X obj 8 185 py+ None 9;
#X obj 8 227 py+ None 9;
#X obj 212 162 pd2py;
#X obj 281 192 pd2py;
#X obj 359 222 pd2py;
#X obj 8 248 py2pd;
#X obj 265 358 sel 30000;
#X obj 265 381 print PROBLEM-5-DONE;
#X connect 0 0 27 0;
#X connect 2 0 3 0;
#X connect 3 0 4 0;
#X connect 4 0 26 0;
#X connect 4 0 36 0;
#X connect 5 0 11 0;
#X connect 5 1 7 0;
#X connect 6 0 28 1;
#X connect 7 0 6 0;
#X connect 8 0 7 0;
#X connect 9 0 21 0;
#X connect 10 0 22 0;
#X connect 11 0 28 0;
#X connect 12 0 32 0;
#X connect 13 0 12 0;
#X connect 14 0 13 0;
#X connect 15 0 33 0;
#X connect 16 0 15 0;
#X connect 17 0 16 0;
#X connect 18 0 34 0;
#X connect 19 0 18 0;
#X connect 20 0 19 0;
#X connect 21 0 11 0;
#X connect 21 1 8 0;
#X connect 21 2 14 0;
#X connect 21 3 17 0;
#X connect 21 4 20 0;
#X connect 22 0 21 0;
#X connect 23 0 24 0;
#X connect 24 0 21 0;
#X connect 25 0 27 0;
#X connect 27 0 5 0;
#X connect 28 0 30 0;
#X connect 29 0 31 0;
#X connect 30 0 29 0;
#X connect 31 0 35 0;
#X connect 32 0 30 1;
#X connect 33 0 29 1;
#X connect 34 0 31 1;
#X connect 35 0 1 0;
#X connect 35 0 2 0;
#X connect 36 0 37 0;
