#N canvas 589 420 519 311 8;
#N canvas 496 67 952 619 PROBLEM2 0;
#X obj 9 48 bng 15 250 50 0 empty empty empty 0 -8 0 8 #fcfcfc #000000 #000000;
#N canvas 181 219 1494 700 list1 0;
#X obj 10 93 t b b b b, f 91;
#X obj 10 321 outlet;
#X obj 147 318 outlet;
#X obj 356 316 outlet;
#X obj 457 320 outlet;
#X obj 11 21 inlet;
#X msg 10 164 [826 463 1278 1237 1077];
#X msg 161 223 [1 274 26579 2073];
#X msg 311 171 [1 2 3 4 5 6 7];
#X msg 462 257 [1 27 467 128 12973 12345];
#X obj 462 277 py.mklist;
#X obj 10 245 py.mklist;
#X obj 161 257 py.mklist;
#X obj 311 251 py.mklist;
#X connect 0 0 6 0;
#X connect 0 1 7 0;
#X connect 0 2 8 0;
#X connect 0 3 9 0;
#X connect 5 0 0 0;
#X connect 6 0 11 0;
#X connect 7 0 12 0;
#X connect 8 0 13 0;
#X connect 9 0 10 0;
#X connect 10 0 4 0;
#X connect 11 0 1 0;
#X connect 12 0 2 0;
#X connect 13 0 3 0;
#X restore 9 100 pd list1;
#X f 15;
#N canvas 181 219 1494 700 list3 0;
#X msg 161 223 [1 2 3 4 5 6 9 1 283 1274 12395712];
#X msg 10 164 [1 2 3 4 5 6 9 1 283 1274 12395712];
#X msg 462 257 [1 2 3 4 5 6 9 1 283 1274 12395712];
#X obj 10 93 t b b b b, f 91;
#X msg 311 171 [1 2 3 4 5 6 9 1 283 1274 12395712];
#X obj 10 321 outlet;
#X obj 147 318 outlet;
#X obj 356 316 outlet;
#X obj 457 320 outlet;
#X obj 11 21 inlet;
#X obj 10 245 py.mklist;
#X obj 161 257 py.mklist;
#X obj 311 251 py.mklist;
#X obj 462 277 py.mklist;
#X connect 0 0 11 0;
#X connect 1 0 10 0;
#X connect 2 0 13 0;
#X connect 3 0 1 0;
#X connect 3 1 0 0;
#X connect 3 2 4 0;
#X connect 3 3 2 0;
#X connect 4 0 12 0;
#X connect 9 0 3 0;
#X connect 10 0 5 0;
#X connect 11 0 6 0;
#X connect 12 0 7 0;
#X connect 13 0 8 0;
#X restore 250 101 pd list3;
#X f 15;
#X obj 9 68 t b b b b, f 73;
#N canvas 181 219 1314 370 list4 0;
#X msg 161 83 [1 2 3 4 5 6 9 1 283 1274 12395712];
#X msg 10 65 [1 2 3 4 5 6 9 1 283 1274 12395712];
#X msg 462 122 [1 2 3 4 5 6 9 1 283 1274 12395712];
#X obj 10 40 t b b b b, f 91;
#X msg 311 101 [1 2 3 4 5 6 9 1 283 1274 12395712];
#X obj 10 107 outlet;
#X obj 161 121 outlet;
#X obj 311 141 outlet;
#X obj 462 162 outlet;
#X obj 10 21 inlet;
#X obj 311 122 py.mklist;
#X obj 462 142 py.mklist;
#X obj 161 102 py.mklist;
#X obj 10 84 py.mklist;
#X connect 0 0 12 0;
#X connect 1 0 13 0;
#X connect 2 0 11 0;
#X connect 3 0 1 0;
#X connect 3 1 0 0;
#X connect 3 2 4 0;
#X connect 3 3 2 0;
#X connect 4 0 10 0;
#X connect 9 0 3 0;
#X connect 10 0 7 0;
#X connect 11 0 8 0;
#X connect 12 0 6 0;
#X connect 13 0 5 0;
#X restore 371 101 pd list4;
#X f 15;
#X obj 9 3 bng 15 250 50 0 empty empty empty 0 -8 0 8 #fcfcfc #000000 #000000;
#X obj 27 228 else/display;
#X obj 29 3 inlet;
#X obj 9 261 else/count;
#X obj 9 227 bng 15 250 50 0 empty empty empty 0 -8 0 8 #fcfcfc #000000 #000000;
#X obj 9 280 outlet;
#N canvas 181 219 1494 700 list2 0;
#X obj 10 93 t b b b b, f 91;
#X obj 10 321 outlet;
#X obj 147 318 outlet;
#X obj 356 316 outlet;
#X obj 457 320 outlet;
#X obj 11 21 inlet;
#X msg 10 164 [826 463 1278 1237 1077];
#X msg 161 223 [1 274 26579 2073];
#X msg 311 171 [1 2 43.4563 4 5 6 7];
#X msg 462 257 [1 27 467 128 12973 12345];
#X obj 161 257 py.mklist;
#X obj 10 245 py.mklist;
#X obj 311 251 py.mklist;
#X obj 462 277 py.mklist;
#X connect 0 0 6 0;
#X connect 0 1 7 0;
#X connect 0 2 8 0;
#X connect 0 3 9 0;
#X connect 5 0 0 0;
#X connect 6 0 11 0;
#X connect 7 0 10 0;
#X connect 8 0 12 0;
#X connect 9 0 13 0;
#X connect 10 0 2 0;
#X connect 11 0 1 0;
#X connect 12 0 3 0;
#X connect 13 0 4 0;
#X restore 129 101 pd list2;
#X f 15;
#X obj 9 168 py.list -a 4, f 28;
#X obj 9 189 py.nth None 0;
#X obj 9 208 py2pd;
#X obj 9 29 else/loop 10001;
#X connect 0 0 3 0;
#X connect 1 0 12 0;
#X connect 1 1 12 1;
#X connect 1 2 12 2;
#X connect 1 3 12 3;
#X connect 2 0 12 0;
#X connect 2 1 12 1;
#X connect 2 2 12 2;
#X connect 2 3 12 3;
#X connect 3 0 1 0;
#X connect 3 1 11 0;
#X connect 3 2 2 0;
#X connect 3 3 4 0;
#X connect 4 0 12 0;
#X connect 4 1 12 1;
#X connect 4 2 12 2;
#X connect 4 3 12 3;
#X connect 5 0 15 0;
#X connect 7 0 15 0;
#X connect 8 0 10 0;
#X connect 9 0 8 0;
#X connect 11 0 12 0;
#X connect 11 1 12 1;
#X connect 11 2 12 2;
#X connect 11 3 12 3;
#X connect 12 0 13 0;
#X connect 13 0 14 0;
#X connect 14 0 6 0;
#X connect 14 0 9 0;
#X connect 15 0 0 0;
#X restore 6 47 pd PROBLEM2;
#X obj 6 4 inlet;
#X obj 6 88 outlet;
#X obj 46 13 bng 15 250 50 0 empty empty empty 0 -8 0 8 #fcfcfc #000000 #000000;
#X obj 108 81 sel 40002;
#X obj 73 126 print PROBLEM-2-DONE;
#X connect 0 0 2 0;
#X connect 0 0 4 0;
#X connect 1 0 0 0;
#X connect 3 0 0 0;
#X connect 4 0 5 0;
