#N canvas 740 -5 1002 933 8;
#X obj 15 105 py.iterate;
#X obj 15 149 py.collect;
#X obj 15 168 t a a, f 15;
#X obj 87 189 py.nth None 0;
#X obj 15 380 s py4pd_again;
#X obj 49 73 r py4pd_again;
#X obj 168 314 py2pd;
#X obj 15 34 bng 15 250 50 0 empty empty empty 0 -8 0 8 #fcfcfc #000000 #000000;
#X obj 15 293 py.recursive;
#X msg 15 73 8 18;
#X obj 87 208 py> None 135029;
#X obj 15 126 py+ None 2;
#X obj 87 229 py2pd;
#X obj 20 6 inlet;
#X obj 365 373 print PROBLEM-1-DONE;
#X obj 15 54 loop 2001;
#X obj 15 267 py.gate -outn 1;
#X obj 168 364 sel 135030;
#X obj 168 407 outlet;
#X msg 168 385 1;
#X obj 243 365 nbx 10 14 -1e+37 1e+37 0 0 empty empty empty 0 -8 0 8 #fcfcfc #000000 #000000 0 256;
#X msg 195 385 0;
#X obj 168 335 t f b, f 40;
#X msg 42 221 reload;
#X obj 87 247 + 1;
#X connect 0 0 11 0;
#X connect 0 1 1 0;
#X connect 1 0 2 0;
#X connect 2 0 16 0;
#X connect 2 1 3 0;
#X connect 3 0 10 0;
#X connect 5 0 0 0;
#X connect 6 0 22 0;
#X connect 7 0 15 0;
#X connect 8 0 4 0;
#X connect 9 0 0 0;
#X connect 10 0 12 0;
#X connect 11 0 1 0;
#X connect 12 0 24 0;
#X connect 13 0 7 0;
#X connect 15 0 9 0;
#X connect 16 0 8 0;
#X connect 16 1 6 0;
#X connect 17 0 19 0;
#X connect 19 0 18 0;
#X connect 21 0 18 0;
#X connect 22 0 17 0;
#X connect 22 0 20 0;
#X connect 22 1 14 0;
#X connect 23 0 16 0;
#X connect 24 0 16 1;
