#N canvas 156 10 979 946 8;
#X obj 272 271 py.recursive;
#X obj 272 234 py.gate -outn 1;
#X obj 272 118 t a a;
#X obj 344 172 py2pd;
#X msg 213 70 0;
#X obj 272 97 py+ None 1;
#X obj 344 272 py2pd;
#X obj 22 129 random-array;
#X obj 22 150 py.iterate, f 16;
#X obj 22 171 py+ None 1;
#X obj 22 192 py- None 1;
#X obj 99 307 py.collect;
#X obj 22 213 py* None 10;
#X obj 22 234 py/ None 10;
#X obj 22 255 py+ None 1;
#X obj 99 328 py2pd;
#X msg 99 349 1;
#X obj 22 46 t b b, f 21;
#X obj 272 76 r again-\$0;
#X obj 272 293 s again-\$0;
#X msg 344 293 1;
#X obj 99 372 &&;
#X obj 344 314 t b f;
#X obj 99 434 outlet;
#X obj 22 6 inlet;
#X obj 22 107 loop 10000;
#X obj 344 151 py== None 1e+06 -a 2;
#X obj 344 193 + 1;
#X connect 0 0 19 0;
#X connect 1 0 0 0;
#X connect 1 1 6 0;
#X connect 2 0 1 0;
#X connect 2 1 26 0;
#X connect 3 0 27 0;
#X connect 4 0 5 0;
#X connect 5 0 2 0;
#X connect 6 0 20 0;
#X connect 7 0 8 0;
#X connect 8 0 9 0;
#X connect 8 1 11 0;
#X connect 9 0 10 0;
#X connect 10 0 12 0;
#X connect 11 0 15 0;
#X connect 12 0 13 0;
#X connect 13 0 14 0;
#X connect 14 0 11 0;
#X connect 15 0 16 0;
#X connect 16 0 21 0;
#X connect 17 0 25 0;
#X connect 17 1 4 0;
#X connect 18 0 5 0;
#X connect 20 0 22 0;
#X connect 21 0 23 0;
#X connect 22 0 21 0;
#X connect 22 1 21 1;
#X connect 24 0 17 0;
#X connect 25 0 7 0;
#X connect 26 0 3 0;
#X connect 27 0 1 1;
