#N canvas 686 36 967 880 8;
#X obj 5 5 py4pd -lib py4pd;
#X obj 135 34 t b b;
#X msg 37 373 \; pd quit;
#X msg 179 261 :) ALL Test PY4PDPASS;
#X obj 179 282 print PASS;
#X obj 157 229 t b b;
#X obj 135 10 r start-test;
#X obj 238 31 bng 15 250 50 0 empty empty empty 0 -8 0 8 #fcfcfc #000000 #000000;
#X obj 218 12 bng 15 250 50 0 empty empty empty 0 -8 0 8 #fcfcfc #000000 #000000;
#X obj 87 261 delay 10 1 msec;
#X obj 157 146 py4pd;
#X msg 157 98 pipinstall numpy;
#X connect 1 1 11 0;
#X connect 3 0 4 0;
#X connect 5 0 9 0;
#X connect 5 1 3 0;
#X connect 6 0 1 0;
#X connect 8 0 1 0;
#X connect 9 0 2 0;
#X connect 10 0 5 0;
#X connect 11 0 10 0;
