#N canvas 686 36 967 880 8;
#X obj 5 5 py4pd -lib py4pd;
#X obj 157 77 delay 1000 1 msec;
#X obj 135 34 t b b;
#X obj 37 94 t b b;
#X obj 59 148 print quit;
#X msg 59 118 :( not work;
#X msg 37 373 \; pd quit;
#X msg 179 261 :) ALL Test PY4PDPASS;
#X obj 179 282 print PASS;
#X obj 157 229 t b b;
#X obj 87 261 delay 1000 1 msec;
#X obj 135 10 r start-test;
#X obj 238 31 bng 15 250 50 0 empty empty empty 0 -8 0 8 #fcfcfc #000000 #000000;
#X obj 157 146 py.pip;
#X msg 157 98 local numpy;
#X obj 218 12 bng 15 250 50 0 empty empty empty 0 -8 0 8 #fcfcfc #000000 #000000;
#X obj 37 73 delay 80000 1 msec;
#X connect 1 0 14 0;
#X connect 2 0 16 0;
#X connect 2 1 1 0;
#X connect 3 0 4 0;
#X connect 4 0 7 0;
#X connect 4 1 6 0;
#X connect 6 0 5 0;
#X connect 8 0 9 0;
#X connect 10 0 11 0;
#X connect 10 1 8 0;
#X connect 11 0 7 0;
#X connect 12 0 2 0;
#X connect 13 0 14 0;
#X connect 14 0 10 0;
#X connect 15 0 1 0;
#X connect 16 0 13 0;
#X connect 17 0 16 0;
