#N canvas 686 36 446 584 8;
#X msg 3 245 \; pd quit;
#X msg 95 228 :) ALL Test PY4PDPASS;
#X obj 95 249 print PASS;
#X obj 73 196 t b b;
#X obj 73 4 r start-test;
#X obj 3 228 delay 10 1 msec;
#X obj 73 50 py4pd;
#X obj 73 70 sel 1 0;
#X obj 152 175 print ERROR;
#X obj 89 100 t b b;
#X msg 73 27 pipinstall numpy;
#X connect 1 0 2 0;
#X connect 3 0 5 0;
#X connect 3 1 1 0;
#X connect 4 0 10 0;
#X connect 5 0 0 0;
#X connect 6 0 7 0;
#X connect 7 0 3 0;
#X connect 7 1 9 0;
#X connect 9 0 5 0;
#X connect 9 1 8 0;
#X connect 10 0 6 0;
