#N canvas 686 36 967 710 8;
#X obj 5 5 py4pd -lib py4pd;
#X obj 135 218 py.pip;
#X msg 135 195 local neoscore;
#X obj 135 173 py.pip;
#X msg 135 150 local matplotlib;
#X msg 135 108 local Pillow;
#X obj 135 128 py.pip;
#X obj 135 13 loadbang;
#X obj 135 73 delay 1000 1 msec;
#X obj 135 34 t b b;
#X obj 37 73 delay 20000 1 msec;
#X obj 37 94 bng 15 250 50 0 empty empty empty 0 -8 0 8 #fcfcfc #000000 #000000;
#X msg 37 300 \; pd quit;
#X connect 1 0 12 0;
#X connect 2 0 1 0;
#X connect 3 0 2 0;
#X connect 4 0 3 0;
#X connect 5 0 6 0;
#X connect 6 0 4 0;
#X connect 7 0 9 0;
#X connect 8 0 5 0;
#X connect 9 0 10 0;
#X connect 9 1 8 0;
#X connect 10 0 11 0;
#X connect 11 0 12 0;
