#N canvas 686 36 490 410 8;
#X obj 5 5 py4pd -lib py4pd;
#X msg 3 147 \; pd quit;
#X msg 95 130 :) ALL Test PY4PDPASS;
#X obj 95 151 print PASS;
#X obj 73 98 t b b;
#X obj 73 32 r start-test;
#X obj 3 130 delay 10 1 msec;
#X obj 73 78 py4pd;
#X msg 73 55 pipinstall numpy;
#X obj 140 32 loadbang;
#X connect 2 0 3 0;
#X connect 4 0 6 0;
#X connect 4 1 2 0;
#X connect 5 0 8 0;
#X connect 6 0 1 0;
#X connect 7 0 4 0;
#X connect 8 0 7 0;
#X connect 9 0 8 0;
