#N canvas 686 36 811 649 8;
#X msg 3 286 \; pd quit;
#X msg 95 269 :) ALL Test PY4PDPASS;
#X obj 95 290 print PASS;
#X obj 73 237 t b b;
#X obj 73 4 r start-test;
#X obj 3 269 delay 10 1 msec;
#X obj 73 108 py4pd;
#X obj 73 137 sel 1 0;
#X obj 111 187 print ERROR;
#X obj 89 167 t b b;
#X obj 265 36 loadbang;
#X obj 265 125 s start-test;
#X obj 265 56 del 5 1 sec;
#X obj 265 94 spigot;
#X obj 352 46 loadbang;
#X obj 352 66 tgl 15 0 empty empty empty 0 -8 0 8 #fcfcfc #000000 #000000 0 1;
#X obj 73 45 change;
#X obj 73 65 bng 15 250 50 0 empty empty empty 0 -8 0 8 #fcfcfc #000000 #000000;
#X msg 73 24 1;
#X msg 73 85 pip install numpy;
#X connect 1 0 2 0;
#X connect 3 0 5 0;
#X connect 3 1 1 0;
#X connect 4 0 18 0;
#X connect 5 0 0 0;
#X connect 6 0 7 0;
#X connect 7 0 3 0;
#X connect 7 1 9 0;
#X connect 9 0 5 0;
#X connect 9 1 8 0;
#X connect 10 0 12 0;
#X connect 12 0 13 0;
#X connect 13 0 11 0;
#X connect 14 0 15 0;
#X connect 15 0 13 1;
#X connect 16 0 17 0;
#X connect 17 0 19 0;
#X connect 18 0 16 0;
#X connect 19 0 6 0;
