#N canvas 686 36 967 880 8;
#X obj 5 5 py4pd -lib py4pd;
#X obj 157 256 py.pip;
#X msg 157 233 local neoscore;
#X obj 157 211 py.pip;
#X msg 157 188 local matplotlib;
#X msg 157 146 local Pillow;
#X obj 157 166 py.pip;
#X obj 157 77 delay 1000 1 msec;
#X obj 135 34 t b b;
#X obj 37 73 delay 60000 1 msec;
#X obj 157 124 py.pip;
#X msg 157 99 local tk;
#X obj 37 94 t b b;
#X obj 59 148 print quit;
#X msg 59 118 :( not work;
#X msg 37 373 \; pd quit;
#X msg 179 346 :) ALL Test PY4PDPASS;
#X obj 179 367 print PASS;
#X obj 157 314 t b b;
#X obj 87 346 delay 1000 1 msec;
#X obj 135 10 r start-test;
#X msg 157 277 local numba;
#X obj 157 294 py.pip;
#X obj 238 31 bng 15 250 50 0 empty empty empty 0 -8 0 8 #fcfcfc #000000 #000000;
#X obj 299 23 loadbang;
#X obj 299 44 delay 60000 1 msec;
#X connect 1 0 21 0;
#X connect 2 0 1 0;
#X connect 3 0 2 0;
#X connect 4 0 3 0;
#X connect 5 0 6 0;
#X connect 6 0 4 0;
#X connect 7 0 11 0;
#X connect 8 0 9 0;
#X connect 8 1 7 0;
#X connect 9 0 12 0;
#X connect 10 0 5 0;
#X connect 11 0 10 0;
#X connect 12 0 15 0;
#X connect 12 1 14 0;
#X connect 14 0 13 0;
#X connect 16 0 17 0;
#X connect 18 0 19 0;
#X connect 18 1 16 0;
#X connect 19 0 15 0;
#X connect 20 0 8 0;
#X connect 21 0 22 0;
#X connect 22 0 18 0;
#X connect 23 0 7 0;
#X connect 24 0 25 0;
#X connect 25 0 8 0;
