#N canvas 411 35 1432 933 12;
#X obj 33 71 bng 20 250 50 0 empty empty empty 0 -10 0 12 #fcfcfc #000000 #000000;
#X msg 33 416 \; pd quit;
#X obj 33 38 t b b;
#X obj 33 212 spigot;
#X msg 72 161 1;
#X obj 72 184 tgl 20 0 empty empty empty 0 -10 0 12 #fcfcfc #000000 #000000 0 1;
#X obj 33 332 t b b;
#X msg 65 364 :( TIMEOUT: Test Failed;
#X obj 65 389 print ERROR;
#X obj 307 358 bng 20 250 50 0 empty empty empty 0 -10 0 12 #fcfcfc #000000 #000000;
#X obj 307 409 print PASS;
#X msg 307 384 :) ALL Test Pass;
#X obj 275 231 t b b;
#X obj 33 100 delay 15000 1 msec;
#X obj 33 9 r start-test;
#X obj 72 130 r start-test;
#X obj 275 8 bng 20 250 50 0 empty empty empty 0 -10 0 12 #fcfcfc #000000 #000000;
#X text 332 30 Run with args;
#N canvas 0 0 1330 745 TEST 0;
#X obj 41 188 py4pd;
#X msg 80 136 set py fibonacci;
#X msg 18 103 run 20;
#X obj 41 213 sel 6765;
#X obj 41 238 t b a;
#X msg 73 269 fiboacci ok;
#X obj 73 301 print test1;
#X msg 41 263 1;
#X obj 16 9 inlet;
#X obj 41 328 outlet;
#X msg 232 132 Test error message for incorrect number of args;
#X msg 231 103 -----------------------------------------------;
#X obj 198 174 print MESSAGE;
#X obj 16 34 t b b b;
#X obj 80 99 loadbang;
#X connect 0 0 3 0;
#X connect 1 0 0 0;
#X connect 2 0 0 0;
#X connect 3 0 4 0;
#X connect 4 0 7 0;
#X connect 4 1 5 0;
#X connect 5 0 6 0;
#X connect 7 0 9 0;
#X connect 8 0 13 0;
#X connect 10 0 12 0;
#X connect 11 0 12 0;
#X connect 13 0 2 0;
#X connect 13 1 10 0;
#X connect 13 2 11 0;
#X connect 14 0 1 0;
#X restore 275 31 pd TEST;
#X obj 293 54 py4pd   -score;
#X obj 171 327 spigot;
#X obj 210 158 loadbang;
#X msg 210 183 1;
#X obj 210 208 tgl 20 0 empty empty empty 0 -10 0 12 #fcfcfc #000000 #000000 0 1;
#X obj 542 29 loadbang;
#X obj 542 109 s start-test;
#X obj 577 81 bng 20 250 50 0 empty empty empty 0 -10 0 12 #fcfcfc #000000 #000000;
#X obj 542 53 delay 5000 1 msec;
#X obj 101 278 delay 5000 1 msec;
#X obj 122 207 r delay;
#X connect 0 0 13 0;
#X connect 2 0 0 0;
#X connect 2 1 18 0;
#X connect 3 0 6 0;
#X connect 4 0 5 0;
#X connect 5 0 3 1;
#X connect 6 0 1 0;
#X connect 6 1 7 0;
#X connect 7 0 8 0;
#X connect 9 0 11 0;
#X connect 11 0 10 0;
#X connect 12 0 28 0;
#X connect 12 1 9 0;
#X connect 13 0 3 0;
#X connect 14 0 2 0;
#X connect 15 0 4 0;
#X connect 16 0 18 0;
#X connect 18 0 12 0;
#X connect 20 0 1 0;
#X connect 20 0 9 0;
#X connect 21 0 22 0;
#X connect 22 0 23 0;
#X connect 23 0 20 1;
#X connect 24 0 27 0;
#X connect 26 0 25 0;
#X connect 28 0 20 0;
#X connect 29 0 28 1;
