#N canvas 411 35 1432 933 8;
#X obj 33 71 bng 20 250 50 0 empty empty empty 0 -10 0 12 #fcfcfc #000000 #000000;
#X msg 33 416 \; pd quit;
#X obj 33 38 t b b;
#X obj 33 212 spigot;
#X msg 72 161 1;
#X obj 72 184 tgl 20 0 empty empty empty 0 -10 0 12 #fcfcfc #000000 #000000 0 1;
#X obj 33 332 t b b;
#X msg 65 364 :( TIMEOUT: Test Failed;
#X obj 65 389 print ERROR;
#X obj 307 291 bng 20 250 50 0 empty empty empty 0 -10 0 12 #fcfcfc #000000 #000000;
#X obj 307 342 print PASS;
#X msg 307 317 :) ALL Test Pass;
#X obj 275 231 t b b;
#X obj 33 100 delay 15000 1 msec;
#X obj 33 9 r start-test;
#X obj 72 130 r start-test;
#X text 332 78 Test sequencial runnings;
#N canvas 181 64 1440 718 TEST 0;
#X obj 82 106 int;
#X obj 82 131 + 1;
#X msg 82 182 run \$1 10;
#X msg 13 208 0;
#X obj 182 155 loadbang;
#X msg 157 313 sums ok;
#X obj 82 16 inlet;
#X obj 81 362 outlet;
#X msg 397 141 -----------------------------------------------;
#X obj 82 43 t b b b, f 62;
#X msg 398 170 Test sequencial runnings;
#X obj 364 212 print MESSAGE;
#X obj 157 338 print test2;
#X obj 13 183 sel 200;
#X obj 82 76 metro 1;
#X obj 82 155 % 201;
#X obj 82 266 sel 210;
#X msg 182 181 set py pdsum;
#X obj 82 235 py4pd;
#X connect 0 0 1 0;
#X connect 1 0 0 1;
#X connect 1 0 15 0;
#X connect 2 0 18 0;
#X connect 3 0 14 0;
#X connect 4 0 17 0;
#X connect 5 0 12 0;
#X connect 6 0 9 0;
#X connect 8 0 11 0;
#X connect 9 0 14 0;
#X connect 9 1 10 0;
#X connect 9 2 8 0;
#X connect 10 0 11 0;
#X connect 13 0 3 0;
#X connect 14 0 0 0;
#X connect 15 0 2 0;
#X connect 15 0 13 0;
#X connect 16 0 5 0;
#X connect 16 0 7 0;
#X connect 17 0 18 0;
#X connect 18 0 16 0;
#X restore 275 78 pd TEST;
#N canvas 653 67 960 980 TEST 0;
#X obj 18 289 py4pd;
#X msg 36 200 run 1 1;
#X obj 251 288 py4pd;
#X msg 251 171 set py arithm_ser;
#X msg 269 199 run 1 20 1;
#X obj 115 288 py4pd;
#X msg 115 171 set py fibonacci;
#X msg 133 199 run 20;
#X obj 480 114 t b b b;
#X obj 328 111 t b b b;
#X obj 31 129 delay 50 1 msec;
#X obj 328 83 delay 50 1 msec;
#X obj 21 73 delay 100 1 msec;
#X obj 170 84 delay 75 1 msec;
#X obj 18 314 sel 2;
#X obj 18 375 spigot;
#X obj 133 338 loadbang;
#X msg 133 363 0;
#X obj 20 99 t b b b;
#X msg 78 275 1;
#X obj 18 438 outlet;
#X obj 21 40 t b b b b b, f 66;
#X msg 349 333 -----------------------------------------------;
#X obj 316 404 print MESSAGE;
#X msg 350 362 Test panic functions;
#X obj 18 400 t b b;
#X obj 158 439 print TEST6;
#X msg 158 413 OK;
#X obj 21 14 inlet;
#X msg 376 228 restart;
#X msg 18 172 set py pdsum;
#X connect 0 0 14 0;
#X connect 1 0 0 0;
#X connect 3 0 2 0;
#X connect 4 0 2 0;
#X connect 6 0 5 0;
#X connect 7 0 5 0;
#X connect 8 0 30 0;
#X connect 8 1 6 0;
#X connect 8 2 3 0;
#X connect 9 0 1 0;
#X connect 9 1 7 0;
#X connect 9 2 4 0;
#X connect 10 0 9 0;
#X connect 11 0 9 0;
#X connect 12 0 18 0;
#X connect 13 0 29 0;
#X connect 14 0 15 0;
#X connect 15 0 25 0;
#X connect 16 0 17 0;
#X connect 17 0 15 1;
#X connect 18 0 10 0;
#X connect 18 1 8 0;
#X connect 18 2 19 0;
#X connect 19 0 15 1;
#X connect 21 0 12 0;
#X connect 21 1 13 0;
#X connect 21 2 11 0;
#X connect 21 3 8 0;
#X connect 21 4 22 0;
#X connect 22 0 23 0;
#X connect 24 0 23 0;
#X connect 25 0 20 0;
#X connect 25 1 27 0;
#X connect 27 0 26 0;
#X connect 28 0 21 0;
#X connect 29 0 2 0;
#X connect 30 0 0 0;
#X restore 346 240 pd TEST;
#X text 402 241 Restart Function not work yet.;
#X obj 346 202 bng 20 250 50 0 empty empty empty 0 -10 0 12 #fcfcfc #000000 #000000;
#X obj 65 71 print starting-test;
#X obj 171 314 spigot;
#X obj 210 158 loadbang;
#X msg 210 183 1;
#X obj 210 208 tgl 20 0 empty empty empty 0 -10 0 12 #fcfcfc #000000 #000000 0 1;
#X obj 126 217 r delay;
#X obj 267 27 bng 20 250 50 0 empty empty empty 0 -10 0 12 #fcfcfc #000000 #000000;
#X obj 94 273 delay 3000 1 msec;
#X obj 104 9 bng 15 250 50 0 empty empty empty 0 -8 0 8 #fcfcfc #000000 #000000;
#X connect 0 0 13 0;
#X connect 2 0 0 0;
#X connect 2 1 21 0;
#X connect 2 1 17 0;
#X connect 3 0 6 0;
#X connect 4 0 5 0;
#X connect 5 0 3 1;
#X connect 6 0 1 0;
#X connect 6 1 7 0;
#X connect 7 0 8 0;
#X connect 9 0 11 0;
#X connect 11 0 10 0;
#X connect 12 0 28 0;
#X connect 12 1 9 0;
#X connect 13 0 3 0;
#X connect 14 0 2 0;
#X connect 15 0 4 0;
#X connect 17 0 12 0;
#X connect 20 0 18 0;
#X connect 22 0 1 0;
#X connect 22 0 9 0;
#X connect 23 0 24 0;
#X connect 24 0 25 0;
#X connect 25 0 22 1;
#X connect 26 0 28 1;
#X connect 27 0 17 0;
#X connect 28 0 22 0;
#X connect 29 0 2 0;
