#N canvas 411 35 974 899 8;
#X obj 33 71 bng 20 250 50 0 empty empty empty 0 -10 0 12 #fcfcfc #000000 #000000;
#X msg 33 416 \; pd quit;
#X obj 33 38 t b b;
#X obj 33 212 spigot;
#X msg 72 161 1;
#X obj 72 184 tgl 20 0 empty empty empty 0 -10 0 12 #fcfcfc #000000 #000000 0 1;
#X obj 33 332 t b b;
#X msg 65 364 :( TIMEOUT: Test Failed;
#X obj 65 389 print ERROR;
#X obj 307 291 bng 20 250 50 0 empty empty empty 0 -10 0 12 #fcfcfc #000000 #000000;
#X obj 307 342 print PASS;
#X msg 307 317 :) ALL Test Pass;
#X obj 275 231 t b b;
#X obj 33 100 delay 15000 1 msec;
#X obj 33 9 r start-test;
#X obj 72 130 r start-test;
#X text 332 157 Set different functions;
#N canvas 470 98 1440 718 TEST 0;
#X obj 153 330 py4pd;
#X obj 24 164 loadbang;
#X obj 61 27 inlet;
#X obj 153 457 outlet;
#X obj 61 78 t b b b b, f 21;
#X msg 397 141 -----------------------------------------------;
#X obj 364 212 print MESSAGE;
#X msg 398 170 Test set diferent functions;
#X msg 169 180 set py arithm_ser;
#X msg 149 214 set py arithm_ser;
#X obj 228 433 print test5;
#X msg 228 408 set ok;
#X obj 109 133 t b b b b;
#X msg 109 279 run 1 1;
#X obj 153 355 sel 2;
#X obj 153 380 t b b;
#X obj 177 32 bng 20 250 50 0 empty empty empty 0 -10 0 12 #fcfcfc #000000 #000000;
#X msg 129 248 set py pdsum;
#X msg 24 190 set py pdsum;
#X connect 0 0 14 0;
#X connect 1 0 18 0;
#X connect 2 0 4 0;
#X connect 4 1 12 0;
#X connect 4 2 7 0;
#X connect 4 3 5 0;
#X connect 5 0 6 0;
#X connect 7 0 6 0;
#X connect 8 0 0 0;
#X connect 9 0 0 0;
#X connect 11 0 10 0;
#X connect 12 0 13 0;
#X connect 12 1 17 0;
#X connect 12 2 9 0;
#X connect 12 3 8 0;
#X connect 13 0 0 0;
#X connect 14 0 15 0;
#X connect 15 0 3 0;
#X connect 15 1 11 0;
#X connect 16 0 4 0;
#X connect 17 0 0 0;
#X connect 18 0 0 0;
#X restore 275 158 pd TEST;
#X obj 65 71 print starting-test;
#X obj 171 333 spigot;
#X obj 210 158 loadbang;
#X msg 210 183 1;
#X obj 210 208 tgl 20 0 empty empty empty 0 -10 0 12 #fcfcfc #000000 #000000 0 1;
#X obj 111 224 r delay;
#X obj 101 278 delay 1000 1 msec;
#X obj 106 7 bng 15 250 50 0 empty empty empty 0 -8 0 8 #fcfcfc #000000 #000000;
#X connect 0 0 13 0;
#X connect 2 0 0 0;
#X connect 2 1 18 0;
#X connect 2 1 17 0;
#X connect 3 0 6 0;
#X connect 4 0 5 0;
#X connect 5 0 3 1;
#X connect 6 0 1 0;
#X connect 6 1 7 0;
#X connect 7 0 8 0;
#X connect 9 0 11 0;
#X connect 11 0 10 0;
#X connect 12 0 24 0;
#X connect 12 1 9 0;
#X connect 13 0 3 0;
#X connect 14 0 2 0;
#X connect 15 0 4 0;
#X connect 17 0 12 0;
#X connect 19 0 1 0;
#X connect 20 0 21 0;
#X connect 21 0 22 0;
#X connect 22 0 19 1;
#X connect 23 0 24 1;
#X connect 24 0 19 0;
#X connect 25 0 2 0;
