#N canvas 411 35 1432 933 12;
#X obj 33 71 bng 20 250 50 0 empty empty empty 0 -10 0 12 #fcfcfc #000000 #000000;
#X msg 33 416 \; pd quit;
#X obj 33 38 t b b;
#X obj 33 212 spigot;
#X msg 72 161 1;
#X obj 72 184 tgl 20 0 empty empty empty 0 -10 0 12 #fcfcfc #000000 #000000 0 1;
#X obj 33 332 t b b;
#X msg 65 364 :( TIMEOUT: Test Failed;
#X obj 65 389 print ERROR;
#X obj 307 291 bng 20 250 50 0 empty empty empty 0 -10 0 12 #fcfcfc #000000 #000000;
#X obj 307 342 print PASS;
#X msg 307 317 :) ALL Test Pass;
#X obj 275 231 t b b;
#X obj 33 100 delay 15000 1 msec;
#X obj 33 9 r start-test;
#X obj 72 130 r start-test;
#X obj 275 8 bng 20 250 50 0 empty empty empty 0 -10 0 12 #fcfcfc #000000 #000000;
#X text 332 131 Run with wrong number of args;
#N canvas -1 31 1920 980 TEST 0;
#X obj 153 290 py4pd;
#X obj 24 164 loadbang;
#X obj 153 321 sel 1010;
#X msg 228 368 sums ok;
#X obj 61 27 inlet;
#X obj 153 417 outlet;
#X obj 61 78 t b b b b, f 21;
#X msg 398 170 Test error message for incorrect number of args;
#X msg 397 141 -----------------------------------------------;
#X obj 109 133 t b b b;
#X msg 155 159 run 1 2 3 4 5;
#X msg 132 206 run 1;
#X msg 109 239 run 1000 10;
#X obj 364 212 print MESSAGE;
#X obj 228 393 print test4;
#X msg 24 190 set py pdsum;
#X connect 0 0 2 0;
#X connect 1 0 15 0;
#X connect 2 0 3 0;
#X connect 2 0 5 0;
#X connect 3 0 14 0;
#X connect 4 0 6 0;
#X connect 6 1 9 0;
#X connect 6 2 7 0;
#X connect 6 3 8 0;
#X connect 7 0 13 0;
#X connect 8 0 13 0;
#X connect 9 0 12 0;
#X connect 9 1 11 0;
#X connect 9 2 10 0;
#X connect 10 0 0 0;
#X connect 11 0 0 0;
#X connect 12 0 0 0;
#X connect 15 0 0 0;
#X restore 275 132 pd TEST;
#N canvas 653 67 960 980 TEST 0;
#X obj 18 289 py4pd;
#X msg 36 200 run 1 1;
#X obj 251 288 py4pd;
#X msg 251 171 set py arithm_ser;
#X msg 269 199 run 1 20 1;
#X obj 115 288 py4pd;
#X msg 115 171 set py fibonacci;
#X msg 133 199 run 20;
#X obj 480 114 t b b b;
#X obj 328 111 t b b b;
#X obj 31 129 delay 50 1 msec;
#X obj 328 83 delay 50 1 msec;
#X obj 21 73 delay 100 1 msec;
#X obj 170 84 delay 75 1 msec;
#X obj 18 314 sel 2;
#X obj 18 375 spigot;
#X obj 133 338 loadbang;
#X msg 133 363 0;
#X obj 20 99 t b b b;
#X msg 78 275 1;
#X obj 18 438 outlet;
#X obj 21 40 t b b b b b, f 66;
#X msg 349 333 -----------------------------------------------;
#X obj 316 404 print MESSAGE;
#X msg 350 362 Test panic functions;
#X obj 18 400 t b b;
#X obj 158 439 print TEST6;
#X msg 158 413 OK;
#X obj 21 14 inlet;
#X msg 376 228 restart;
#X msg 18 172 set py pdsum;
#X connect 0 0 14 0;
#X connect 1 0 0 0;
#X connect 3 0 2 0;
#X connect 4 0 2 0;
#X connect 6 0 5 0;
#X connect 7 0 5 0;
#X connect 8 0 30 0;
#X connect 8 1 6 0;
#X connect 8 2 3 0;
#X connect 9 0 1 0;
#X connect 9 1 7 0;
#X connect 9 2 4 0;
#X connect 10 0 9 0;
#X connect 11 0 9 0;
#X connect 12 0 18 0;
#X connect 13 0 29 0;
#X connect 14 0 15 0;
#X connect 15 0 25 0;
#X connect 16 0 17 0;
#X connect 17 0 15 1;
#X connect 18 0 10 0;
#X connect 18 1 8 0;
#X connect 18 2 19 0;
#X connect 19 0 15 1;
#X connect 21 0 12 0;
#X connect 21 1 13 0;
#X connect 21 2 11 0;
#X connect 21 3 8 0;
#X connect 21 4 22 0;
#X connect 22 0 23 0;
#X connect 24 0 23 0;
#X connect 25 0 20 0;
#X connect 25 1 27 0;
#X connect 27 0 26 0;
#X connect 28 0 21 0;
#X connect 29 0 2 0;
#X connect 30 0 0 0;
#X restore 346 240 pd TEST;
#X text 402 241 Restart Function not work yet.;
#X obj 346 202 bng 20 250 50 0 empty empty empty 0 -10 0 12 #fcfcfc #000000 #000000;
#X obj 65 71 print starting-test;
#X obj 445 317 py4pd   -score;
#X obj 128 310 spigot;
#X obj 210 158 loadbang;
#X msg 210 183 1;
#X obj 210 208 tgl 20 0 empty empty empty 0 -10 0 12 #fcfcfc #000000 #000000 0 1;
#X obj 542 29 loadbang;
#X obj 542 109 s start-test;
#X obj 577 81 bng 20 250 50 0 empty empty empty 0 -10 0 12 #fcfcfc #000000 #000000;
#X obj 542 53 delay 5000 1 msec;
#X obj 128 262 delay 500 1 msec;
#X obj 128 207 r delay;
#X msg 181 403 :) ALL Test Pass;
#X connect 0 0 13 0;
#X connect 2 0 0 0;
#X connect 2 1 22 0;
#X connect 2 1 18 0;
#X connect 3 0 6 0;
#X connect 4 0 5 0;
#X connect 5 0 3 1;
#X connect 6 0 1 0;
#X connect 6 1 7 0;
#X connect 7 0 8 0;
#X connect 9 0 11 0;
#X connect 11 0 10 0;
#X connect 12 0 32 0;
#X connect 12 1 9 0;
#X connect 13 0 3 0;
#X connect 14 0 2 0;
#X connect 15 0 4 0;
#X connect 18 0 12 0;
#X connect 21 0 19 0;
#X connect 24 0 1 0;
#X connect 24 0 34 0;
#X connect 25 0 26 0;
#X connect 26 0 27 0;
#X connect 27 0 24 1;
#X connect 28 0 31 0;
#X connect 30 0 29 0;
#X connect 32 0 24 0;
#X connect 33 0 32 1;
#X connect 34 0 10 0;
