#N canvas 598 -23 1179 954 8;
#X obj 5 5 py4pd -lib py4pd;
#X obj 135 10 r start-test;
#X obj 27 315 sel 0 1;
#X obj 27 355 print ERROR;
#X msg 5 421 \; pd quit;
#X obj 5 295 t b f;
#X obj 135 102 py.iterate;
#N canvas 69 374 626 577 loop 0;
#X obj 8 5 inlet;
#X obj 8 27 py.iterate, f 22;
#X obj 115 224 py.collect;
#X obj 115 255 outlet;
#X obj 8 92 py* None 20;
#X connect 0 0 1 0;
#X connect 1 0 4 0;
#X connect 1 1 2 0;
#X connect 2 0 3 0;
#X connect 4 0 2 0;
#X restore 135 123 pd loop;
#X obj 182 149 py.collect;
#X obj 135 82 py.list -a 2;
#X obj 135 35 t b b;
#X msg 192 61 6 7 8 9 10;
#X msg 135 61 1 2 3 4 5;
#X obj 182 170 t a a, f 37;
#X obj 364 191 py.nth None 1;
#X obj 182 191 py.nth None 0;
#X obj 182 212 py.nth None 2;
#X obj 364 213 py.nth None 2;
#X obj 182 233 py2pd;
#X obj 364 234 py2pd;
#X obj 364 255 expr if($f1 == 160 \, 1 \, 0);
#X obj 182 254 expr if($f1 == 60 \, 1 \, 0);
#X obj 182 274 &&, f 14;
#X obj 182 295 sel 1;
#X obj 182 316 int 1;
#X obj 182 337 + 1;
#X obj 182 377 sel 1 0, f 29;
#X obj 206 10 r again;
#X obj 75 147 py.memuse;
#X obj 10 249 expr if(($f1 - $f2) < 3 \, 1 \, 0);
#X obj 10 191 py.memuse;
#X obj 253 432 s again;
#X obj 253 410 delay 1 1 samp;
#X obj 116 9 bng 15 250 50 0 empty empty empty 0 -8 0 8 #fcfcfc #000000 #000000;
#X obj 182 356 expr if($f1 > 20000 \, 1 \, 0);
#X msg 274 226 0;
#X obj 43 336 print PY4PDPASS;
#X connect 1 0 10 0;
#X connect 1 0 28 0;
#X connect 2 0 3 0;
#X connect 2 1 36 0;
#X connect 5 0 4 0;
#X connect 5 1 2 0;
#X connect 6 0 7 0;
#X connect 6 1 8 0;
#X connect 7 0 8 0;
#X connect 8 0 13 0;
#X connect 9 0 6 0;
#X connect 10 0 12 0;
#X connect 10 1 11 0;
#X connect 11 0 9 1;
#X connect 12 0 9 0;
#X connect 13 0 15 0;
#X connect 13 1 14 0;
#X connect 14 0 17 0;
#X connect 15 0 16 0;
#X connect 16 0 18 0;
#X connect 17 0 19 0;
#X connect 18 0 21 0;
#X connect 19 0 20 0;
#X connect 20 0 22 1;
#X connect 21 0 22 0;
#X connect 22 0 23 0;
#X connect 23 0 24 0;
#X connect 24 0 25 0;
#X connect 25 0 24 1;
#X connect 25 0 34 0;
#X connect 26 0 30 0;
#X connect 26 1 32 0;
#X connect 27 0 10 0;
#X connect 28 0 29 1;
#X connect 29 0 5 0;
#X connect 30 0 29 0;
#X connect 32 0 31 0;
#X connect 33 0 10 0;
#X connect 33 0 28 0;
#X connect 34 0 26 0;
#X connect 35 0 24 1;
