#N canvas 583 -8 740 918 8;
#X obj 12 7 py4pd -lib multichannel;
#X obj 135 7 r start-test;
#X msg 211 129 \; pd dsp 1;
#X obj 59 109 t b b, f 20;
#X obj 59 181 snake~ out 2;
#X obj 59 215 dac~, f 12;
#X obj 59 160 sinusoids~ -ch 2;
#X obj 135 89 t b b b, f 31;
#N canvas 329 161 1087 780 vu 0;
#X obj 59 129 env~ 1024;
#X obj 161 111 abs~;
#X obj 161 213 snapshot~;
#X obj 161 256 rmstodb;
#X obj 161 21 inlet~;
#X obj 161 288 - 100;
#X obj 59 287 - 100;
#X obj 59 361 outlet;
#X obj 161 361 outlet;
#X text 344 307 Check the help file of env~ and slop~ for more details., f 31;
#X obj 239 89 expr 1000 / $f1;
#X floatatom 239 117 5 0 0 0 - - - 0;
#X obj 161 146 slop~ 0 0 0 0 1e+09;
#X obj 239 18 inlet;
#X floatatom 239 57 5 0 0 0 - - - 0;
#X text 359 89 convert to hz;
#X text 282 118 hz;
#X text 284 57 peak decay time in ms;
#X obj 59 171 t f b;
#X text 345 132 The env~ object is dedicated to RMS analysis. Its output is in dB (0-100 range \, pd style) but needs to be converted to dBFS (and we do that by simply subtracting 100)., f 31;
#X text 345 225 The slop~ object is used here for peak detection. We need to convert the output to dB with rmstodb and also subtract by 100 to convert it to dBFS., f 31;
#X connect 0 0 18 0;
#X connect 1 0 12 0;
#X connect 2 0 3 0;
#X connect 3 0 5 0;
#X connect 4 0 0 0;
#X connect 4 0 1 0;
#X connect 5 0 8 0;
#X connect 6 0 7 0;
#X connect 10 0 11 0;
#X connect 11 0 12 3;
#X connect 12 0 2 0;
#X connect 13 0 14 0;
#X connect 14 0 10 0;
#X connect 18 0 6 0;
#X connect 18 1 2 0;
#X restore 152 213 pd vu;
#X text 193 230 <-- open for analysis;
#X obj 152 288 nbx 5 14 -1e+37 1e+37 0 0 empty empty empty 0 -8 0 8 #fcfcfc #000000 #000000 0 256;
#X obj 152 309 sel 1;
#X obj 162 244 nbx 5 14 -1e+37 1e+37 0 0 empty empty empty 0 -8 0 8 #fcfcfc #000000 #000000 0 256;
#X obj 152 344 delay 1000 1 msec;
#X msg 152 421 \; pd quit;
#X obj 184 402 print PASS;
#X msg 184 384 :) ALL Test Pass;
#X obj 152 365 t b b, f 7;
#X msg 329 139 0;
#X msg 244 342 1;
#N canvas 81 119 450 300 notpassed 0;
#X obj 51 9 inlet;
#X obj 51 80 delay 60000 1 msec;
#X msg 51 101 \; pd quit;
#X obj 51 30 t b f;
#X connect 0 0 3 0;
#X connect 1 0 2 0;
#X connect 3 0 1 0;
#X connect 3 1 1 1;
#X restore 8 89 pd notpassed;
#X obj 135 41 t b b;
#X obj 204 7 bng 15 250 50 0 empty empty empty 0 -8 0 8 #fcfcfc #000000 #000000;
#X obj 152 269 expr if($f1 > -15 && $f2 == 0 \, 1 \, 0);
#X msg 59 130 400 500;
#X msg 8 69 5000;
#X obj 205 44 bng 15 250 50 0 empty empty empty 0 -8 0 8 #fcfcfc #000000 #000000;
#X msg 156 131 0.3 0.3;
#X connect 1 0 21 0;
#X connect 3 0 24 0;
#X connect 3 1 27 0;
#X connect 4 0 5 0;
#X connect 4 1 5 1;
#X connect 4 1 8 0;
#X connect 6 0 4 0;
#X connect 7 0 3 0;
#X connect 7 1 2 0;
#X connect 7 2 18 0;
#X connect 8 0 12 0;
#X connect 8 0 23 0;
#X connect 10 0 11 0;
#X connect 11 0 13 0;
#X connect 11 0 19 0;
#X connect 13 0 17 0;
#X connect 16 0 15 0;
#X connect 17 0 14 0;
#X connect 17 1 16 0;
#X connect 18 0 23 1;
#X connect 19 0 23 1;
#X connect 21 0 25 0;
#X connect 21 1 7 0;
#X connect 22 0 21 0;
#X connect 23 0 10 0;
#X connect 24 0 6 0;
#X connect 25 0 20 0;
#X connect 26 0 7 0;
#X connect 27 0 6 1;
