#N canvas 342 32 1368 929 8;
#X obj 8 6 py4pd -lib py4pd;
#X obj 10 48 bng 25 250 50 0 empty empty empty 0 -8 0 8 #fcfcfc #000000 #000000;
#X obj 10 28 r start-test;
#X obj 10 211 nbx 5 14 -1e+37 1e+37 0 0 empty empty empty 0 -8 0 8 #fcfcfc #000000 #000000 0 256;
#X obj 10 246 list;
#X obj 27 227 r mem;
#X obj 10 190 py.memuse;
#X obj 10 287 expr if(($f1 - $f2) < 3 \, 1 \, 0);
#X obj 34 326 sel 0 1;
#X obj 34 394 print ERROR;
#X obj 50 345 print PASS;
#X msg 10 435 \; pd quit;
#X obj 10 306 t b f;
#X obj 102 106 mem/problem1;
#X obj 102 127 nbx 7 14 -1e+37 1e+37 0 0 empty empty empty 0 -8 0 8 #fcfcfc #000000 #000000 0 256;
#X obj 194 124 nbx 5 14 -1e+37 1e+37 0 0 empty empty empty 0 -8 0 8 #fcfcfc #000000 #000000 0 256;
#X obj 194 106 mem/problem2;
#X obj 286 124 nbx 5 14 -1e+37 1e+37 0 0 empty empty empty 0 -8 0 8 #fcfcfc #000000 #000000 0 256;
#X obj 286 106 mem/problem3;
#X obj 378 195 nbx 5 14 -1e+37 1e+37 0 0 empty empty empty 0 -8 0 8 #fcfcfc #000000 #000000 0 256;
#X obj 378 107 mem/problem4;
#X obj 435 171 nbx 5 14 -1e+37 1e+37 0 0 empty empty empty 0 -8 0 8 #fcfcfc #000000 #000000 0 256;
#X obj 470 122 mem/problem5;
#X obj 562 191 nbx 5 14 -1e+37 1e+37 0 0 empty empty empty 0 -8 0 8 #fcfcfc #000000 #000000 0 256;
#X obj 562 170 py.memuse;
#X obj 562 210 s mem;
#X obj 470 143 nbx 5 14 -1e+37 1e+37 0 0 empty empty empty 0 -8 0 8 #fcfcfc #000000 #000000 0 256;
#X obj 102 146 bng 15 250 50 0 empty empty empty 0 -8 0 8 #fcfcfc #000000 #000000;
#X obj 10 417 delay 40 1 msec;
#X obj 10 265 t l l, f 21;
#X obj 34 369 list, f 19;
#X obj 10 79 t b b b b b b b b, f 111;
#X obj 99 6 py4pd -lib multichannel;
#X obj 483 101 mem/problem6;
#X connect 1 0 31 0;
#X connect 2 0 1 0;
#X connect 3 0 4 0;
#X connect 4 0 29 0;
#X connect 5 0 4 1;
#X connect 6 0 3 0;
#X connect 7 0 12 0;
#X connect 8 0 30 0;
#X connect 8 1 10 0;
#X connect 12 0 28 0;
#X connect 12 1 8 0;
#X connect 13 0 14 0;
#X connect 14 0 27 0;
#X connect 16 0 15 0;
#X connect 18 0 17 0;
#X connect 20 0 19 0;
#X connect 20 1 21 0;
#X connect 22 0 26 0;
#X connect 23 0 25 0;
#X connect 24 0 23 0;
#X connect 27 0 6 0;
#X connect 28 0 11 0;
#X connect 29 0 7 0;
#X connect 29 1 30 1;
#X connect 30 0 9 0;
#X connect 31 1 13 0;
#X connect 31 2 16 0;
#X connect 31 3 18 0;
#X connect 31 4 20 0;
#X connect 31 5 22 0;
#X connect 31 6 33 0;
#X connect 31 7 24 0;
