#N canvas 686 36 1212 847 8;
#X obj 5 5 py4pd -lib py4pd;
#X obj 135 10 r start-test;
#X obj 218 12 bng 15 250 50 0 empty empty empty 0 -8 0 8 #fcfcfc #000000 #000000;
#X obj 207 245 py.show;
#X msg 304 211 img/pikachu.png;
#X obj 207 97 int 1;
#X obj 207 118 + 1;
#X obj 207 160 nbx 5 14 -1e+37 1e+37 0 0 empty empty empty 0 -8 0 8 #fcfcfc #000000 #000000 0 256;
#X obj 207 43 bng 15 250 50 0 empty empty empty 0 -8 0 8 #fcfcfc #000000 #000000;
#X obj 121 145 py.memuse;
#X obj 121 166 nbx 5 14 -1e+37 1e+37 0 0 empty empty empty 0 -8 0 8 #fcfcfc #000000 #000000 0 256;
#X obj 207 76 metro 100;
#X obj 135 34 t b b b;
#X obj 5 184 list, f 24;
#X obj 5 114 py.memuse;
#X obj 5 73 del 5 1 sec;
#X obj 5 135 nbx 5 14 -1e+37 1e+37 0 0 empty empty empty 0 -8 0 8 #fcfcfc #000000 #000000 0 256;
#X obj 5 219 expr if(($f1 - $f2) < 3 \, 1 \, 0);
#X obj 29 258 sel 0 1;
#X obj 29 298 print ERROR;
#X msg 5 343 \; pd quit;
#X obj 5 238 t b f;
#X obj 137 93 del 1 1 sec;
#X obj 87 108 bng 15 250 50 0 empty empty empty 0 -8 0 8 #fcfcfc #000000 #000000;
#X obj 45 279 print PY4PDPASS;
#X msg 391 211 img/chamander.gif;
#X msg 207 210 img/bulbasaur.ppm;
#X obj 207 179 sel 0 1 2 3, f 62;
#X obj 207 139 % 4;
#X msg 489 209 img/noexits.gif;
#X connect 1 0 12 0;
#X connect 2 0 12 0;
#X connect 4 0 3 0;
#X connect 5 0 6 0;
#X connect 6 0 5 1;
#X connect 6 0 28 0;
#X connect 7 0 27 0;
#X connect 8 0 11 0;
#X connect 9 0 10 0;
#X connect 10 0 13 1;
#X connect 11 0 5 0;
#X connect 12 0 15 0;
#X connect 12 1 22 0;
#X connect 12 2 11 0;
#X connect 13 0 17 0;
#X connect 14 0 16 0;
#X connect 15 0 14 0;
#X connect 16 0 13 0;
#X connect 17 0 21 0;
#X connect 18 0 19 0;
#X connect 18 1 24 0;
#X connect 21 0 20 0;
#X connect 21 1 18 0;
#X connect 22 0 9 0;
#X connect 23 0 9 0;
#X connect 25 0 3 0;
#X connect 26 0 3 0;
#X connect 27 0 26 0;
#X connect 27 1 4 0;
#X connect 27 2 25 0;
#X connect 27 3 29 0;
#X connect 28 0 7 0;
#X connect 29 0 3 0;
