#N canvas 501 55 1440 715 8;
#X text 123 10 solved!;
#X obj 220 188 bng 15 250 50 0 empty empty empty 0 -8 0 8 #fcfcfc #000000 #000000;
#X obj 220 225 nbx 9 14 -1e+37 1e+37 0 0 empty empty empty 0 -8 0 8 #fcfcfc #000000 #000000 0 256;
#X obj 380 188 bng 15 250 50 0 empty empty empty 0 -8 0 8 #fcfcfc #000000 #000000;
#X obj 380 236 nbx 9 14 -1e+37 1e+37 0 0 empty empty empty 0 -8 0 8 #fcfcfc #000000 #000000 0 256;
#X obj 60 131 bng 25 250 50 0 empty empty empty 0 -8 0 8 #fcfcfc #000000 #000000;
#X msg 60 189 pd;
#X obj 60 233 nbx 5 14 -1e+37 1e+37 0 0 empty empty empty 0 -8 0 8 #fcfcfc #000000 #000000 0 256;
#X obj 60 276 list;
#X msg 860 188 pd;
#X obj 860 232 nbx 5 14 -1e+37 1e+37 0 0 empty empty empty 0 -8 0 8 #fcfcfc #000000 #000000 0 256;
#X msg 887 188 reload;
#X obj 60 162 t b b b b b b, f 161;
#X obj 860 251 s mem;
#X obj 79 254 r mem;
#X obj 540 243 nbx 9 14 -1e+37 1e+37 0 0 empty empty empty 0 -8 0 8 #fcfcfc #000000 #000000 0 256;
#X obj 540 185 bng 15 250 50 0 empty empty empty 0 -8 0 8 #fcfcfc #000000 #000000;
#X obj 8 6 py4pd -lib py4pd;
#X obj 860 211 py.memuse;
#X obj 60 212 py.memuse;
#N canvas 702 112 1166 859 PROBLEM1 0;
#X obj 8 5 bng 15 250 50 0 empty empty empty 0 -8 0 8 #fcfcfc #000000 #000000;
#X obj 8 381 else/display;
#X obj 32 292 b;
#X obj 32 313 else/count;
#X obj 32 334 nbx 5 14 -1e+37 1e+37 0 0 empty empty empty 0 -8 0 8 #fcfcfc #000000 #000000 0 256;
#X obj 8 61 t b b, f 20;
#X obj 132 134 nbx 5 14 -1e+37 1e+37 0 0 empty empty empty 0 -8 0 8 #fcfcfc #000000 #000000 0 256;
#X obj 132 113 random 10;
#X obj 132 74 bng 15 250 50 0 empty empty empty 0 -8 0 8 #fcfcfc #000000 #000000;
#X obj 163 6 bng 15 250 50 0 empty empty empty 0 -8 0 8 #fcfcfc #000000 #000000;
#X obj 379 48 tgl 15 0 empty empty empty 0 -8 0 8 #fcfcfc #000000 #000000 0 1;
#X msg 8 82 1 2 3 4 5 6 3 9 0 0;
#X obj 212 143 nbx 5 14 -1e+37 1e+37 0 0 empty empty empty 0 -8 0 8 #fcfcfc #000000 #000000 0 256;
#X obj 212 122 random 10;
#X obj 212 103 bng 15 250 50 0 empty empty empty 0 -8 0 8 #fcfcfc #000000 #000000;
#X obj 281 172 nbx 5 14 -1e+37 1e+37 0 0 empty empty empty 0 -8 0 8 #fcfcfc #000000 #000000 0 256;
#X obj 281 151 random 10;
#X obj 281 112 bng 15 250 50 0 empty empty empty 0 -8 0 8 #fcfcfc #000000 #000000;
#X obj 359 183 nbx 5 14 -1e+37 1e+37 0 0 empty empty empty 0 -8 0 8 #fcfcfc #000000 #000000 0 256;
#X obj 359 162 random 10;
#X obj 359 123 bng 15 250 50 0 empty empty empty 0 -8 0 8 #fcfcfc #000000 #000000;
#X obj 143 34 t b b b b b;
#X obj 376 70 metro 100;
#X obj 287 4 bng 15 250 50 0 empty empty empty 0 -8 0 8 #fcfcfc #000000 #000000;
#X obj 287 39 else/loop 30000;
#X obj 39 18 inlet;
#X obj 32 353 outlet;
#X obj 8 40 else/loop 30001;
#X obj 8 163 py.sum None 9;
#X obj 8 205 py.sum None 9;
#X obj 8 185 py.sum None 9;
#X obj 8 227 py.sum None 9;
#X obj 212 162 pd2py;
#X obj 281 192 pd2py;
#X obj 359 222 pd2py;
#X obj 8 248 py2pd;
#X connect 0 0 27 0;
#X connect 2 0 3 0;
#X connect 3 0 4 0;
#X connect 4 0 26 0;
#X connect 5 0 11 0;
#X connect 5 1 7 0;
#X connect 6 0 28 1;
#X connect 7 0 6 0;
#X connect 8 0 7 0;
#X connect 9 0 21 0;
#X connect 10 0 22 0;
#X connect 11 0 28 0;
#X connect 12 0 32 0;
#X connect 13 0 12 0;
#X connect 14 0 13 0;
#X connect 15 0 33 0;
#X connect 16 0 15 0;
#X connect 17 0 16 0;
#X connect 18 0 34 0;
#X connect 19 0 18 0;
#X connect 20 0 19 0;
#X connect 21 0 11 0;
#X connect 21 1 8 0;
#X connect 21 2 14 0;
#X connect 21 3 17 0;
#X connect 21 4 20 0;
#X connect 22 0 21 0;
#X connect 23 0 24 0;
#X connect 24 0 21 0;
#X connect 25 0 27 0;
#X connect 27 0 5 0;
#X connect 28 0 30 0;
#X connect 29 0 31 0;
#X connect 30 0 29 0;
#X connect 31 0 35 0;
#X connect 32 0 30 1;
#X connect 33 0 29 1;
#X connect 34 0 31 1;
#X connect 35 0 1 0;
#X connect 35 0 2 0;
#X restore 220 206 pd PROBLEM1;
#N canvas 496 67 952 619 PROBLEM2 0;
#X obj 9 48 bng 15 250 50 0 empty empty empty 0 -8 0 8 #fcfcfc #000000 #000000;
#N canvas 181 219 1494 700 list1 0;
#X obj 10 93 t b b b b, f 91;
#X obj 10 321 outlet;
#X obj 147 318 outlet;
#X obj 356 316 outlet;
#X obj 457 320 outlet;
#X obj 11 21 inlet;
#X msg 10 164 [826 463 1278 1237 1077];
#X msg 161 223 [1 274 26579 2073];
#X msg 311 171 [1 2 3 4 5 6 7];
#X msg 462 257 [1 27 467 128 12973 12345];
#X obj 462 277 py.mklist;
#X obj 10 245 py.mklist;
#X obj 161 257 py.mklist;
#X obj 311 251 py.mklist;
#X connect 0 0 6 0;
#X connect 0 1 7 0;
#X connect 0 2 8 0;
#X connect 0 3 9 0;
#X connect 5 0 0 0;
#X connect 6 0 11 0;
#X connect 7 0 12 0;
#X connect 8 0 13 0;
#X connect 9 0 10 0;
#X connect 10 0 4 0;
#X connect 11 0 1 0;
#X connect 12 0 2 0;
#X connect 13 0 3 0;
#X restore 9 100 pd list1;
#X f 15;
#N canvas 181 219 1494 700 list3 0;
#X msg 161 223 [1 2 3 4 5 6 9 1 283 1274 12395712];
#X msg 10 164 [1 2 3 4 5 6 9 1 283 1274 12395712];
#X msg 462 257 [1 2 3 4 5 6 9 1 283 1274 12395712];
#X obj 10 93 t b b b b, f 91;
#X msg 311 171 [1 2 3 4 5 6 9 1 283 1274 12395712];
#X obj 10 321 outlet;
#X obj 147 318 outlet;
#X obj 356 316 outlet;
#X obj 457 320 outlet;
#X obj 11 21 inlet;
#X obj 10 245 py.mklist;
#X obj 161 257 py.mklist;
#X obj 311 251 py.mklist;
#X obj 462 277 py.mklist;
#X connect 0 0 11 0;
#X connect 1 0 10 0;
#X connect 2 0 13 0;
#X connect 3 0 1 0;
#X connect 3 1 0 0;
#X connect 3 2 4 0;
#X connect 3 3 2 0;
#X connect 4 0 12 0;
#X connect 9 0 3 0;
#X connect 10 0 5 0;
#X connect 11 0 6 0;
#X connect 12 0 7 0;
#X connect 13 0 8 0;
#X restore 250 101 pd list3;
#X f 15;
#X obj 9 68 t b b b b, f 73;
#N canvas 181 219 1314 370 list4 0;
#X msg 161 83 [1 2 3 4 5 6 9 1 283 1274 12395712];
#X msg 10 65 [1 2 3 4 5 6 9 1 283 1274 12395712];
#X msg 462 122 [1 2 3 4 5 6 9 1 283 1274 12395712];
#X obj 10 40 t b b b b, f 91;
#X msg 311 101 [1 2 3 4 5 6 9 1 283 1274 12395712];
#X obj 10 107 outlet;
#X obj 161 121 outlet;
#X obj 311 141 outlet;
#X obj 462 162 outlet;
#X obj 10 21 inlet;
#X obj 311 122 py.mklist;
#X obj 462 142 py.mklist;
#X obj 161 102 py.mklist;
#X obj 10 84 py.mklist;
#X connect 0 0 12 0;
#X connect 1 0 13 0;
#X connect 2 0 11 0;
#X connect 3 0 1 0;
#X connect 3 1 0 0;
#X connect 3 2 4 0;
#X connect 3 3 2 0;
#X connect 4 0 10 0;
#X connect 9 0 3 0;
#X connect 10 0 7 0;
#X connect 11 0 8 0;
#X connect 12 0 6 0;
#X connect 13 0 5 0;
#X restore 371 101 pd list4;
#X f 15;
#X obj 9 3 bng 15 250 50 0 empty empty empty 0 -8 0 8 #fcfcfc #000000 #000000;
#X obj 27 228 else/display;
#X obj 29 3 inlet;
#X obj 9 261 else/count;
#X obj 9 227 bng 15 250 50 0 empty empty empty 0 -8 0 8 #fcfcfc #000000 #000000;
#X obj 9 280 outlet;
#X obj 9 29 else/loop 5001;
#N canvas 181 219 1494 700 list2 0;
#X obj 10 93 t b b b b, f 91;
#X obj 10 321 outlet;
#X obj 147 318 outlet;
#X obj 356 316 outlet;
#X obj 457 320 outlet;
#X obj 11 21 inlet;
#X msg 10 164 [826 463 1278 1237 1077];
#X msg 161 223 [1 274 26579 2073];
#X msg 311 171 [1 2 3 4 5 6 7];
#X msg 462 257 [1 27 467 128 12973 12345];
#X obj 161 257 py.mklist;
#X obj 10 245 py.mklist;
#X obj 311 251 py.mklist;
#X obj 462 277 py.mklist;
#X connect 0 0 6 0;
#X connect 0 1 7 0;
#X connect 0 2 8 0;
#X connect 0 3 9 0;
#X connect 5 0 0 0;
#X connect 6 0 11 0;
#X connect 7 0 10 0;
#X connect 8 0 12 0;
#X connect 9 0 13 0;
#X connect 10 0 2 0;
#X connect 11 0 1 0;
#X connect 12 0 3 0;
#X connect 13 0 4 0;
#X restore 129 101 pd list2;
#X f 15;
#X obj 9 168 py.list -a 4, f 28;
#X obj 9 189 py.nth None 0;
#X obj 9 208 py2pd;
#X connect 0 0 3 0;
#X connect 1 0 13 0;
#X connect 1 1 13 1;
#X connect 1 2 13 2;
#X connect 1 3 13 3;
#X connect 2 0 13 0;
#X connect 2 1 13 1;
#X connect 2 2 13 2;
#X connect 2 3 13 3;
#X connect 3 0 1 0;
#X connect 3 1 12 0;
#X connect 3 2 2 0;
#X connect 3 3 4 0;
#X connect 4 0 13 0;
#X connect 4 1 13 1;
#X connect 4 2 13 2;
#X connect 4 3 13 3;
#X connect 5 0 11 0;
#X connect 7 0 11 0;
#X connect 8 0 10 0;
#X connect 9 0 8 0;
#X connect 11 0 0 0;
#X connect 12 0 13 0;
#X connect 12 1 13 1;
#X connect 12 2 13 2;
#X connect 12 3 13 3;
#X connect 13 0 14 0;
#X connect 14 0 15 0;
#X connect 15 0 6 0;
#X connect 15 0 9 0;
#X restore 380 207 pd PROBLEM2;
#N canvas 1181 149 427 473 PROBLEM3 0;
#X obj 6 11 bng 15 250 50 0 empty empty empty 0 -8 0 8 #fcfcfc #000000 #000000;
#X obj 6 70 bng 15 250 50 0 empty empty empty 0 -8 0 8 #fcfcfc #000000 #000000;
#X msg 6 90 [1 2 3 4 5];
#X obj 6 148 b;
#X obj 6 167 else/count;
#X obj 6 186 nbx 5 14 -1e+37 1e+37 0 0 empty empty empty 0 -8 0 8 #fcfcfc #000000 #000000 0 256;
#X obj 41 13 inlet;
#X obj 6 205 outlet;
#X obj 6 49 else/loop 50000;
#X obj 6 111 py.mklist;
#X obj 6 129 py.sum None 2;
#X connect 0 0 8 0;
#X connect 1 0 2 0;
#X connect 2 0 9 0;
#X connect 3 0 4 0;
#X connect 4 0 5 0;
#X connect 5 0 7 0;
#X connect 6 0 8 0;
#X connect 8 0 1 0;
#X connect 9 0 10 0;
#X connect 10 0 3 0;
#X restore 540 204 pd PROBLEM3;
#N canvas 1066 45 442 904 EXAMPLE2 0;
#X obj 9 176 py.iterate;
#X obj 9 236 py.collect;
#X obj 9 212 py.times None 5;
#X obj 9 91 bng 15 250 50 0 empty empty empty 0 -8 0 8 #fcfcfc #000000 #000000;
#X msg 9 128 1 2 3 4 5 6 7 8 9 10;
#X obj 120 281 py.nth None 9;
#X obj 120 344 tgl 15 0 empty empty empty 0 -8 0 8 #fcfcfc #000000 #000000 0 1;
#X obj 9 368 py.gate -outn 2;
#X text 30 91 start the loop;
#X obj 29 149 r recursivearg;
#X obj 9 413 s recursivearg;
#X obj 9 69 else/loop 100;
#X obj 9 50 bng 15 250 50 0 empty empty empty 0 -8 0 8 #fcfcfc #000000 #000000;
#X obj 9 27 else/loop 30;
#X obj 9 7 bng 15 250 50 0 empty empty empty 0 -8 0 8 #fcfcfc #000000 #000000;
#X obj 120 303 py.> None 1e+17;
#X obj 9 257 py.trigger -outn 2;
#X connect 0 0 2 0;
#X connect 0 1 1 0;
#X connect 1 0 16 0;
#X connect 2 0 1 0;
#X connect 3 0 4 0;
#X connect 4 0 0 0;
#X connect 5 0 15 0;
#X connect 6 0 7 1;
#X connect 7 0 10 0;
#X connect 9 0 0 0;
#X connect 11 0 3 0;
#X connect 12 0 11 0;
#X connect 13 0 12 0;
#X connect 14 0 13 0;
#X connect 15 0 6 0;
#X connect 16 0 7 0;
#X connect 16 1 5 0;
#X restore 161 18 pd EXAMPLE2;
#X text 228 17 not solved!;
#X obj 4 80 bng 20 250 50 0 empty empty empty 0 -10 0 12 #fcfcfc #000000 #000000;
#X obj 4 62 t b b;
#X obj 4 33 r start-test;
#X obj 4 106 delay 40000 1 msec;
#X obj 96 423 print PASS;
#X obj 60 297 expr if(($f2 - $f1) < 2 \, 1 \, 0);
#X obj 60 318 sel 1;
#X obj 60 339 t b b;
#X msg 96 397 :) ALL Test PY4PDPASS;
#X msg 60 441 \; pd quit;
#X msg 439 425 \; pd quit;
#X obj 439 341 t b b;
#X msg 471 373 :( TIMEOUT: Test Failed;
#X obj 471 398 print ERROR;
#X msg 259 435 \; pd quit;
#X obj 259 351 t b b;
#X obj 291 408 print ERROR;
#X msg 291 383 :( Memory Leak;
#X obj 76 32 bng 15 250 50 0 empty empty empty 0 -8 0 8 #fcfcfc #000000 #000000;
#X connect 1 0 20 0;
#X connect 3 0 21 0;
#X connect 5 0 12 0;
#X connect 6 0 19 0;
#X connect 7 0 8 0;
#X connect 8 0 30 0;
#X connect 9 0 18 0;
#X connect 10 0 13 0;
#X connect 12 0 6 0;
#X connect 12 1 1 0;
#X connect 12 2 3 0;
#X connect 12 3 16 0;
#X connect 12 5 9 0;
#X connect 14 0 8 1;
#X connect 16 0 22 0;
#X connect 18 0 10 0;
#X connect 19 0 7 0;
#X connect 20 0 2 0;
#X connect 21 0 4 0;
#X connect 22 0 15 0;
#X connect 25 0 28 0;
#X connect 26 0 25 0;
#X connect 26 1 5 0;
#X connect 27 0 26 0;
#X connect 28 0 36 0;
#X connect 30 0 31 0;
#X connect 31 0 32 0;
#X connect 31 1 40 0;
#X connect 32 0 34 0;
#X connect 32 1 33 0;
#X connect 33 0 29 0;
#X connect 36 0 35 0;
#X connect 36 1 37 0;
#X connect 37 0 38 0;
#X connect 40 0 39 0;
#X connect 40 1 42 0;
#X connect 42 0 41 0;
#X connect 43 0 26 0;
