#N canvas 686 36 1001 847 8;
#X obj 5 5 py4pd -lib py4pd;
#X obj 135 10 r start-test;
#X obj 218 12 bng 15 250 50 0 empty empty empty 0 -8 0 8 #fcfcfc #000000 #000000;
#X obj 27 258 sel 0 1;
#X obj 27 298 print ERROR;
#X obj 43 279 print PASS;
#X msg 5 343 \; pd quit;
#X obj 5 238 t b f;
#X obj 135 34 t b;
#X msg 87 62 reload;
#X msg 135 63 run [1 2 3 4 5 6] 20;
#X obj 135 116 py.nth None 5;
#X obj 135 137 py2pd;
#X obj 135 158 expr if($f1 == 120 \, 1 \, 0);
#X obj 135 95 py4pd py sumlist;
#X connect 1 0 8 0;
#X connect 2 0 8 0;
#X connect 3 0 4 0;
#X connect 3 1 5 0;
#X connect 7 0 6 0;
#X connect 7 1 3 0;
#X connect 8 0 10 0;
#X connect 9 0 14 0;
#X connect 10 0 14 0;
#X connect 11 0 12 0;
#X connect 12 0 13 0;
#X connect 13 0 7 0;
#X connect 14 0 11 0;
