#N canvas 686 36 1179 936 8;
#X obj 5 5 py4pd -lib py4pd;
#X obj 135 10 r start-test;
#X obj 218 12 bng 15 250 50 0 empty empty empty 0 -8 0 8 #fcfcfc #000000 #000000;
#X obj 27 258 sel 0 1;
#X obj 27 298 print ERROR;
#X obj 43 279 print PASS;
#X msg 5 343 \; pd quit;
#X obj 5 238 t b f;
#X obj 135 34 t b;
#X obj 402 106 s pd-10-DeleteObj.pd;
#X msg 402 81 obj 430 5 pd new_patch \, editmode 1;
#X obj 268 182 s pd-new_patch;
#N canvas 221 259 956 687 create 0;
#X obj 11 6 inlet;
#X msg 124 69 msg 10 10 bang;
#X msg 119 117 obj 10 40 metro 500;
#X msg 119 93 floatatom 100 10 7 50 5000;
#X msg 119 189 obj 10 70 random 127;
#X msg 119 237 floatatom 10 100 5;
#X msg 119 141 connect 0 0 2 0;
#X msg 119 165 connect 1 0 2 1;
#X msg 119 213 connect 2 0 3 0;
#X msg 119 261 connect 3 0 4 0;
#X msg 119 285 obj 10 130 py4pd;
#X obj 10 319 outlet;
#X obj 11 27 t b b b b b b b b b b b, f 25;
#X obj 274 48 del 100 1 msec;
#X obj 274 69 t b b;
#X msg 337 116 clear;
#X msg 274 115 vis 0;
#X connect 0 0 12 0;
#X connect 1 0 11 0;
#X connect 2 0 11 0;
#X connect 3 0 11 0;
#X connect 4 0 11 0;
#X connect 5 0 11 0;
#X connect 6 0 11 0;
#X connect 7 0 11 0;
#X connect 8 0 11 0;
#X connect 9 0 11 0;
#X connect 10 0 11 0;
#X connect 12 0 10 0;
#X connect 12 1 9 0;
#X connect 12 2 5 0;
#X connect 12 3 8 0;
#X connect 12 4 4 0;
#X connect 12 5 7 0;
#X connect 12 6 6 0;
#X connect 12 7 2 0;
#X connect 12 8 3 0;
#X connect 12 9 1 0;
#X connect 12 10 13 0;
#X connect 13 0 14 0;
#X connect 14 0 16 0;
#X connect 14 1 15 0;
#X connect 15 0 11 0;
#X connect 16 0 11 0;
#X restore 268 131 pd create obj;
#X obj 135 113 del 1 1 sec;
#X obj 268 91 del 300 1 msec;
#X obj 135 55 t b b b, f 54;
#N canvas 130 168 450 300 new_patch 0;
#X restore 430 5 pd new_patch;
#X msg 135 160 1;
#X connect 1 0 8 0;
#X connect 2 0 8 0;
#X connect 3 0 4 0;
#X connect 3 1 5 0;
#X connect 7 0 6 0;
#X connect 7 1 3 0;
#X connect 8 0 15 0;
#X connect 10 0 9 0;
#X connect 12 0 11 0;
#X connect 13 0 17 0;
#X connect 14 0 12 0;
#X connect 15 0 13 0;
#X connect 15 1 14 0;
#X connect 15 2 10 0;
#X connect 17 0 7 0;
