#N canvas 597 25 1179 954 8;
#X obj 5 5 py4pd -lib py4pd;
#X obj 135 10 r start-test;
#X obj 27 315 sel 0 1;
#X obj 27 355 print ERROR;
#X obj 43 336 print PASS;
#X msg 5 453 \; pd quit;
#X obj 5 295 t b f;
#X obj 135 111 py.iterate;
#N canvas 69 374 626 577 loop 0;
#X obj 8 5 inlet;
#X obj 8 27 py.iterate, f 22;
#X obj 115 224 py.collect;
#X obj 115 255 outlet;
#X obj 8 92 py* None 20;
#X connect 0 0 1 0;
#X connect 1 0 4 0;
#X connect 1 1 2 0;
#X connect 2 0 3 0;
#X connect 4 0 2 0;
#X restore 135 132 pd loop;
#X obj 182 149 py.collect;
#X obj 135 82 py.list -a 2;
#X obj 135 35 t b b;
#X msg 192 61 6 7 8 9 10;
#X msg 135 61 1 2 3 4 5;
#X obj 182 170 t a a, f 37;
#X obj 364 191 py.nth None 1;
#X obj 182 191 py.nth None 0;
#X obj 182 212 py.nth None 2;
#X obj 364 213 py.nth None 2;
#X obj 182 233 py2pd;
#X obj 364 234 py2pd;
#X obj 364 255 expr if($f1 == 160 \, 1 \, 0);
#X obj 364 276 tgl 15 0 empty empty empty 0 -8 0 8 #fcfcfc #000000 #000000 0 1;
#X obj 182 275 tgl 15 0 empty empty empty 0 -8 0 8 #fcfcfc #000000 #000000 0 1;
#X obj 182 254 expr if($f1 == 60 \, 1 \, 0);
#X obj 182 296 &&;
#X obj 182 317 sel 1;
#X obj 182 338 int 1;
#X obj 182 359 + 1;
#X obj 182 380 expr if($f1 > 20000 \, 1 \, 0);
#X obj 182 401 sel 1 0, f 29;
#X obj 253 465 s again;
#X obj 206 10 r again;
#X obj 107 13 bng 15 250 50 0 empty empty empty 0 -8 0 8 #fcfcfc #000000 #000000;
#X obj 253 431 del 0 1 msec;
#X obj 75 147 py.memuse;
#X msg 75 119 pd;
#X obj 75 168 nbx 5 14 -1e+37 1e+37 0 0 empty empty empty 0 -8 0 8 #fcfcfc #000000 #000000 0 256;
#X obj 10 249 expr if(($f1 - $f2) < 3 \, 1 \, 0);
#X msg 182 422 pd;
#X obj 10 191 py.memuse;
#X obj 10 212 nbx 5 14 -1e+37 1e+37 0 0 empty empty empty 0 -8 0 8 #fcfcfc #000000 #000000 0 256;
#X connect 1 0 11 0;
#X connect 1 0 36 0;
#X connect 2 0 3 0;
#X connect 2 1 4 0;
#X connect 6 0 5 0;
#X connect 6 1 2 0;
#X connect 7 0 8 0;
#X connect 7 1 9 0;
#X connect 8 0 9 0;
#X connect 9 0 14 0;
#X connect 10 0 7 0;
#X connect 11 0 13 0;
#X connect 11 1 12 0;
#X connect 12 0 10 1;
#X connect 13 0 10 0;
#X connect 14 0 16 0;
#X connect 14 1 15 0;
#X connect 15 0 18 0;
#X connect 16 0 17 0;
#X connect 17 0 19 0;
#X connect 18 0 20 0;
#X connect 19 0 24 0;
#X connect 20 0 21 0;
#X connect 21 0 22 0;
#X connect 22 0 25 1;
#X connect 23 0 25 0;
#X connect 24 0 23 0;
#X connect 25 0 26 0;
#X connect 26 0 27 0;
#X connect 27 0 28 0;
#X connect 28 0 27 1;
#X connect 28 0 29 0;
#X connect 29 0 30 0;
#X connect 30 0 39 0;
#X connect 30 1 34 0;
#X connect 32 0 11 0;
#X connect 33 0 11 0;
#X connect 33 0 36 0;
#X connect 34 0 31 0;
#X connect 35 0 37 0;
#X connect 36 0 35 0;
#X connect 37 0 38 1;
#X connect 38 0 6 0;
#X connect 39 0 40 0;
#X connect 40 0 41 0;
#X connect 41 0 38 0;
