#N canvas 879 50 1081 825 8;
#X obj 12 7 py4pd -lib py;
#X obj 135 7 r start-test;
#X msg 211 54 \; pd dsp 1;
#X obj 135 35 t b b b, f 31;
#X obj 204 7 bng 15 250 50 0 empty empty empty 0 -8 0 8 #fcfcfc #000000 #000000;
#X obj 12 25 py4pd -lib py4pd;
#X obj 12 175 dac~;
#X obj 407 161 py.memuse;
#X obj 407 182 nbx 5 14 -1e+37 1e+37 0 0 empty empty empty 0 -8 0 8 #fcfcfc #000000 #000000 0 256;
#X obj 287 137 metro 1000;
#X obj 287 181 py.memuse;
#X obj 287 202 nbx 5 14 -1e+37 1e+37 0 0 empty empty empty 0 -8 0 8 #fcfcfc #000000 #000000 0 256;
#X obj 287 234 expr if(($f1 - $f2) < 3 \, 1 \, 0);
#X obj 287 255 tgl 15 0 empty empty empty 0 -8 0 8 #fcfcfc #000000 #000000 0 1;
#X obj 287 60 t b b b, f 32;
#X obj 250 273 f, f 8;
#X obj 444 110 s pass;
#X obj 250 234 r pass;
#X obj 307 22 bng 15 250 50 0 empty empty empty 0 -8 0 8 #fcfcfc #000000 #000000;
#X obj 272 315 sel 1 0;
#X obj 272 351 print PASS;
#X obj 288 333 print ERROR;
#X obj 250 294 t b f;
#X msg 250 373 \; pd quit;
#X obj 12 70 pynoise~ -ch 5;
#X obj 12 124 snake~ out 5, f 23;
#X obj 12 91 /~ 20;
#X obj 444 89 del 15 1 sec;
#X connect 1 0 3 0;
#X connect 3 1 2 0;
#X connect 3 2 14 0;
#X connect 4 0 3 0;
#X connect 7 0 8 0;
#X connect 8 0 12 1;
#X connect 9 0 10 0;
#X connect 10 0 11 0;
#X connect 11 0 12 0;
#X connect 12 0 13 0;
#X connect 13 0 15 1;
#X connect 14 0 9 0;
#X connect 14 1 7 0;
#X connect 14 2 27 0;
#X connect 15 0 22 0;
#X connect 17 0 15 0;
#X connect 18 0 14 0;
#X connect 19 0 20 0;
#X connect 19 1 21 0;
#X connect 22 0 23 0;
#X connect 22 1 19 0;
#X connect 24 0 26 0;
#X connect 25 0 6 0;
#X connect 25 1 6 1;
#X connect 25 2 6 0;
#X connect 25 3 6 1;
#X connect 25 4 6 0;
#X connect 26 0 25 0;
#X connect 27 0 16 0;
