#N canvas 839 50 1081 825 8;
#X obj 12 7 py4pd -lib py;
#X obj 135 7 r start-test;
#X msg 211 54 \; pd dsp 1;
#X obj 135 35 t b b b, f 31;
#X obj 204 7 bng 15 250 50 0 empty empty empty 0 -8 0 8 #fcfcfc #000000 #000000;
#X obj 12 25 py4pd -lib py4pd;
#X obj 12 335 dac~;
#X obj 407 161 py.memuse;
#X obj 407 182 nbx 5 14 -1e+37 1e+37 0 0 empty empty empty 0 -8 0 8 #fcfcfc #000000 #000000 0 256;
#X obj 287 137 metro 1000;
#X obj 287 181 py.memuse;
#X obj 287 202 nbx 5 14 -1e+37 1e+37 0 0 empty empty empty 0 -8 0 8 #fcfcfc #000000 #000000 0 256;
#X obj 287 234 expr if(($f1 - $f2) < 3 \, 1 \, 0);
#X obj 287 255 tgl 15 0 empty empty empty 0 -8 0 8 #fcfcfc #000000 #000000 0 1;
#X obj 287 60 t b b b, f 32;
#X obj 250 273 f, f 8;
#X obj 444 110 s pass;
#X obj 250 234 r pass;
#X obj 307 22 bng 15 250 50 0 empty empty empty 0 -8 0 8 #fcfcfc #000000 #000000;
#X obj 331 318 sel 1 0;
#X obj 347 336 print ERROR;
#X msg 250 373 \; pd quit;
#X obj 12 56 pynoise~ -ch 5;
#X obj 12 124 snake~ out 5, f 23;
#X obj 12 91 /~ 20;
#X obj 331 354 print PY4PDPASS;
#X obj 407 112 bng 15 250 50 0 empty empty empty 0 -8 0 8 #fcfcfc #000000 #000000;
#X obj 250 294 t b f b, f 33;
#X obj 412 354 s stop;
#X obj 50 325 writesf~;
#X obj 138 95 r record;
#X obj 172 160 getTestId;
#X obj 190 132 bng 15 250 50 0 empty empty empty 0 -8 0 8 #fcfcfc #000000 #000000;
#X obj 172 181 symbol;
#X msg 218 128 reload;
#X obj 138 116 t b b;
#X msg 138 160 start;
#X msg 157 281 stop;
#X obj 157 260 r stop;
#X obj 135 56 s record;
#X msg 172 207 open TEST12-\$1.wav;
#X obj 444 89 del 5 1 sec;
#X connect 1 0 3 0;
#X connect 3 0 39 0;
#X connect 3 1 2 0;
#X connect 3 2 14 0;
#X connect 4 0 3 0;
#X connect 7 0 8 0;
#X connect 8 0 12 1;
#X connect 9 0 10 0;
#X connect 10 0 11 0;
#X connect 11 0 12 0;
#X connect 12 0 13 0;
#X connect 13 0 15 1;
#X connect 14 0 9 0;
#X connect 14 1 7 0;
#X connect 14 2 41 0;
#X connect 15 0 27 0;
#X connect 17 0 15 0;
#X connect 18 0 14 0;
#X connect 19 0 25 0;
#X connect 19 1 20 0;
#X connect 22 0 24 0;
#X connect 23 0 6 0;
#X connect 23 0 29 0;
#X connect 23 1 6 1;
#X connect 23 2 6 0;
#X connect 23 3 6 1;
#X connect 23 4 6 0;
#X connect 24 0 23 0;
#X connect 26 0 7 0;
#X connect 27 0 21 0;
#X connect 27 1 19 0;
#X connect 27 2 28 0;
#X connect 30 0 35 0;
#X connect 31 0 33 0;
#X connect 32 0 31 0;
#X connect 33 0 40 0;
#X connect 34 0 31 0;
#X connect 35 0 36 0;
#X connect 35 1 31 0;
#X connect 36 0 29 0;
#X connect 37 0 29 0;
#X connect 38 0 37 0;
#X connect 40 0 29 0;
#X connect 41 0 16 0;
