#N canvas 703 33 1032 856 8;
#X obj 427 4 py4pd -lib py4pd;
#X obj 3 5 r start-test;
#X obj 72 5 bng 15 250 50 0 empty empty empty 0 -8 0 8 #fcfcfc #000000 #000000;
#X obj 51 340 sel 1 0;
#X obj 67 359 print ERROR;
#X msg 9 395 \; pd quit;
#X obj 51 377 print PY4PDPASS;
#X obj 9 321 t b f, f 9;
#N canvas 640 150 849 707 pd.get_args 0;
#X msg 7 54 32;
#X obj 7 16 inlet;
#X obj 7 111 py.nth None 0;
#X obj 7 132 py2pd;
#X obj 7 155 sel 243;
#X obj 7 90 py.listcomp [243 \, [random.randint(10 \, 400) for _ in range(in1)]] -a 1, f 72;
#X msg 7 176 1;
#X obj 7 197 outlet;
#X connect 0 0 5 0;
#X connect 1 0 0 0;
#X connect 2 0 3 0;
#X connect 3 0 4 0;
#X connect 4 0 6 0;
#X connect 5 0 2 0;
#X connect 6 0 7 0;
#X restore 3 53 pd pd.get_args;
#N canvas 30 68 786 571 logpost 0;
#X obj 7 170 nbx 5 14 -1e+37 1e+37 0 0 empty empty empty 0 -8 0 8 #fcfcfc #000000 #000000 0 256;
#X obj 7 131 int 1;
#X obj 7 152 + 1;
#X obj 7 111 b;
#X obj 7 90 py.listcomp [random.randint(10 \, 400) for _ in range(in1)] -a 1, f 64;
#X msg 7 54 32;
#X obj 7 16 inlet;
#X connect 1 0 2 0;
#X connect 2 0 1 1;
#X connect 2 0 0 0;
#X connect 3 0 1 0;
#X connect 4 0 3 0;
#X connect 5 0 4 0;
#X connect 6 0 5 0;
#X restore 238 131 pd logpost;
#N canvas 30 68 786 571 error 0;
#X obj 7 170 nbx 5 14 -1e+37 1e+37 0 0 empty empty empty 0 -8 0 8 #fcfcfc #000000 #000000 0 256;
#X obj 7 131 int 1;
#X obj 7 152 + 1;
#X obj 7 111 b;
#X obj 7 90 py.listcomp [random.randint(10 \, 400) for _ in range(in1)] -a 1, f 64;
#X msg 7 54 32;
#X obj 7 16 inlet;
#X connect 1 0 2 0;
#X connect 2 0 1 1;
#X connect 2 0 0 0;
#X connect 3 0 1 0;
#X connect 4 0 3 0;
#X connect 5 0 4 0;
#X connect 6 0 5 0;
#X restore 310 131 pd error;
#N canvas 30 68 786 571 tabwrite 0;
#X obj 7 170 nbx 5 14 -1e+37 1e+37 0 0 empty empty empty 0 -8 0 8 #fcfcfc #000000 #000000 0 256;
#X obj 7 131 int 1;
#X obj 7 152 + 1;
#X obj 7 111 b;
#X obj 7 90 py.listcomp [random.randint(10 \, 400) for _ in range(in1)] -a 1, f 64;
#X msg 7 54 32;
#X obj 7 16 inlet;
#X connect 1 0 2 0;
#X connect 2 0 1 1;
#X connect 2 0 0 0;
#X connect 3 0 1 0;
#X connect 4 0 3 0;
#X connect 5 0 4 0;
#X connect 6 0 5 0;
#X restore 372 131 pd tabwrite;
#N canvas 30 68 786 571 read 0;
#X obj 7 170 nbx 5 14 -1e+37 1e+37 0 0 empty empty empty 0 -8 0 8 #fcfcfc #000000 #000000 0 256;
#X obj 7 131 int 1;
#X obj 7 152 + 1;
#X obj 7 111 b;
#X obj 7 90 py.listcomp [random.randint(10 \, 400) for _ in range(in1)] -a 1, f 64;
#X msg 7 54 32;
#X obj 7 16 inlet;
#X connect 1 0 2 0;
#X connect 2 0 1 1;
#X connect 2 0 0 0;
#X connect 3 0 1 0;
#X connect 4 0 3 0;
#X connect 5 0 4 0;
#X connect 6 0 5 0;
#X restore 449 131 pd read;
#N canvas 30 68 450 300 get_patch_dir 0;
#X obj 7 3 inlet;
#X restore 3 162 pd get_patch_dir;
#N canvas 30 68 450 300 get_py4pd_dir 0;
#X obj 6 4 inlet;
#X restore 119 159 pd get_py4pd_dir;
#N canvas 30 68 450 300 get_temp_dir 0;
#X restore 223 195 pd get_temp_dir;
#N canvas 30 68 450 300 get_key 0;
#X restore 315 241 pd get_key;
#N canvas 30 68 450 300 get_sample_rate 0;
#X restore 215 310 pd get_sample_rate;
#N canvas 30 68 450 300 get_vec_size 0;
#X restore 42 221 pd get_vec_size;
#N canvas 30 68 450 300 get_num_channels 0;
#X restore 343 170 pd get_num_channels;
#N canvas 30 68 450 300 get_outlet_count 0;
#X restore 347 278 pd get_outlet_count;
#N canvas 30 68 450 300 variables 0;
#X restore 361 359 pd variables;
#N canvas 30 68 450 300 player 0;
#X restore 219 364 pd player;
#X obj 353 4 py4pd -lib py;
#N canvas 449 222 786 783 out 0;
#X obj 7 16 inlet;
#X obj 7 37 t b b, f 9;
#X msg 7 57 10;
#X obj 7 135 sel 0;
#X obj 60 135 sel 1;
#X obj 113 135 sel 2;
#X obj 166 135 sel 3;
#X obj 219 135 sel 4;
#X obj 7 156 int, f 5;
#X obj 7 177 + 1;
#X obj 7 198 nbx 5 14 -1e+37 1e+37 0 0 empty empty empty 0 -8 0 8 #fcfcfc #000000 #000000 0 256;
#X obj 60 156 int, f 5;
#X obj 60 177 + 1;
#X obj 60 198 nbx 5 14 -1e+37 1e+37 0 0 empty empty empty 0 -8 0 8 #fcfcfc #000000 #000000 0 256;
#X obj 113 155 int, f 5;
#X obj 113 176 + 1;
#X obj 113 197 nbx 5 14 -1e+37 1e+37 0 0 empty empty empty 0 -8 0 8 #fcfcfc #000000 #000000 0 256;
#X obj 166 155 int, f 5;
#X obj 166 176 + 1;
#X obj 166 197 nbx 5 14 -1e+37 1e+37 0 0 empty empty empty 0 -8 0 8 #fcfcfc #000000 #000000 0 256;
#X obj 219 157 int, f 5;
#X obj 219 178 + 1;
#X obj 219 199 nbx 5 14 -1e+37 1e+37 0 0 empty empty empty 0 -8 0 8 #fcfcfc #000000 #000000 0 256;
#X msg 49 57 5;
#X obj 7 87 pd.out, f 43;
#X obj 7 243 sel 2;
#X obj 7 264 int;
#X obj 7 285 + 1;
#X obj 7 306 nbx 5 14 -1e+37 1e+37 0 0 empty empty empty 0 -8 0 8 #fcfcfc #000000 #000000 0 256;
#X obj 7 325 sel 5;
#X msg 7 346 1;
#X obj 7 367 outlet;
#X connect 0 0 1 0;
#X connect 1 0 2 0;
#X connect 1 1 23 0;
#X connect 2 0 24 0;
#X connect 3 0 8 0;
#X connect 4 0 11 0;
#X connect 5 0 14 0;
#X connect 6 0 17 0;
#X connect 7 0 20 0;
#X connect 8 0 9 0;
#X connect 9 0 8 1;
#X connect 9 0 10 0;
#X connect 10 0 25 0;
#X connect 11 0 12 0;
#X connect 12 0 11 1;
#X connect 12 0 13 0;
#X connect 13 0 25 0;
#X connect 14 0 15 0;
#X connect 15 0 16 0;
#X connect 15 0 14 1;
#X connect 16 0 25 0;
#X connect 17 0 18 0;
#X connect 18 0 17 1;
#X connect 18 0 19 0;
#X connect 19 0 25 0;
#X connect 20 0 21 0;
#X connect 21 0 20 1;
#X connect 21 0 22 0;
#X connect 22 0 25 0;
#X connect 23 0 24 0;
#X connect 24 0 3 0;
#X connect 24 1 4 0;
#X connect 24 2 5 0;
#X connect 24 3 6 0;
#X connect 24 4 7 0;
#X connect 25 0 26 0;
#X connect 26 0 27 0;
#X connect 27 0 26 1;
#X connect 27 0 28 0;
#X connect 28 0 29 0;
#X connect 29 0 30 0;
#X connect 30 0 31 0;
#X restore 86 53 pd out;
#X obj 3 74 tgl 15 0 empty empty empty 0 -8 0 8 #fcfcfc #000000 #000000 0 1;
#X obj 3 26 t b b b b b b b, f 101;
#X obj 86 74 tgl 15 0 empty empty empty 0 -8 0 8 #fcfcfc #000000 #000000 0 1;
#X connect 1 0 26 0;
#X connect 2 0 26 0;
#X connect 3 0 6 0;
#X connect 3 1 4 0;
#X connect 7 0 5 0;
#X connect 7 1 3 0;
#X connect 8 0 25 0;
#X connect 24 0 27 0;
#X connect 25 0 7 0;
#X connect 26 0 8 0;
#X connect 26 1 24 0;
