#N canvas 677 420 648 424 12;
#X obj 80 140 print;
#X obj 80 89 py4pd;
#X msg 165 55 restart;
#X msg 80 28 set py neoscoreTest;
#X msg 17 24 run;
#X connect 1 0 0 0;
#X connect 2 0 1 0;
#X connect 3 0 1 0;
#X connect 4 0 1 0;
