#N canvas 592 35 1223 942 12;
#X obj 18 289 py4pd;
#X msg 18 172 set py sum;
#X msg 36 200 run 1 1;
#X obj 251 288 py4pd;
#X msg 376 228 panic;
#X msg 251 171 set py arithm_ser;
#X msg 269 199 run 1 20 1;
#X obj 115 288 py4pd;
#X msg 115 171 set py fibonacci;
#X msg 133 199 run 20;
#X obj 480 114 t b b b;
#X obj 328 111 t b b b;
#X obj 21 10 bng 20 250 50 0 empty empty empty 0 -10 0 12 #fcfcfc #000000 #000000;
#X obj 31 129 delay 50 1 msec;
#X obj 328 83 delay 50 1 msec;
#X obj 21 73 delay 100 1 msec;
#X obj 170 84 delay 75 1 msec;
#X obj 18 314 sel 2;
#X obj 18 375 spigot;
#X obj 133 338 loadbang;
#X msg 133 363 0;
#X obj 20 99 t b b b;
#X msg 78 275 1;
#X obj 18 438 outlet;
#X obj 21 40 t b b b b b, f 66;
#X msg 349 333 -----------------------------------------------;
#X obj 316 404 print MESSAGE;
#X msg 350 362 Test panic functions;
#X obj 18 400 t b b;
#X obj 158 439 print TEST6;
#X msg 158 413 OK;
#X connect 0 0 17 0;
#X connect 1 0 0 0;
#X connect 2 0 0 0;
#X connect 4 0 3 0;
#X connect 5 0 3 0;
#X connect 6 0 3 0;
#X connect 8 0 7 0;
#X connect 9 0 7 0;
#X connect 10 0 1 0;
#X connect 10 1 8 0;
#X connect 10 2 5 0;
#X connect 11 0 2 0;
#X connect 11 1 9 0;
#X connect 11 2 6 0;
#X connect 12 0 24 0;
#X connect 13 0 11 0;
#X connect 14 0 11 0;
#X connect 15 0 21 0;
#X connect 16 0 4 0;
#X connect 17 0 18 0;
#X connect 18 0 28 0;
#X connect 19 0 20 0;
#X connect 20 0 18 1;
#X connect 21 0 13 0;
#X connect 21 1 10 0;
#X connect 21 2 22 0;
#X connect 22 0 18 1;
#X connect 24 0 15 0;
#X connect 24 1 16 0;
#X connect 24 2 14 0;
#X connect 24 3 10 0;
#X connect 24 4 25 0;
#X connect 25 0 26 0;
#X connect 27 0 26 0;
#X connect 28 0 23 0;
#X connect 28 1 30 0;
#X connect 30 0 29 0;
