#N canvas -1 31 1920 980 12;
#X obj 699 237 py4pd;
#X obj 829 113 bng 20 250 50 0 empty empty empty 0 -10 0 12 #fcfcfc #000000 #000000;
#X msg 829 179 \; pd quit;
#X msg 699 111 set py fibonacci;
#X obj 676 54 t b b b;
#X msg 676 152 run 20;
#X obj 699 262 sel 6765;
#X obj 699 287 t b a;
#X msg 731 318 fiboacci ok;
#X obj 731 350 print test1;
#X obj 699 375 s test2;
#X obj 443 26 r test2;
#X obj 443 65 metro 10;
#X obj 443 95 int;
#X obj 443 120 + 1;
#X msg 443 171 run \$1 10;
#X obj 374 172 sel 1000;
#X msg 374 197 0;
#X msg 699 312 1;
#X obj 443 224 py4pd;
#X obj 543 144 loadbang;
#X msg 543 170 set py sum;
#X obj 443 144 % 1001;
#X obj 443 255 sel 1010;
#X obj 829 142 delay 10000 1 msec;
#X obj 90 221 py4pd;
#X obj 190 87 loadbang;
#X obj 90 23 r test3;
#X obj 190 116 t b b;
#X msg 190 167 set py neoscoreTest;
#X msg 90 168 run;
#X obj 90 56 bng 20 250 50 0 empty empty empty 0 -10 0 12 #fcfcfc #000000 #000000;
#X obj 90 246 t b a;
#X msg 90 325 \; pd quit;
#X obj 122 288 print neoscore;
#X obj 374 222 s test3;
#X obj 443 328 print test1;
#X msg 443 296 sums ok;
#X obj 676 11 loadbang;
#X connect 0 0 6 0;
#X connect 1 0 24 0;
#X connect 3 0 0 0;
#X connect 4 0 5 0;
#X connect 4 1 3 0;
#X connect 4 2 1 0;
#X connect 5 0 0 0;
#X connect 6 0 7 0;
#X connect 7 0 18 0;
#X connect 7 1 8 0;
#X connect 8 0 9 0;
#X connect 11 0 12 0;
#X connect 12 0 13 0;
#X connect 13 0 14 0;
#X connect 14 0 13 1;
#X connect 14 0 22 0;
#X connect 15 0 19 0;
#X connect 16 0 17 0;
#X connect 17 0 35 0;
#X connect 18 0 10 0;
#X connect 19 0 23 0;
#X connect 20 0 21 0;
#X connect 21 0 19 0;
#X connect 22 0 15 0;
#X connect 22 0 16 0;
#X connect 23 0 37 0;
#X connect 24 0 2 0;
#X connect 25 0 32 0;
#X connect 26 0 28 0;
#X connect 27 0 31 0;
#X connect 28 0 29 0;
#X connect 29 0 25 0;
#X connect 30 0 25 0;
#X connect 31 0 30 0;
#X connect 32 0 33 0;
#X connect 32 1 34 0;
#X connect 37 0 36 0;
#X connect 38 0 4 0;
