#N canvas 588 191 1035 750 12;
#X obj 59 232 py4pd;
#X obj 210 67 bng 20 250 50 0 empty empty empty 0 -10 0 12 #fcfcfc #000000 #000000;
#X obj 36 9 loadbang;
#X msg 210 133 \; pd quit;
#X msg 59 106 set py fibonacci;
#X obj 36 34 t b b b;
#X msg 36 147 run 20;
#X obj 59 257 sel 6765;
#X obj 91 345 print test;
#X obj 59 282 t b a;
#X msg 91 313 ok;
#X msg 15 331 \; pd quit;
#X obj 210 96 delay 2000 1 msec;
#X connect 0 0 7 0;
#X connect 1 0 12 0;
#X connect 2 0 5 0;
#X connect 4 0 0 0;
#X connect 5 0 6 0;
#X connect 5 1 4 0;
#X connect 5 2 1 0;
#X connect 6 0 0 0;
#X connect 7 0 9 0;
#X connect 9 0 11 0;
#X connect 9 1 10 0;
#X connect 10 0 8 0;
#X connect 12 0 3 0;
