#N canvas 588 191 768 378 12;
#X obj 48 55 py4pd;
#X obj 210 37 bng 20 250 50 0 empty empty empty 0 -10 0 12 #fcfcfc #000000 #000000;
#X obj 210 13 loadbang;
#X msg 210 91 \; pd quit;
#X obj 210 66 delay 1000 1 msec;
#X connect 1 0 4 0;
#X connect 2 0 1 0;
#X connect 4 0 3 0;
