#N canvas 480 31 1440 959 12;
#X obj 33 71 bng 20 250 50 0 empty empty empty 0 -10 0 12 -262144 -1
-1;
#X msg 33 346 \; pd quit;
#N canvas 0 0 1330 745 TEST1 0;
#X obj 41 188 py4pd;
#X msg 80 136 set py fibonacci;
#X msg 18 103 run 20;
#X obj 41 213 sel 6765;
#X obj 41 238 t b a;
#X msg 73 269 fiboacci ok;
#X obj 73 301 print test1;
#X msg 41 263 1;
#X obj 16 9 inlet;
#X obj 41 328 outlet;
#X msg 232 132 Test error message for incorrect number of args;
#X msg 231 103 -----------------------------------------------;
#X obj 198 174 print MESSAGE;
#X obj 16 34 t b b b;
#X obj 80 99 loadbang;
#X connect 0 0 3 0;
#X connect 1 0 0 0;
#X connect 2 0 0 0;
#X connect 3 0 4 0;
#X connect 4 0 7 0;
#X connect 4 1 5 0;
#X connect 5 0 6 0;
#X connect 7 0 9 0;
#X connect 8 0 13 0;
#X connect 10 0 12 0;
#X connect 11 0 12 0;
#X connect 13 0 2 0;
#X connect 13 1 10 0;
#X connect 13 2 11 0;
#X connect 14 0 1 0;
#X restore 275 71 pd TEST1;
#N canvas -1 31 1920 980 TEST2 0;
#X obj 82 106 int;
#X obj 82 131 + 1;
#X msg 82 182 run \$1 10;
#X msg 13 208 0;
#X obj 82 235 py4pd;
#X obj 182 155 loadbang;
#X msg 182 181 set py sum;
#X msg 157 313 sums ok;
#X obj 82 16 inlet;
#X obj 81 362 outlet;
#X msg 397 141 -----------------------------------------------;
#X obj 82 43 t b b b, f 62;
#X msg 398 170 Test sequencial runnings;
#X obj 364 212 print MESSAGE;
#X obj 157 338 print test2;
#X obj 13 183 sel 200;
#X obj 82 76 metro 1;
#X obj 82 155 % 201;
#X obj 82 266 sel 210;
#X connect 0 0 1 0;
#X connect 1 0 0 1;
#X connect 1 0 17 0;
#X connect 2 0 4 0;
#X connect 3 0 16 0;
#X connect 4 0 18 0;
#X connect 5 0 6 0;
#X connect 6 0 4 0;
#X connect 7 0 14 0;
#X connect 8 0 11 0;
#X connect 10 0 13 0;
#X connect 11 0 16 0;
#X connect 11 1 12 0;
#X connect 11 2 10 0;
#X connect 12 0 13 0;
#X connect 15 0 3 0;
#X connect 16 0 0 0;
#X connect 17 0 2 0;
#X connect 17 0 15 0;
#X connect 18 0 7 0;
#X connect 18 0 9 0;
#X restore 275 97 pd TEST2;
#N canvas 496 136 1399 657 TEST3 0;
#X obj 18 176 py4pd;
#X obj 118 42 loadbang;
#X msg 118 122 set py neoscoreTest;
#X msg 18 123 run;
#X obj 18 93 bng 20 250 50 0 empty empty empty 0 -10 0 12 -262144 -1
-1;
#X obj 50 263 print test3;
#X msg 50 233 neoscore ok;
#X obj 18 294 outlet;
#X obj 18 15 inlet;
#X msg 192 197 -----------------------------------------------;
#X obj 18 40 t b b b;
#X msg 193 226 Test Neoscore;
#X obj 192 261 print MESSAGE;
#X msg 235 151 restart;
#X obj 18 201 t b b;
#X connect 0 0 14 0;
#X connect 1 0 2 0;
#X connect 2 0 0 0;
#X connect 3 0 0 0;
#X connect 4 0 3 0;
#X connect 6 0 5 0;
#X connect 8 0 10 0;
#X connect 9 0 12 0;
#X connect 10 0 4 0;
#X connect 10 1 11 0;
#X connect 10 2 9 0;
#X connect 11 0 12 0;
#X connect 13 0 0 0;
#X connect 14 0 7 0;
#X connect 14 1 6 0;
#X restore 275 125 pd TEST3;
#X obj 33 38 t b b;
#N canvas -1 31 1920 980 TEST4 0;
#X obj 153 290 py4pd;
#X obj 24 164 loadbang;
#X msg 24 190 set py sum;
#X obj 153 321 sel 1010;
#X msg 228 368 sums ok;
#X obj 61 27 inlet;
#X obj 153 417 outlet;
#X obj 61 78 t b b b b, f 21;
#X msg 398 170 Test error message for incorrect number of args;
#X msg 397 141 -----------------------------------------------;
#X obj 109 133 t b b b;
#X msg 155 159 run 1 2 3 4 5;
#X msg 132 206 run 1;
#X msg 109 239 run 1000 10;
#X obj 364 212 print MESSAGE;
#X obj 228 393 print test4;
#X connect 0 0 3 0;
#X connect 1 0 2 0;
#X connect 2 0 0 0;
#X connect 3 0 4 0;
#X connect 3 0 6 0;
#X connect 4 0 15 0;
#X connect 5 0 7 0;
#X connect 7 1 10 0;
#X connect 7 2 8 0;
#X connect 7 3 9 0;
#X connect 8 0 14 0;
#X connect 9 0 14 0;
#X connect 10 0 13 0;
#X connect 10 1 12 0;
#X connect 10 2 11 0;
#X connect 11 0 0 0;
#X connect 12 0 0 0;
#X connect 13 0 0 0;
#X restore 275 151 pd TEST4;
#X obj 33 212 spigot;
#X msg 72 161 1;
#X obj 72 184 tgl 20 0 empty empty empty 0 -10 0 12 -262144 -1 -1 0
1;
#X obj 33 262 t b b;
#X msg 65 294 :( TIMEOUT: Test Failed;
#X obj 65 319 print ERROR;
#X obj 239 294 bng 20 250 50 0 empty empty empty 0 -10 0 12 -262144
-1 -1;
#X obj 239 345 print PASS;
#X msg 239 320 :) ALL Test Pass;
#X obj 275 234 t b b;
#N canvas 470 98 1440 718 TEST5 0;
#X obj 153 330 py4pd;
#X obj 24 164 loadbang;
#X msg 24 190 set py sum;
#X obj 61 27 inlet;
#X obj 153 457 outlet;
#X obj 61 78 t b b b b, f 21;
#X msg 397 141 -----------------------------------------------;
#X obj 364 212 print MESSAGE;
#X msg 398 170 Test set diferent functions;
#X msg 169 180 set py arithm_ser;
#X msg 149 214 set py arithm_ser;
#X obj 228 433 print test5;
#X msg 228 408 set ok;
#X obj 109 133 t b b b b;
#X msg 109 279 run 1 1;
#X obj 153 355 sel 2;
#X obj 153 380 t b b;
#X obj 177 32 bng 20 250 50 0 empty empty empty 0 -10 0 12 -262144
-1 -1;
#X msg 129 248 set py sum;
#X connect 0 0 15 0;
#X connect 1 0 2 0;
#X connect 2 0 0 0;
#X connect 3 0 5 0;
#X connect 5 1 13 0;
#X connect 5 2 8 0;
#X connect 5 3 6 0;
#X connect 6 0 7 0;
#X connect 8 0 7 0;
#X connect 9 0 0 0;
#X connect 10 0 0 0;
#X connect 12 0 11 0;
#X connect 13 0 14 0;
#X connect 13 1 18 0;
#X connect 13 2 10 0;
#X connect 13 3 9 0;
#X connect 14 0 0 0;
#X connect 15 0 16 0;
#X connect 16 0 4 0;
#X connect 16 1 12 0;
#X connect 17 0 5 0;
#X connect 18 0 0 0;
#X restore 275 177 pd TEST5;
#N canvas 470 98 1440 718 TEST6 0;
#X obj 18 289 py4pd;
#X msg 18 172 set py sum;
#X msg 36 200 run 1 1;
#X obj 251 288 py4pd;
#X msg 251 171 set py arithm_ser;
#X msg 269 199 run 1 20 1;
#X obj 115 288 py4pd;
#X msg 115 171 set py fibonacci;
#X msg 133 199 run 20;
#X obj 480 114 t b b b;
#X obj 328 111 t b b b;
#X obj 31 129 delay 50 1 msec;
#X obj 328 83 delay 50 1 msec;
#X obj 21 73 delay 100 1 msec;
#X obj 170 84 delay 75 1 msec;
#X obj 18 314 sel 2;
#X obj 18 375 spigot;
#X obj 133 338 loadbang;
#X msg 133 363 0;
#X obj 20 99 t b b b;
#X msg 78 275 1;
#X obj 18 438 outlet;
#X obj 21 40 t b b b b b, f 66;
#X msg 349 333 -----------------------------------------------;
#X obj 316 404 print MESSAGE;
#X msg 350 362 Test panic functions;
#X obj 18 400 t b b;
#X obj 158 439 print TEST6;
#X msg 158 413 OK;
#X obj 21 14 inlet;
#X msg 376 228 restart;
#X connect 0 0 15 0;
#X connect 1 0 0 0;
#X connect 2 0 0 0;
#X connect 4 0 3 0;
#X connect 5 0 3 0;
#X connect 7 0 6 0;
#X connect 8 0 6 0;
#X connect 9 0 1 0;
#X connect 9 1 7 0;
#X connect 9 2 4 0;
#X connect 10 0 2 0;
#X connect 10 1 8 0;
#X connect 10 2 5 0;
#X connect 11 0 10 0;
#X connect 12 0 10 0;
#X connect 13 0 19 0;
#X connect 14 0 30 0;
#X connect 15 0 16 0;
#X connect 16 0 26 0;
#X connect 17 0 18 0;
#X connect 18 0 16 1;
#X connect 19 0 11 0;
#X connect 19 1 9 0;
#X connect 19 2 20 0;
#X connect 20 0 16 1;
#X connect 22 0 13 0;
#X connect 22 1 14 0;
#X connect 22 2 12 0;
#X connect 22 3 9 0;
#X connect 22 4 23 0;
#X connect 23 0 24 0;
#X connect 25 0 24 0;
#X connect 26 0 21 0;
#X connect 26 1 28 0;
#X connect 28 0 27 0;
#X connect 29 0 22 0;
#X connect 30 0 3 0;
#X restore 275 203 pd TEST6;
#X obj 33 100 delay 15000 1 msec;
#X obj 33 9 r start-test;
#X obj 72 130 r start-test;
#X obj 275 38 bng 20 250 50 0 empty empty empty 0 -10 0 12 -262144
-1 -1;
#X obj 94 212 loadbang;
#X obj 94 236 delay 60000 1 msec;
#X connect 0 0 19 0;
#X connect 2 0 3 0;
#X connect 3 0 4 0;
#X connect 4 0 6 0;
#X connect 5 0 0 0;
#X connect 5 1 2 0;
#X connect 6 0 17 0;
#X connect 7 0 10 0;
#X connect 8 0 9 0;
#X connect 9 0 7 1;
#X connect 10 0 1 0;
#X connect 10 1 11 0;
#X connect 11 0 12 0;
#X connect 13 0 15 0;
#X connect 15 0 14 0;
#X connect 16 0 1 0;
#X connect 16 1 13 0;
#X connect 17 0 18 0;
#X connect 18 0 16 0;
#X connect 19 0 7 0;
#X connect 20 0 5 0;
#X connect 21 0 8 0;
#X connect 22 0 2 0;
#X connect 23 0 24 0;
#X connect 24 0 10 0;
