#N canvas 695 29 874 630 8;
#X obj 53 37 bng 15 250 50 0 empty empty empty 0 -8 0 8 #fcfcfc #000000 #000000;
#X msg 98 43 play;
#X msg 133 45 stop;
#X msg 187 45 clear;
#X obj 14 11 py4pd -lib test;
#X obj 107 122 py.out, f 27;
#X obj 107 245 print out0;
#X obj 140 225 print out1;
#X obj 173 204 print out2;
#X obj 239 155 print out4;
#X obj 206 175 print out3;
#X msg 139 75 reload;
#X connect 0 0 5 0;
#X connect 5 0 6 0;
#X connect 5 1 7 0;
#X connect 5 2 8 0;
#X connect 5 3 10 0;
#X connect 5 4 9 0;
#X connect 11 0 5 0;
