#N canvas 783 122 1042 760 8;
#X obj 71 6 py4pd -lib py4pd;
#X msg 23 62 1 2 3 5 6 8 9 10 11;
#X obj 120 93 nbx 5 14 -1e+37 1e+37 0 0 empty empty empty 0 -8 0 8 #fcfcfc #000000 #000000 0 256;
#X obj 299 28 tgl 25 0 empty empty empty 0 -8 0 8 #fcfcfc #000000 #000000 0 1;
#X obj 366 164 sel 1;
#X obj 366 182 bng 15 250 50 0 empty empty empty 0 -8 0 8 #fcfcfc #000000 #000000;
#X obj 366 221 nbx 5 14 -1e+37 1e+37 0 0 empty empty empty 0 -8 0 8 #fcfcfc #000000 #000000 0 256;
#X obj 366 200 else/count 1 12;
#X obj 299 85 else/count 1 12;
#X obj 366 240 sel 1;
#X obj 366 278 s ciclos;
#X obj 23 6 r ciclos;
#X obj 299 66 metro 200;
#X msg 190 93 1 2 3 5 6 8 9 10 11;
#X obj 163 268 sel 1;
#X obj 19 285 bng 15 250 50 0 empty empty empty 0 -8 0 8 #fcfcfc #000000 #000000;
#X obj 19 343 dac~;
#X obj 19 264 sel 1;
#X obj 19 324 readsf~;
#X msg 19 305 open clap.wav \, 1;
#X obj 146 349 dac~;
#X obj 163 329 readsf~;
#X msg 163 310 open clap.wav \, 1;
#X obj 366 259 else/count 0 11;
#X obj 299 146 t f f f, f 14;
#X obj 23 114 py+, f 20;
#X obj 23 137 py// 0 12;
#X msg 234 119 1;
#X obj 163 241 pyisin;
#X obj 19 240 pyisin;
#X obj 163 289 bng 15 250 50 0 empty empty empty 0 -8 0 8 #fcfcfc #000000 #000000;
#X obj 448 178 py.memuse;
#X obj 448 199 nbx 5 14 -1e+37 1e+37 0 0 empty empty empty 0 -8 0 8 #fcfcfc #000000 #000000 0 256;
#X msg 448 157 pd;
#X obj 23 37 t b f b b, f 41;
#X msg 383 66 \; pd dsp \$1;
#X obj 256 331 py.memuse;
#X obj 256 352 nbx 5 14 -1e+37 1e+37 0 0 empty empty empty 0 -8 0 8 #fcfcfc #000000 #000000 0 256;
#X msg 256 310 pd;
#X obj 256 281 loadbang;
#X obj 448 138 bng 15 250 50 0 empty empty empty 0 -8 0 8 #fcfcfc #000000 #000000;
#X text 163 6 YOU NEED ELSE LIBRARY!!!!!;
#X obj 103 152 loadbang;
#X msg 103 173 pointers 0;
#X connect 1 0 25 0;
#X connect 2 0 25 1;
#X connect 3 0 12 0;
#X connect 3 0 35 0;
#X connect 4 0 5 0;
#X connect 5 0 7 0;
#X connect 6 0 9 0;
#X connect 7 0 6 0;
#X connect 8 0 24 0;
#X connect 8 0 40 0;
#X connect 9 0 23 0;
#X connect 11 0 34 0;
#X connect 12 0 8 0;
#X connect 13 0 28 1;
#X connect 14 0 30 0;
#X connect 15 0 19 0;
#X connect 17 0 15 0;
#X connect 18 0 16 0;
#X connect 19 0 18 0;
#X connect 21 0 20 1;
#X connect 22 0 21 0;
#X connect 23 0 10 0;
#X connect 24 0 29 0;
#X connect 24 1 28 0;
#X connect 24 2 4 0;
#X connect 25 0 26 0;
#X connect 26 0 29 1;
#X connect 27 0 24 0;
#X connect 28 0 14 0;
#X connect 29 0 17 0;
#X connect 30 0 22 0;
#X connect 31 0 32 0;
#X connect 33 0 31 0;
#X connect 34 0 1 0;
#X connect 34 1 2 0;
#X connect 34 2 13 0;
#X connect 36 0 37 0;
#X connect 38 0 36 0;
#X connect 39 0 38 0;
#X connect 40 0 33 0;
#X connect 42 0 43 0;
#X connect 43 0 29 0;
#X connect 43 0 28 0;
