#N canvas 406 -23 1440 968 8;
#X text 123 10 solved!;
#X obj 64 111 bng 15 250 50 0 empty empty empty 0 -8 0 8 #fcfcfc #000000 #000000;
#X obj 64 148 nbx 9 14 -1e+37 1e+37 0 0 empty empty empty 0 -8 0 8 #fcfcfc #000000 #000000 0 256;
#X obj 143 110 bng 15 250 50 0 empty empty empty 0 -8 0 8 #fcfcfc #000000 #000000;
#X obj 143 148 nbx 9 14 -1e+37 1e+37 0 0 empty empty empty 0 -8 0 8 #fcfcfc #000000 #000000 0 256;
#X obj 10 48 bng 25 250 50 0 empty empty empty 0 -8 0 8 #fcfcfc #000000 #000000;
#X msg 10 106 pd;
#X obj 10 150 nbx 5 14 -1e+37 1e+37 0 0 empty empty empty 0 -8 0 8 #fcfcfc #000000 #000000 0 256;
#X obj 10 193 list;
#X msg 301 104 pd;
#X obj 301 148 nbx 5 14 -1e+37 1e+37 0 0 empty empty empty 0 -8 0 8 #fcfcfc #000000 #000000 0 256;
#X msg 328 104 reload;
#X obj 301 167 s mem;
#X obj 27 171 r mem;
#X obj 223 148 nbx 9 14 -1e+37 1e+37 0 0 empty empty empty 0 -8 0 8 #fcfcfc #000000 #000000 0 256;
#X obj 223 109 bng 15 250 50 0 empty empty empty 0 -8 0 8 #fcfcfc #000000 #000000;
#X obj 8 6 py4pd -lib py4pd;
#X obj 301 127 py.memuse;
#X obj 10 129 py.memuse;
#N canvas 702 112 1166 859 PROBLEM1 0;
#X obj 8 5 bng 15 250 50 0 empty empty empty 0 -8 0 8 #fcfcfc #000000 #000000;
#X obj 8 381 else/display;
#X obj 32 292 b;
#X obj 32 313 else/count;
#X obj 32 334 nbx 5 14 -1e+37 1e+37 0 0 empty empty empty 0 -8 0 8 #fcfcfc #000000 #000000 0 256;
#X obj 8 61 t b b, f 20;
#X obj 132 134 nbx 5 14 -1e+37 1e+37 0 0 empty empty empty 0 -8 0 8 #fcfcfc #000000 #000000 0 256;
#X obj 132 113 random 10;
#X obj 132 74 bng 15 250 50 0 empty empty empty 0 -8 0 8 #fcfcfc #000000 #000000;
#X obj 163 6 bng 15 250 50 0 empty empty empty 0 -8 0 8 #fcfcfc #000000 #000000;
#X obj 379 48 tgl 15 0 empty empty empty 0 -8 0 8 #fcfcfc #000000 #000000 0 1;
#X msg 8 82 1 2 3 4 5 6 3 9 0 0;
#X obj 212 143 nbx 5 14 -1e+37 1e+37 0 0 empty empty empty 0 -8 0 8 #fcfcfc #000000 #000000 0 256;
#X obj 212 122 random 10;
#X obj 212 103 bng 15 250 50 0 empty empty empty 0 -8 0 8 #fcfcfc #000000 #000000;
#X obj 281 172 nbx 5 14 -1e+37 1e+37 0 0 empty empty empty 0 -8 0 8 #fcfcfc #000000 #000000 0 256;
#X obj 281 151 random 10;
#X obj 281 112 bng 15 250 50 0 empty empty empty 0 -8 0 8 #fcfcfc #000000 #000000;
#X obj 359 183 nbx 5 14 -1e+37 1e+37 0 0 empty empty empty 0 -8 0 8 #fcfcfc #000000 #000000 0 256;
#X obj 359 162 random 10;
#X obj 359 123 bng 15 250 50 0 empty empty empty 0 -8 0 8 #fcfcfc #000000 #000000;
#X obj 143 34 t b b b b b;
#X obj 376 70 metro 100;
#X obj 287 4 bng 15 250 50 0 empty empty empty 0 -8 0 8 #fcfcfc #000000 #000000;
#X obj 287 39 else/loop 30000;
#X obj 39 18 inlet;
#X obj 32 353 outlet;
#X obj 8 40 else/loop 30001;
#X obj 8 163 py+ None 9;
#X obj 8 205 py+ None 9;
#X obj 8 185 py+ None 9;
#X obj 8 227 py+ None 9;
#X obj 212 162 pd2py;
#X obj 281 192 pd2py;
#X obj 359 222 pd2py;
#X obj 8 248 py2pd;
#X connect 0 0 27 0;
#X connect 2 0 3 0;
#X connect 3 0 4 0;
#X connect 4 0 26 0;
#X connect 5 0 11 0;
#X connect 5 1 7 0;
#X connect 6 0 28 1;
#X connect 7 0 6 0;
#X connect 8 0 7 0;
#X connect 9 0 21 0;
#X connect 10 0 22 0;
#X connect 11 0 28 0;
#X connect 12 0 32 0;
#X connect 13 0 12 0;
#X connect 14 0 13 0;
#X connect 15 0 33 0;
#X connect 16 0 15 0;
#X connect 17 0 16 0;
#X connect 18 0 34 0;
#X connect 19 0 18 0;
#X connect 20 0 19 0;
#X connect 21 0 11 0;
#X connect 21 1 8 0;
#X connect 21 2 14 0;
#X connect 21 3 17 0;
#X connect 21 4 20 0;
#X connect 22 0 21 0;
#X connect 23 0 24 0;
#X connect 24 0 21 0;
#X connect 25 0 27 0;
#X connect 27 0 5 0;
#X connect 28 0 30 0;
#X connect 29 0 31 0;
#X connect 30 0 29 0;
#X connect 31 0 35 0;
#X connect 32 0 30 1;
#X connect 33 0 29 1;
#X connect 34 0 31 1;
#X connect 35 0 1 0;
#X connect 35 0 2 0;
#X restore 64 129 pd PROBLEM1;
#N canvas 496 67 952 619 PROBLEM2 0;
#X obj 9 48 bng 15 250 50 0 empty empty empty 0 -8 0 8 #fcfcfc #000000 #000000;
#N canvas 181 219 1494 700 list1 0;
#X obj 10 93 t b b b b, f 91;
#X obj 10 321 outlet;
#X obj 147 318 outlet;
#X obj 356 316 outlet;
#X obj 457 320 outlet;
#X obj 11 21 inlet;
#X msg 10 164 [826 463 1278 1237 1077];
#X msg 161 223 [1 274 26579 2073];
#X msg 311 171 [1 2 3 4 5 6 7];
#X msg 462 257 [1 27 467 128 12973 12345];
#X obj 462 277 py.mklist;
#X obj 10 245 py.mklist;
#X obj 161 257 py.mklist;
#X obj 311 251 py.mklist;
#X connect 0 0 6 0;
#X connect 0 1 7 0;
#X connect 0 2 8 0;
#X connect 0 3 9 0;
#X connect 5 0 0 0;
#X connect 6 0 11 0;
#X connect 7 0 12 0;
#X connect 8 0 13 0;
#X connect 9 0 10 0;
#X connect 10 0 4 0;
#X connect 11 0 1 0;
#X connect 12 0 2 0;
#X connect 13 0 3 0;
#X restore 9 100 pd list1;
#X f 15;
#N canvas 181 219 1494 700 list3 0;
#X msg 161 223 [1 2 3 4 5 6 9 1 283 1274 12395712];
#X msg 10 164 [1 2 3 4 5 6 9 1 283 1274 12395712];
#X msg 462 257 [1 2 3 4 5 6 9 1 283 1274 12395712];
#X obj 10 93 t b b b b, f 91;
#X msg 311 171 [1 2 3 4 5 6 9 1 283 1274 12395712];
#X obj 10 321 outlet;
#X obj 147 318 outlet;
#X obj 356 316 outlet;
#X obj 457 320 outlet;
#X obj 11 21 inlet;
#X obj 10 245 py.mklist;
#X obj 161 257 py.mklist;
#X obj 311 251 py.mklist;
#X obj 462 277 py.mklist;
#X connect 0 0 11 0;
#X connect 1 0 10 0;
#X connect 2 0 13 0;
#X connect 3 0 1 0;
#X connect 3 1 0 0;
#X connect 3 2 4 0;
#X connect 3 3 2 0;
#X connect 4 0 12 0;
#X connect 9 0 3 0;
#X connect 10 0 5 0;
#X connect 11 0 6 0;
#X connect 12 0 7 0;
#X connect 13 0 8 0;
#X restore 250 101 pd list3;
#X f 15;
#X obj 9 68 t b b b b, f 73;
#N canvas 181 219 1314 370 list4 0;
#X msg 161 83 [1 2 3 4 5 6 9 1 283 1274 12395712];
#X msg 10 65 [1 2 3 4 5 6 9 1 283 1274 12395712];
#X msg 462 122 [1 2 3 4 5 6 9 1 283 1274 12395712];
#X obj 10 40 t b b b b, f 91;
#X msg 311 101 [1 2 3 4 5 6 9 1 283 1274 12395712];
#X obj 10 107 outlet;
#X obj 161 121 outlet;
#X obj 311 141 outlet;
#X obj 462 162 outlet;
#X obj 10 21 inlet;
#X obj 311 122 py.mklist;
#X obj 462 142 py.mklist;
#X obj 161 102 py.mklist;
#X obj 10 84 py.mklist;
#X connect 0 0 12 0;
#X connect 1 0 13 0;
#X connect 2 0 11 0;
#X connect 3 0 1 0;
#X connect 3 1 0 0;
#X connect 3 2 4 0;
#X connect 3 3 2 0;
#X connect 4 0 10 0;
#X connect 9 0 3 0;
#X connect 10 0 7 0;
#X connect 11 0 8 0;
#X connect 12 0 6 0;
#X connect 13 0 5 0;
#X restore 371 101 pd list4;
#X f 15;
#X obj 9 3 bng 15 250 50 0 empty empty empty 0 -8 0 8 #fcfcfc #000000 #000000;
#X obj 27 228 else/display;
#X obj 29 3 inlet;
#X obj 9 261 else/count;
#X obj 9 227 bng 15 250 50 0 empty empty empty 0 -8 0 8 #fcfcfc #000000 #000000;
#X obj 9 280 outlet;
#N canvas 181 219 1494 700 list2 0;
#X obj 10 93 t b b b b, f 91;
#X obj 10 321 outlet;
#X obj 147 318 outlet;
#X obj 356 316 outlet;
#X obj 457 320 outlet;
#X obj 11 21 inlet;
#X msg 10 164 [826 463 1278 1237 1077];
#X msg 161 223 [1 274 26579 2073];
#X msg 311 171 [1 2 3 4 5 6 7];
#X msg 462 257 [1 27 467 128 12973 12345];
#X obj 161 257 py.mklist;
#X obj 10 245 py.mklist;
#X obj 311 251 py.mklist;
#X obj 462 277 py.mklist;
#X connect 0 0 6 0;
#X connect 0 1 7 0;
#X connect 0 2 8 0;
#X connect 0 3 9 0;
#X connect 5 0 0 0;
#X connect 6 0 11 0;
#X connect 7 0 10 0;
#X connect 8 0 12 0;
#X connect 9 0 13 0;
#X connect 10 0 2 0;
#X connect 11 0 1 0;
#X connect 12 0 3 0;
#X connect 13 0 4 0;
#X restore 129 101 pd list2;
#X f 15;
#X obj 9 168 py.list -a 4, f 28;
#X obj 9 189 py.nth None 0;
#X obj 9 208 py2pd;
#X obj 9 29 else/loop 10001;
#X connect 0 0 3 0;
#X connect 1 0 12 0;
#X connect 1 1 12 1;
#X connect 1 2 12 2;
#X connect 1 3 12 3;
#X connect 2 0 12 0;
#X connect 2 1 12 1;
#X connect 2 2 12 2;
#X connect 2 3 12 3;
#X connect 3 0 1 0;
#X connect 3 1 11 0;
#X connect 3 2 2 0;
#X connect 3 3 4 0;
#X connect 4 0 12 0;
#X connect 4 1 12 1;
#X connect 4 2 12 2;
#X connect 4 3 12 3;
#X connect 5 0 15 0;
#X connect 7 0 15 0;
#X connect 8 0 10 0;
#X connect 9 0 8 0;
#X connect 11 0 12 0;
#X connect 11 1 12 1;
#X connect 11 2 12 2;
#X connect 11 3 12 3;
#X connect 12 0 13 0;
#X connect 13 0 14 0;
#X connect 14 0 6 0;
#X connect 14 0 9 0;
#X connect 15 0 0 0;
#X restore 143 129 pd PROBLEM2;
#N canvas 1181 149 427 473 PROBLEM3 0;
#X obj 6 11 bng 15 250 50 0 empty empty empty 0 -8 0 8 #fcfcfc #000000 #000000;
#X obj 6 70 bng 15 250 50 0 empty empty empty 0 -8 0 8 #fcfcfc #000000 #000000;
#X msg 6 90 [1 2 3 4 5];
#X obj 6 148 b;
#X obj 6 167 else/count;
#X obj 6 186 nbx 5 14 -1e+37 1e+37 0 0 empty empty empty 0 -8 0 8 #fcfcfc #000000 #000000 0 256;
#X obj 41 13 inlet;
#X obj 6 205 outlet;
#X obj 6 49 else/loop 50000;
#X obj 6 111 py.mklist;
#X obj 6 129 py+ None 2;
#X connect 0 0 8 0;
#X connect 1 0 2 0;
#X connect 2 0 9 0;
#X connect 3 0 4 0;
#X connect 4 0 5 0;
#X connect 5 0 7 0;
#X connect 6 0 8 0;
#X connect 8 0 1 0;
#X connect 9 0 10 0;
#X connect 10 0 3 0;
#X restore 223 128 pd PROBLEM3;
#N canvas 1066 45 442 904 EXAMPLE2 0;
#X obj 9 176 py.iterate;
#X obj 9 236 py.collect;
#X obj 9 91 bng 15 250 50 0 empty empty empty 0 -8 0 8 #fcfcfc #000000 #000000;
#X msg 9 128 1 2 3 4 5 6 7 8 9 10;
#X obj 120 281 py.nth None 9;
#X obj 120 344 tgl 15 0 empty empty empty 0 -8 0 8 #fcfcfc #000000 #000000 0 1;
#X obj 9 368 py.gate -outn 2;
#X text 30 91 start the loop;
#X obj 29 149 r recursivearg;
#X obj 9 413 s recursivearg;
#X obj 9 69 else/loop 100;
#X obj 9 50 bng 15 250 50 0 empty empty empty 0 -8 0 8 #fcfcfc #000000 #000000;
#X obj 9 27 else/loop 30;
#X obj 9 7 bng 15 250 50 0 empty empty empty 0 -8 0 8 #fcfcfc #000000 #000000;
#X obj 9 257 py.trigger -outn 2;
#X obj 138 411 py.print;
#X obj 120 303 py> None 100000;
#X obj 9 212 py+ None 100;
#X obj 120 322 py2pd;
#X connect 0 0 17 0;
#X connect 0 1 1 0;
#X connect 1 0 14 0;
#X connect 2 0 3 0;
#X connect 3 0 0 0;
#X connect 4 0 16 0;
#X connect 5 0 6 1;
#X connect 6 0 9 0;
#X connect 6 1 15 0;
#X connect 8 0 0 0;
#X connect 10 0 2 0;
#X connect 11 0 10 0;
#X connect 12 0 11 0;
#X connect 13 0 12 0;
#X connect 14 0 6 0;
#X connect 14 1 4 0;
#X connect 16 0 18 0;
#X connect 17 0 1 0;
#X connect 18 0 5 0;
#X restore 161 18 pd EXAMPLE2;
#X text 228 17 not solved!;
#X obj 456 212 py.iterate;
#X obj 456 309 py.collect;
#X obj 456 159 else/loop 30;
#X obj 456 348 py.nth None 0;
#X obj 541 348 py.nth None 1;
#X obj 456 139 bng 15 250 50 0 empty empty empty 0 -8 0 8 #fcfcfc #000000 #000000;
#X obj 345 42 bng 15 250 50 0 empty empty empty 0 -8 0 8 #fcfcfc #000000 #000000;
#X msg 456 190 20889 12338 12367;
#X obj 10 262 print;
#X obj 456 116 else/loop 2001;
#X obj 456 402 else/count;
#X obj 456 421 nbx 8 14 -1e+37 1e+37 0 0 empty empty empty 0 -8 0 8 #fcfcfc #000000 #000000 0 256;
#X obj 456 368 bng 15 250 50 0 empty empty empty 0 -8 0 8 #fcfcfc #000000 #000000;
#X obj 541 401 else/count;
#X obj 541 420 nbx 8 14 -1e+37 1e+37 0 0 empty empty empty 0 -8 0 8 #fcfcfc #000000 #000000 0 256;
#X obj 541 369 bng 15 250 50 0 empty empty empty 0 -8 0 8 #fcfcfc #000000 #000000;
#X obj 456 233 py* None 2000;
#X obj 456 252 py* None 2932;
#X obj 572 139 print ============;
#X obj 560 116 t b b;
#X obj 563 55 bng 15 250 50 0 empty empty empty 0 -8 0 8 #fcfcfc #000000 #000000;
#X obj 262 250 py.iterate;
#X obj 262 294 py.collect;
#X obj 262 313 t a a, f 15;
#X obj 334 334 py.nth None 0;
#X obj 262 412 py.gate -outn 2;
#X obj 262 459 s py4pd_again;
#X obj 296 218 r py4pd_again;
#X obj 342 431 py2pd;
#X obj 262 199 else/loop 2001;
#X obj 262 179 bng 15 250 50 0 empty empty empty 0 -8 0 8 #fcfcfc #000000 #000000;
#X obj 342 452 else/display;
#X obj 262 438 py.recursive;
#X obj 179 357 bng 15 250 50 0 empty empty empty 0 -8 0 8 #fcfcfc #000000 #000000;
#X obj 179 394 else/count;
#X obj 179 415 nbx 5 14 -1e+37 1e+37 0 0 empty empty empty 0 -8 0 8 #fcfcfc #000000 #000000 0 256;
#X msg 103 357 0;
#X msg 262 218 8 18;
#X obj 334 353 py> None 135029;
#X obj 10 79 t b b b b b b b, f 65;
#X obj 262 271 py+ None 2;
#X obj 334 374 py2pd;
#X msg 10 214 Memory before run \$2 | After run \$1;
#X connect 1 0 19 0;
#X connect 3 0 20 0;
#X connect 5 0 63 0;
#X connect 6 0 18 0;
#X connect 7 0 8 0;
#X connect 8 0 66 0;
#X connect 9 0 17 0;
#X connect 10 0 12 0;
#X connect 13 0 8 1;
#X connect 15 0 21 0;
#X connect 17 0 10 0;
#X connect 18 0 7 0;
#X connect 19 0 2 0;
#X connect 20 0 4 0;
#X connect 21 0 14 0;
#X connect 24 0 40 0;
#X connect 24 1 25 0;
#X connect 25 0 27 0;
#X connect 25 0 28 0;
#X connect 26 0 31 0;
#X connect 27 0 36 0;
#X connect 28 0 39 0;
#X connect 29 0 26 0;
#X connect 30 0 33 0;
#X connect 31 0 24 0;
#X connect 33 0 29 0;
#X connect 34 0 35 0;
#X connect 36 0 34 0;
#X connect 37 0 38 0;
#X connect 39 0 37 0;
#X connect 40 0 41 0;
#X connect 41 0 25 0;
#X connect 43 0 31 0;
#X connect 43 1 42 0;
#X connect 44 0 43 0;
#X connect 45 0 64 0;
#X connect 45 1 46 0;
#X connect 46 0 47 0;
#X connect 47 0 49 0;
#X connect 47 0 57 0;
#X connect 47 1 48 0;
#X connect 48 0 62 0;
#X connect 49 0 56 0;
#X connect 49 1 52 0;
#X connect 51 0 45 0;
#X connect 52 0 55 0;
#X connect 53 0 61 0;
#X connect 54 0 53 0;
#X connect 56 0 50 0;
#X connect 57 0 58 0;
#X connect 58 0 59 0;
#X connect 60 0 58 0;
#X connect 61 0 45 0;
#X connect 62 0 65 0;
#X connect 63 0 6 0;
#X connect 63 1 1 0;
#X connect 63 2 3 0;
#X connect 63 3 15 0;
#X connect 63 4 30 0;
#X connect 63 5 54 0;
#X connect 63 6 9 0;
#X connect 64 0 46 0;
#X connect 65 0 49 1;
#X connect 66 0 32 0;
