#N canvas 816 123 1032 674 12;
#X obj 41 291 dac~, f 6;
#X obj 41 118 py4pd;
#X msg 41 15 set partch otonal_diamond;
#X obj 41 252 else/sfont~;
#N canvas 0 50 1113 848 messages2sfont 0;
#N canvas -9 -9 1920 1026 sfont_messages 0;
#X obj 20 357 cyclone/scale -100 100 4096 12288;
#X obj 21 84 * 0.01;
#X obj 20 214 -;
#X obj 20 239 * 100;
#X obj 72 84 s velocity;
#X obj 153 106 s dur;
#X obj 357 512 r velocity;
#X obj 21 16 inlet;
#X obj 442 511 r channel;
#X obj 153 80 abs;
#X obj 272 536 pack f f f f, f 37;
#X obj 528 509 r dur;
#X msg 272 592 note \$1 \$2 \$3;
#X obj 21 46 unpack f f f f, f 19;
#X obj 50 115 t f f f f;
#X obj 20 398 cyclone/round 1 @nearest 0;
#X obj 90 165 cyclone/round 1;
#X obj 379 153 cyclone/round 1;
#X obj 20 325 cyclone/round 1;
#X obj 20 270 t f f;
#X msg 272 503 72;
#X obj 379 301 cyclone/prepend set;
#X obj 20 428 t f b;
#X obj 406 236 s channel;
#X obj 406 181 bng 20 250 50 0 empty empty empty 17 7 0 10 -262144
-1 -1;
#X obj 406 209 cyclone/counter 1 16;
#X obj 20 493 pack f f;
#X obj 73 465 r channel;
#X msg 20 530 bend \$1 \$2;
#N canvas 0 50 1205 721 note-off 0;
#X obj 38 138 unpack f f f f;
#X obj 67 214 pack f f f;
#X obj 67 248 cyclone/prepend note;
#X text 187 55 NOTA \, VEL \, CHANNEL \, DURATION;
#X obj 67 295 outlet;
#X obj 38 54 cyclone/prepend next;
#X obj 38 25 inlet;
#X obj 38 90 clone wait 32;
#X connect 0 1 1 0;
#X connect 0 2 1 1;
#X connect 0 3 1 2;
#X connect 1 0 2 0;
#X connect 2 0 4 0;
#X connect 5 0 7 0;
#X connect 6 0 5 0;
#X connect 7 0 0 0;
#X restore 396 593 pd note-off;
#X obj 32 608 outlet;
#X connect 0 0 15 0;
#X connect 1 0 14 0;
#X connect 2 0 3 0;
#X connect 3 0 19 0;
#X connect 6 0 10 1;
#X connect 7 0 13 0;
#X connect 8 0 10 2;
#X connect 9 0 5 0;
#X connect 10 0 12 0;
#X connect 10 0 29 0;
#X connect 11 0 10 3;
#X connect 12 0 30 0;
#X connect 13 0 1 0;
#X connect 13 1 4 0;
#X connect 13 3 9 0;
#X connect 14 1 2 0;
#X connect 14 2 16 0;
#X connect 14 3 17 0;
#X connect 15 0 22 0;
#X connect 16 0 2 1;
#X connect 17 0 21 0;
#X connect 17 0 24 0;
#X connect 18 0 0 0;
#X connect 19 0 18 0;
#X connect 20 0 10 0;
#X connect 21 0 20 0;
#X connect 22 0 26 0;
#X connect 22 1 20 0;
#X connect 24 0 25 0;
#X connect 25 0 23 0;
#X connect 26 0 28 0;
#X connect 27 0 26 1;
#X connect 28 0 30 0;
#X connect 29 0 30 0;
#X restore 29 220 pd sfont_messages;
#X text 155 165 NOTA \, VEL \, CHANNEL \, DURATION;
#X obj 29 73 else/freq2midi;
#X obj 29 120 * 100;
#X obj 29 98 else/iterate;
#X obj 156 220 print;
#X obj 29 164 pack f 60 1 200;
#X obj 200 110 hsl 128 15 50 5000 0 0 empty empty empty -2 -8 0 10
-262144 -1 -1 0 0;
#X obj 148 82 hsl 128 15 30 100 0 0 empty empty empty -2 -8 0 10 -262144
-1 -1 0 0;
#X msg 227 222 panic;
#X obj 61 29 inlet;
#X obj 28 263 outlet;
#X connect 0 0 11 0;
#X connect 2 0 4 0;
#X connect 3 0 6 0;
#X connect 4 0 3 0;
#X connect 6 0 0 0;
#X connect 6 0 5 0;
#X connect 7 0 6 3;
#X connect 8 0 6 1;
#X connect 9 0 11 0;
#X connect 10 0 2 0;
#X restore 41 179 pd messages2sfont;
#X msg 256 16 packages C:/Users/Neimog/Git/py4pd/py4pd/Lib/site-packages
, f 21;
#X obj 256 184 s py4pd;
#X obj 87 84 r py4pd;
#X msg 294 111 home C:/Users/Neimog/Git/py4pd/scripts;
#N canvas 0 50 1223 734 load 0;
#X obj 49 35 loadbang;
#X obj 79 175 outlet;
#X msg 30 93 open C:/Users/Neimog/OneDrive_usp.br/Documents/Music_Files/SoundFonts/Celesta.sf2
;
#X connect 0 0 2 0;
#X connect 2 0 1 0;
#X restore 90 213 pd load;
#X msg 53 57 run 13 6 440 23;
#X connect 1 0 4 0;
#X connect 2 0 1 0;
#X connect 3 0 0 0;
#X connect 3 1 0 1;
#X connect 4 0 3 0;
#X connect 5 0 6 0;
#X connect 7 0 1 0;
#X connect 8 0 6 0;
#X connect 9 0 3 0;
#X connect 10 0 1 0;
