#N canvas 641 254 760 420 12;
#X obj 14 165 print py4pd;
#X obj 14 139 py4pd;
#X obj 144 19 hsl 128 15 0 127 0 0 empty empty empty -2 -8 0 10 -262144
-1 -1 17000 1;
#X msg 141 109 args \$1 10;
#X msg 14 19 set py function1;
#X msg 228 108 set \$1 10;
#X msg 228 153 127.5 10;
#X obj 141 45 * 1.321;
#X connect 1 0 0 0;
#X connect 2 0 7 0;
#X connect 3 0 1 0;
#X connect 4 0 1 0;
#X connect 5 0 6 0;
#X connect 7 0 3 0;
#X connect 7 0 5 0;
