#N canvas 540 39 1245 761 12;
#X msg 51 83 pd~ stop;
#X msg 163 155 set 1;
#X msg 214 155 args 1;
#X obj 119 283 print MAIN;
#X msg 119 83 pd~ start -nogui multithreading.pd;
#X obj 432 154 noise~;
#X obj 432 219 dac~;
#X obj 119 226 pd~ -ninsig 0 -noutsig 0 -fifo 1;
#X connect 0 0 7 0;
#X connect 1 0 7 0;
#X connect 2 0 7 0;
#X connect 4 0 7 0;
#X connect 5 0 6 0;
#X connect 5 0 6 1;
#X connect 7 0 3 0;
