#N canvas 570 73 762 548 12;
#X obj 35 60 py4pd~;
#X obj 35 20 osc~ 440;
#X obj 35 217 dac~;
#X obj 35 86 else/gain~ 1 0 20 0 0.133333;
#X msg 100 20 set py_audio audio_gain;
#X connect 0 0 3 0;
#X connect 1 0 0 0;
#X connect 3 0 2 0;
#X connect 3 0 2 1;
#X connect 4 0 0 0;
