#N canvas 644 484 719 392 8;
#X msg 30 43 doc, f 9;
#N canvas 491 261 794 378 embedded 0;
#X obj 9 192 py4pd;
#X msg 47 128 run;
#X msg 52 147 reload;
#X msg 9 216 set \$1;
#X msg 9 240 9;
#X text 6 298 With this you can send values for pd without return \, this seems to be very useful for work with list of lists. And other things;
#X obj 8 269 print pd.out;
#X msg 413 141 run;
#N canvas 0 50 450 250 (subpatch) 0;
#X array test 106 float 3;
#A 0 0.45 -0.67 0.05 -0.61 -0.97 0.63 0.47 -0.44 0.67 0.73 -0.22 -0.35 0.86 -0.41 0.01 -0.43 0.63 0.91 -0.57 0.92 -0.83 -0.2 -0.47 -0.21 -0.94 -0.06 -0.78 -0.52 1 -0.37 -0.41 -0.86 -0.7 0.81 -0.17 0.87 -0.85 0.44 0.05 -0.74 0.59 -0.58 0.09 0.48 0.68 -0.29 -0.16 0.16 0.25 0.47 -0.65 0.83 -0.18 -0.47 0.71 -0.67 1 0.49 0.41 0.56 -0.74 0.05 -0.22 0.56 -0.78 0.3 0.02 -0.82 0.51 -0.74 0.26 0.01 0.68 0.5 -0.07 0.6 -0.97 0.81 -0.49 -0.22 0.65 0.6 0.66 0.45 0.76 0.75 -0.53 -0.61 -0.22 -0.75 -0.9 -0.89 0.5 0.23 0.09 -0.63 0.15 -0.01 0.95 0.06 0.57 -0.95 -0.29 0.84 0.43 0.14;
#X coords 0 1 106 -1 200 140 1;
#X restore 561 12 graph;
#X obj 413 92 tgl 20 0 empty empty empty 0 -10 0 12 #fcfcfc #000000 #000000 0 1;
#X obj 103 244 r py4pdreceiver;
#X obj 103 269 print py4pdreceiver;
#X msg 55 166 editor nvim;
#X msg 32 57 pd_print;
#X msg 9 8 pd_output;
#X msg 9 101 set py \$1;
#X obj 9 79 list;
#X msg 19 35 pd_tempfolder;
#X text 79 6 <= Select the Function to run.;
#X text 67 127 <= Run the Function.;
#X text 94 146 <= Reload the function if you edit it!;
#X text 119 165 <= Set your code editor.;
#X text 445 192 Write of read things in pd arrays using Python.;
#X text 438 93 <= Turn On;
#X obj 413 118 metro 500;
#X msg 425 168 set py pd_tabwrite;
#X obj 413 192 py4pd;
#X text 523 168 <= 1 Set the function;
#X connect 0 0 3 0;
#X connect 0 0 6 0;
#X connect 1 0 0 0;
#X connect 2 0 0 0;
#X connect 3 0 4 0;
#X connect 7 0 26 0;
#X connect 9 0 24 0;
#X connect 10 0 11 0;
#X connect 12 0 0 0;
#X connect 13 0 16 0;
#X connect 14 0 16 0;
#X connect 15 0 0 0;
#X connect 16 0 15 0;
#X connect 17 0 16 0;
#X connect 24 0 7 0;
#X connect 25 0 26 0;
#X restore 12 254 pd embedded module;
#X obj 13 195 print py4pd;
#N canvas 236 39 862 375 code 0;
#X obj 7 305 s py4pd;
#X msg 74 154 reload, f 8;
#N canvas 0 50 450 250 (subpatch) 0;
#X text 0 0 plugdatainfo <?xml version="1.0" encoding="UTF-8"?> <PlugDataInfo/>;
#X coords 0 1 100 -1 1 1 1;
#X restore 0 0 graph;
#X msg 7 28 editor nvim;
#X msg 16 54 editor vscode;
#X text 94 28 Set Nvim as py4pd editor.;
#X text 120 54 Set vscode as py4pd editor.;
#X text 136 129 Open editor if it is in the PATH!;
#X text 142 153 Reload the function \, if you change it on script you need to reload!;
#X msg 29 79 editor emacs;
#X text 133 79 Set emacs as py4pd editor.;
#X msg 83 187 open myscript;
#X text 155 182 If you want to create a new script \, you can run open \, if the files already exits it will not replace it \, just open it.;
#X msg 46 104 editor gvim;
#X text 133 104 Set Gvim as py4pd editor.;
#X msg 57 130 editor sublime;
#X text 276 55 Mac Users should check this link =>;
#X obj 462 79 pdcontrol;
#X msg 462 57 browse https://code.visualstudio.com/docs/setup/mac;
#X text 519 80 The "Launching from the command line" Part...;
#X connect 1 0 0 0;
#X connect 3 0 0 0;
#X connect 4 0 0 0;
#X connect 9 0 0 0;
#X connect 11 0 0 0;
#X connect 13 0 0 0;
#X connect 15 0 0 0;
#X connect 18 0 17 0;
#X restore 13 231 pd code;
#X text 85 230 Code python with IDE.;
#X msg 13 17 set py pdsum;
#X msg 61 69 run 1 10, f 14;
#X obj 412 93 bng 20 250 50 0 mac mac-s empty 0 -10 0 12 #fcfcfc #000000 #000000;
#X obj 412 118 bng 20 250 50 0 windows windows-s empty 0 -10 0 12 #fcfcfc #000000 #000000;
#X obj 412 143 bng 20 250 50 0 linux linux-s empty 0 -10 0 12 #fcfcfc #000000 #000000;
#N canvas 0 0 1084 427 (subpatch) 0;
#X obj 47 189 pdcontrol;
#X obj 36 8 r mac;
#X obj 120 8 r windows;
#X obj 228 9 r linux;
#X msg 36 58 browse https://www.python.org/downloads/release/python-3117;
#X msg 229 97 browse https://charlesneimog.github.io/py4pd/setup/#__tabbed_2_3;
#X connect 1 0 4 0;
#X connect 2 0 4 0;
#X connect 3 0 5 0;
#X connect 4 0 0 0;
#X connect 5 0 0 0;
#X restore 411 43 pd;
#X text 436 92 Click on this bang for MacOS | Bottom of page;
#X text 436 119 Click on this bang for Windows | Bottom of page;
#X text 441 144 Click on this bang for Linux;
#N canvas 485 102 499 258 Libraries 1;
#N canvas 30 68 472 361 audioLibraries 0;
#X text 83 6 <= Load the library of the script called py.py. The script must be located in the patch folder or inside one folder with same of the script that are in the PureData Search patches. For example \, If I have ~/Documents/Pd/pd-ji/pd-ji.py you can use py4pd -lib pd-ji to load the library., f 66;
#X text 96 83 Freqs in Hz.;
#X obj 15 246 dac~;
#X text 104 187 The Python objects do not support Help Patches yet! But inside both libraries there is some Helps patches.;
#X text 103 142 I already upload some Python Libraries for py4pd. Go to Help->Find Externals then "pd-ji" or "orchidea".;
#X obj 10 7 py4pd -lib py;
#X msg 92 122 0.1 0.1 0.1 0.1;
#X obj 15 167 snake~ out 4;
#X obj 15 146 sinusoids~ -ch 4;
#X text 263 69 !!! Start dsp!;
#X obj 229 69 tgl 25 0 empty empty empty 0 -8 0 8 #fcfcfc #ff0400 #000000 0 1;
#X msg 15 83 200 230 310 370;
#X obj 54 246 vu 8 80 empty empty -1 -8 0 8 #404040 #000000 0 0;
#N canvas 329 161 625 417 vu 0;
#X obj 59 129 env~ 1024;
#X obj 161 111 abs~;
#X obj 161 213 snapshot~;
#X obj 161 256 rmstodb;
#X obj 161 21 inlet~;
#X obj 161 288 - 100;
#X obj 59 287 - 100;
#X obj 59 361 outlet;
#X obj 161 361 outlet;
#X text 344 307 Check the help file of env~ and slop~ for more details., f 31;
#X obj 239 89 expr 1000 / $f1;
#X floatatom 239 117 5 0 0 0 - - - 0;
#X obj 161 146 slop~ 0 0 0 0 1e+09;
#X obj 239 18 inlet;
#X floatatom 239 57 5 0 0 0 - - - 0;
#X text 359 89 convert to hz;
#X text 282 118 hz;
#X text 284 57 peak decay time in ms;
#X obj 59 171 t f b;
#X text 345 132 The env~ object is dedicated to RMS analysis. Its output is in dB (0-100 range \, pd style) but needs to be converted to dBFS (and we do that by simply subtracting 100)., f 31;
#X text 345 225 The slop~ object is used here for peak detection. We need to convert the output to dB with rmstodb and also subtract by 100 to convert it to dBFS., f 31;
#X connect 0 0 18 0;
#X connect 1 0 12 0;
#X connect 2 0 3 0;
#X connect 3 0 5 0;
#X connect 4 0 0 0;
#X connect 4 0 1 0;
#X connect 5 0 8 0;
#X connect 6 0 7 0;
#X connect 10 0 11 0;
#X connect 11 0 12 3;
#X connect 12 0 2 0;
#X connect 13 0 14 0;
#X connect 14 0 10 0;
#X connect 18 0 6 0;
#X connect 18 1 2 0;
#X restore 53 218 pd vu;
#X obj 229 104 switch~;
#X connect 6 0 8 1;
#X connect 7 0 2 0;
#X connect 7 0 13 0;
#X connect 7 1 2 1;
#X connect 7 2 2 0;
#X connect 7 2 13 0;
#X connect 7 3 2 1;
#X connect 8 0 7 0;
#X connect 10 0 14 0;
#X connect 11 0 8 0;
#X connect 13 0 12 0;
#X restore 340 9 pd audioLibraries;
#X obj 9 9 py4pd -lib py4pd;
#X obj 10 181 py4pd.libs;
#X text 82 42 See all the py4pd libraries.;
#X msg 10 43 libraries;
#X text 182 80 Install py4pd-score.;
#X text 470 8 <= Example;
#X obj 340 199 py4pd;
#X msg 340 176 pip install requests;
#X msg 51 81 install py4pd-upic;
#X msg 75 113 install orchidea;
#X msg 94 144 install py4pd-ji;
#X text 470 38 <= Example;
#N canvas 30 68 422 336 py4pd 0;
#X text 83 6 <= Load the library of the script called py.py. The script must be located in the patch folder or inside one folder with same of the script that are in the PureData Search patches. For example \, If I have ~/Documents/Pd/pd-ji/pd-ji.py you can use py4pd -lib pd-ji to load the library., f 66;
#X text 96 83 Freqs in Hz.;
#X obj 15 246 dac~;
#X text 104 187 The Python objects do not support Help Patches yet! But inside both libraries there is some Helps patches.;
#X text 103 142 I already upload some Python Libraries for py4pd. Go to Help->Find Externals then "pd-ji" or "orchidea".;
#X obj 10 7 py4pd -lib py;
#X msg 92 122 0.1 0.1 0.1 0.1;
#X obj 15 167 snake~ out 4;
#X obj 15 146 sinusoids~ -ch 4;
#X text 263 69 !!! Start dsp!;
#X obj 229 69 tgl 25 0 empty empty empty 0 -8 0 8 #fcfcfc #ff0400 #000000 0 1;
#X msg 15 83 200 230 310 370;
#X obj 54 246 vu 8 80 empty empty -1 -8 0 8 #404040 #000000 0 0;
#N canvas 329 161 625 417 vu 0;
#X obj 59 129 env~ 1024;
#X obj 161 111 abs~;
#X obj 161 213 snapshot~;
#X obj 161 256 rmstodb;
#X obj 161 21 inlet~;
#X obj 161 288 - 100;
#X obj 59 287 - 100;
#X obj 59 361 outlet;
#X obj 161 361 outlet;
#X text 344 307 Check the help file of env~ and slop~ for more details., f 31;
#X obj 239 89 expr 1000 / $f1;
#X floatatom 239 117 5 0 0 0 - - - 0;
#X obj 161 146 slop~ 0 0 0 0 1e+09;
#X obj 239 18 inlet;
#X floatatom 239 57 5 0 0 0 - - - 0;
#X text 359 89 convert to hz;
#X text 282 118 hz;
#X text 284 57 peak decay time in ms;
#X obj 59 171 t f b;
#X text 345 132 The env~ object is dedicated to RMS analysis. Its output is in dB (0-100 range \, pd style) but needs to be converted to dBFS (and we do that by simply subtracting 100)., f 31;
#X text 345 225 The slop~ object is used here for peak detection. We need to convert the output to dB with rmstodb and also subtract by 100 to convert it to dBFS., f 31;
#X connect 0 0 18 0;
#X connect 1 0 12 0;
#X connect 2 0 3 0;
#X connect 3 0 5 0;
#X connect 4 0 0 0;
#X connect 4 0 1 0;
#X connect 5 0 8 0;
#X connect 6 0 7 0;
#X connect 10 0 11 0;
#X connect 11 0 12 3;
#X connect 12 0 2 0;
#X connect 13 0 14 0;
#X connect 14 0 10 0;
#X connect 18 0 6 0;
#X connect 18 1 2 0;
#X restore 53 218 pd vu;
#X obj 229 104 switch~;
#X connect 6 0 8 1;
#X connect 7 0 2 0;
#X connect 7 0 13 0;
#X connect 7 1 2 1;
#X connect 7 2 2 0;
#X connect 7 2 13 0;
#X connect 7 3 2 1;
#X connect 8 0 7 0;
#X connect 10 0 14 0;
#X connect 11 0 8 0;
#X connect 13 0 12 0;
#X restore 340 39 pd py4pd;
#X connect 4 0 2 0;
#X connect 8 0 7 0;
#X connect 9 0 2 0;
#X connect 10 0 2 0;
#X connect 11 0 2 0;
#X restore 11 290 pd Libraries;
#X text 100 289 <= Share your Python code as pd objects.;
#X text 158 253 <= Interact with Python from PureData.;
#X text 42 150 <= Click to open the script.;
#X text 148 68 3 Run the function.;
#X text 85 42 2 See the docs of the function.;
#X text 123 16 1 Load function.;
#X obj 111 93 r py4pd;
#X msg 411 65 YOU NEED TO INSTALL PYTHON3.11;
#X obj 13 151 py4pd;
#X text 412 186 IMPORTANT: This is just simple example \, the exaustive Docs are avaible in https://charlesneimog.github.io/py4pd;
#X obj 412 286 py4pd;
#X msg 412 257 pip install numpy;
#X text 535 256 <= See an error related with numpy \, click here!, f 30;
#N canvas 496 32 464 252 pip 0;
#X text 5 4 I will try to implement pip as it works in a cmd-line. We use the method [pip] to install and set all the configs for the py4pd enviroment., f 78;
#X obj 9 108 py4pd;
#X msg 9 81 pip install numpy;
#N canvas 0 50 450 250 (subpatch) 0;
#X coords 0 1 100 -1 112 52 1;
#X restore 4 77 graph;
#X obj 22 220 py4pd;
#X msg 46 169 pip install numpy;
#N canvas 0 50 450 250 (subpatch) 0;
#X coords 0 1 100 -1 139 101 1;
#X restore 4 139 graph;
#X msg 22 145 pip target local;
#X text 4 145 1;
#X text 33 168 2;
#X text 122 75 This install numpy inside py4pd/resources/py-modules. This is a global installation (is the default). [pip target global], f 61;
#X text 148 136 This install numpy inside [THIS-PATCH-FOLDER]/py-modules;
#X text 146 164 IMPORTANT: If you want to use packages of different versions \, do NOT install these packages using global installation. Always send [pip target local] to the py4pd object you will use to send [pip install MY-PACKAGE]. If you install different versions globally and install diferent versions locally it will lead to undefined behaviors., f 61;
#X connect 2 0 1 0;
#X connect 5 0 4 0;
#X connect 7 0 4 0;
#X restore 11 330 pd pip;
#X text 76 329 <= About pip and separeted version.;
#X obj 13 171 nbx 4 18 -1e+37 1e+37 0 0 empty empty empty 0 -8 0 10 #e4e4e4 #373737 #373737 0 256;
#X connect 0 0 23 0;
#X connect 5 0 23 0;
#X connect 6 0 23 0;
#X connect 21 0 23 0;
#X connect 23 0 30 0;
#X connect 26 0 25 0;
#X connect 30 0 2 0;
