#N canvas 868 169 826 640 8;
#X text 1 2 Welcome to the py4pd documentation!;
#X text 1 21 py4pd allows the use of Python as an object in PureData. It is similar to py/pyext \, but is simpler to keep up to date \, use modules \, use lists \, and other things.;
#X text 1 63 With Python as an object \, you can see scores inside PureData \, work with AI \, lot of Audio Analysis tools \, use svg/draws as scores \, and OpenMusic functions in libraries like om_py \, music21 \, neoscore \, and others \;;
#X obj 4 144 py4pd;
#X text 55 142 IMPORTANT: If this object not work \, Python it is not installed in your system. You can install it following the steps in this website: https://www.charlesneimog.com/py4pd/setup/;
#X obj 3 241 bng 20 250 50 0 mac empty empty 0 -10 0 12 #fcfcfc #000000 #000000;
#X obj 3 266 bng 20 250 50 0 windows empty empty 0 -10 0 12 #fcfcfc #000000 #000000;
#X obj 3 291 bng 20 250 50 0 linux empty empty 0 -10 0 12 #fcfcfc #000000 #000000;
#X text 27 292 Click on this bang for Linux;
#N canvas 0 0 1375 516 links 1;
#X obj 47 189 pdcontrol;
#X obj 36 8 r mac;
#X obj 120 8 r windows;
#X obj 228 9 r linux;
#X msg 36 58 browse https://www.python.org/downloads/release/python-31011;
#X msg 229 97 browse https://www.charlesneimog.com/py4pd/setup/#install-python;
#X connect 1 0 4 0;
#X connect 2 0 4 0;
#X connect 3 0 5 0;
#X connect 4 0 0 0;
#X connect 5 0 0 0;
#X restore 3 220 pd links;
#X text 27 241 Click on this bang for MacOS | Go to the bottom of page.;
#X text 27 267 Click on this bang for Windows | Go to the bottom of page.;
