#N canvas 804 163 813 565 8;
#X obj 12 8 py4pd -lib main;
#X obj 12 132 dac~;
#X obj 92 59 hsl 80 10 0 0.3 0 0 empty empty empty -2 -8 0 8 #fcfcfc #000000 #000000 0 1;
#X obj 89 74 nbx 5 14 -1e+37 1e+37 0 0 empty empty empty 0 -8 0 8 #fcfcfc #000000 #000000 0 256;
#X text 175 55 <= Gain.;
#X obj 12 98 audio;
#X obj 12 62 osc~ 440;
#X connect 2 0 3 0;
#X connect 3 0 5 1;
#X connect 5 0 1 0;
#X connect 5 0 1 1;
#X connect 6 0 5 0;
