#N canvas 963 28 951 1012 10;
#X obj 5 44 py4pd myscript mysum;
#X obj 5 66 nbx 5 16 -1e+37 1e+37 0 0 empty empty empty 0 -9 0 10 #fcfcfc #000000 #000000 0 256;
#X msg 5 19 run 2 2;
#X obj 146 44 py4pd myscript mysum;
#X obj 146 66 nbx 9 16 -1e+37 1e+37 0 0 empty empty empty 0 -9 0 10 #fcfcfc #000000 #000000 0 256;
#X msg 146 19 run 100000 1997;
#X obj 6 227 nbx 5 16 -1e+37 1e+37 0 0 empty empty empty 0 -9 0 10 #fcfcfc #000000 #000000 0 256;
#X msg 6 180 run [1 2 3 4 5 6 7];
#X obj 162 227 nbx 5 16 -1e+37 1e+37 0 0 empty empty empty 0 -9 0 10 #fcfcfc #000000 #000000 0 256;
#X msg 162 180 run [100 453 547];
#X obj 162 205 py4pd myscript mylistsum;
#X obj 6 205 py4pd myscript mylistsum;
#X connect 0 0 1 0;
#X connect 2 0 0 0;
#X connect 3 0 4 0;
#X connect 5 0 3 0;
#X connect 7 0 11 0;
#X connect 9 0 10 0;
#X connect 10 0 8 0;
#X connect 11 0 6 0;
