#N canvas 809 304 890 449 12;
#X obj 39 137 py4pd;
#X msg 39 30 set choral cknnote;
#X msg 200 69 set py function1;
#X obj 39 175 print;
#X msg 195 30 args C2 300;
#X connect 0 0 3 0;
#X connect 1 0 0 0;
#X connect 2 0 0 0;
#X connect 4 0 0 0;
