#N canvas 560 78 784 507 8;
#X msg 44 14 pip install numpy;
#X obj 44 39 py4pd;
#X obj 45 201 py4pd py pdsum;
#X msg 45 169 run 2 2;
#X obj 189 14 py4pd -lib py;
#X obj 44 127 py4pd;
#X msg 44 71 create myscript;
#X msg 71 95 open myscript;
#X obj 172 69 tgl 15 0 empty empty empty 0 -8 0 8 #fcfcfc #000000 #000000 0 1;
#X msg 172 89 pointers \$1;
#X obj 172 144 py4pd py pdsum;
#X msg 195 116 run 50 20;
#X obj 172 165 else/display;
#X obj 273 68 tgl 15 0 empty empty empty 0 -8 0 8 #fcfcfc #000000 #000000 0 1;
#X msg 273 88 pointers \$1;
#X obj 273 143 py4pd py pdsum;
#X msg 296 115 run 50 20;
#X obj 273 164 else/display;
#X connect 0 0 1 0;
#X connect 3 0 2 0;
#X connect 6 0 5 0;
#X connect 7 0 5 0;
#X connect 8 0 9 0;
#X connect 9 0 10 0;
#X connect 10 0 12 0;
#X connect 11 0 10 0;
#X connect 13 0 14 0;
#X connect 14 0 15 0;
#X connect 15 0 17 0;
#X connect 16 0 15 0;
