#N canvas 529 123 450 300 8;
#X obj 7 112 py4pd myscript myfunction;
#X msg 7 17 run;
#X msg 20 38 run 1 2 3;
#X msg 32 58 run [1 2 3] [5 6 7];
#X msg 44 78 run 1 [5 6 7];
#X connect 1 0 0 0;
#X connect 2 0 0 0;
#X connect 3 0 0 0;
#X connect 4 0 0 0;
