#N canvas 963 23 951 1016 8;
#X declare -path mem;
#X obj 8 6 py4pd -lib py4pd;
#X obj 10 48 bng 25 250 50 0 empty empty empty 0 -8 0 8 #fcfcfc #000000 #000000;
#X obj 10 28 r start-test;
#X obj 562 120 nbx 5 14 -1e+37 1e+37 0 0 empty empty empty 0 -8 0 8 #fcfcfc #000000 #000000 0 256;
#X obj 562 99 py.memuse;
#X obj 562 139 s mem;
#X obj 10 79 t b b b b b b b b, f 111;
#X obj 99 6 py4pd -lib py;
#X obj 220 6 declare -path mem;
#X obj 89 101 problem1;
#X obj 167 102 problem2;
#X obj 246 100 problem3;
#N canvas 1282 23 632 1016 Memory-Leaks 0;
#X obj 7 101 nbx 5 14 -1e+37 1e+37 0 0 empty empty empty 0 -8 0 8 #fcfcfc #000000 #000000 0 256;
#X obj 7 136 list;
#X obj 24 117 r mem;
#X obj 7 80 py.memuse;
#X obj 7 177 expr if(($f1 - $f2) < 3 \, 1 \, 0);
#X obj 31 216 sel 0 1;
#X obj 31 284 print ERROR;
#X msg 7 325 \; pd quit;
#X obj 7 196 t b f;
#X obj 7 303 delay 40 1 msec;
#X obj 7 155 t l l, f 21;
#X obj 31 259 list, f 19;
#X obj 7 44 r done;
#X obj 47 235 print PY4PDPASS;
#X connect 0 0 1 0;
#X connect 1 0 10 0;
#X connect 2 0 1 1;
#X connect 3 0 0 0;
#X connect 4 0 8 0;
#X connect 5 0 11 0;
#X connect 5 1 13 0;
#X connect 8 0 9 0;
#X connect 8 1 5 0;
#X connect 9 0 7 0;
#X connect 10 0 4 0;
#X connect 10 1 11 1;
#X connect 11 0 6 0;
#X connect 12 0 3 0;
#X restore 4 122 pd Memory-Leaks;
#X obj 89 353 s done;
#X obj 390 204 tgl 15 0 empty empty empty 0 -8 0 8 #fcfcfc #000000 #000000 0 1;
#X obj 288 228 tgl 15 0 empty empty empty 0 -8 0 8 #fcfcfc #000000 #000000 0 1;
#X obj 89 122 tgl 15 0 empty empty empty 0 -8 0 8 #fcfcfc #000000 #000000 0 1;
#X obj 167 123 t b f;
#X obj 246 122 t b f;
#X obj 200 185 b;
#X listbox 89 283 20 0 0 0 - - - 0;
#X obj 89 303 expr $f1 + $f2 + $f3;
#X obj 89 324 sel 3;
#X obj 89 262 pack f f f, f 80;
#X obj 583 45 bng 15 250 50 0 empty empty empty 0 -8 0 8 #fcfcfc #000000 #000000;
#X obj 303 45 bng 15 250 50 0 empty empty empty 0 -8 0 8 #fcfcfc #000000 #000000;
#X obj 197 39 bng 15 250 50 0 empty empty empty 0 -8 0 8 #fcfcfc #000000 #000000;
#X obj 98 34 bng 15 250 50 0 empty empty empty 0 -8 0 8 #fcfcfc #000000 #000000;
#X connect 1 0 6 0;
#X connect 2 0 1 0;
#X connect 3 0 5 0;
#X connect 4 0 3 0;
#X connect 6 1 9 0;
#X connect 6 2 10 0;
#X connect 6 3 11 0;
#X connect 6 7 4 0;
#X connect 9 0 16 0;
#X connect 10 0 17 0;
#X connect 11 0 18 0;
#X connect 14 0 23 2;
#X connect 15 0 23 1;
#X connect 16 0 23 0;
#X connect 17 0 19 0;
#X connect 17 1 15 0;
#X connect 18 0 19 0;
#X connect 18 1 14 0;
#X connect 19 0 23 0;
#X connect 20 0 21 0;
#X connect 21 0 22 0;
#X connect 22 0 13 0;
#X connect 23 0 20 0;
#X connect 24 0 4 0;
#X connect 25 0 11 0;
#X connect 26 0 10 0;
#X connect 27 0 9 0;
