#N canvas 693 32 1081 825 8;
#X obj 12 7 py4pd -lib py;
#X obj 135 7 r start-test;
#X msg 211 54 \; pd dsp 1;
#X obj 135 35 t b b b, f 31;
#X obj 204 7 bng 15 250 50 0 empty empty empty 0 -8 0 8 #fcfcfc #000000 #000000;
#X obj 12 25 py4pd -lib py4pd;
#X obj 407 161 py.memuse;
#X obj 407 182 nbx 5 14 -1e+37 1e+37 0 0 empty empty empty 0 -8 0 8 #fcfcfc #000000 #000000 0 256;
#X obj 287 137 metro 1000;
#X obj 287 181 py.memuse;
#X obj 287 202 nbx 5 14 -1e+37 1e+37 0 0 empty empty empty 0 -8 0 8 #fcfcfc #000000 #000000 0 256;
#X obj 287 234 expr if(($f1 - $f2) < 3 \, 1 \, 0);
#X obj 287 255 tgl 15 0 empty empty empty 0 -8 0 8 #fcfcfc #000000 #000000 0 1;
#X obj 287 60 t b b b, f 32;
#X obj 250 273 f, f 8;
#X obj 444 110 s pass;
#X obj 250 234 r pass;
#X obj 307 22 bng 15 250 50 0 empty empty empty 0 -8 0 8 #fcfcfc #000000 #000000;
#X obj 328 318 sel 1 0;
#X obj 344 336 print ERROR;
#X msg 250 373 \; pd quit;
#X obj 7 91 osc~ 300;
#X obj 104 91 osc~ 500;
#X obj 55 91 osc~ 400;
#X obj 7 112 snake~ in 3, f 20;
#X obj 7 158 audioin~ -ch 3;
#X msg 132 118 reload;
#X obj 407 141 del 1 1 sec;
#X obj 328 354 print PY4PDPASS;
#X obj 407 97 bng 15 250 50 0 empty empty empty 0 -8 0 8 #fcfcfc #000000 #000000;
#X obj 250 294 t b f b, f 32;
#X obj 411 354 s stop;
#X listbox 7 179 20 0 0 0 - - - 0;
#X obj 444 89 del 5 1 sec;
#X connect 1 0 3 0;
#X connect 3 1 2 0;
#X connect 3 2 13 0;
#X connect 4 0 3 0;
#X connect 6 0 7 0;
#X connect 7 0 11 1;
#X connect 8 0 9 0;
#X connect 9 0 10 0;
#X connect 10 0 11 0;
#X connect 11 0 12 0;
#X connect 12 0 14 1;
#X connect 13 0 8 0;
#X connect 13 1 27 0;
#X connect 13 2 33 0;
#X connect 14 0 30 0;
#X connect 16 0 14 0;
#X connect 17 0 13 0;
#X connect 18 0 28 0;
#X connect 18 1 19 0;
#X connect 21 0 24 0;
#X connect 22 0 24 2;
#X connect 23 0 24 1;
#X connect 24 0 25 0;
#X connect 25 0 32 0;
#X connect 26 0 25 0;
#X connect 27 0 6 0;
#X connect 29 0 27 0;
#X connect 30 0 20 0;
#X connect 30 1 18 0;
#X connect 30 2 31 0;
#X connect 33 0 15 0;
