#N canvas 692 -20 1081 961 8;
#X obj 12 7 py4pd -lib py;
#X obj 135 7 r start-test;
#X msg 211 54 \; pd dsp 1;
#X obj 135 35 t b b b, f 31;
#X obj 204 7 bng 15 250 50 0 empty empty empty 0 -8 0 8 #fcfcfc #000000 #000000;
#X obj 12 25 py4pd -lib py4pd;
#X obj 6 289 dac~, f 23;
#X obj 6 65 t b b, f 20;
#X obj 407 161 py.memuse;
#X obj 407 182 nbx 5 14 -1e+37 1e+37 0 0 empty empty empty 0 -8 0 8 #fcfcfc #000000 #000000 0 256;
#X obj 6 186 snake~ out 10, f 23;
#X obj 6 132 sinusoids~ -ch 10;
#X msg 103 104 1 1 1 1 1 1 1 1 1 1;
#X obj 6 158 /~ 40;
#X obj 287 137 metro 1000;
#X obj 287 181 py.memuse;
#X obj 287 202 nbx 5 14 -1e+37 1e+37 0 0 empty empty empty 0 -8 0 8 #fcfcfc #000000 #000000 0 256;
#X obj 287 234 expr if(($f1 - $f2) < 3 \, 1 \, 0);
#X obj 287 255 tgl 15 0 empty empty empty 0 -8 0 8 #fcfcfc #000000 #000000 0 1;
#X obj 287 60 t b b b, f 32;
#X obj 250 273 f, f 8;
#X obj 444 110 s pass;
#X obj 250 234 r pass;
#X obj 307 22 bng 15 250 50 0 empty empty empty 0 -8 0 8 #fcfcfc #000000 #000000;
#X obj 272 315 sel 1 0;
#X obj 288 368 print ERROR;
#X msg 250 441 \; pd quit;
#X obj 366 90 del 1 1 sec;
#X obj 317 315 list;
#X obj 288 345 list;
#X obj 321 273 bng 15 250 50 0 empty empty empty 0 -8 0 8 #fcfcfc #000000 #000000;
#X obj 300 95 bng 25 250 50 0 empty empty empty 0 -13 0 8 #fcfcfc #000000 #000000;
#X obj 417 125 bng 15 250 50 0 empty empty empty 0 -8 0 8 #fcfcfc #000000 #000000;
#X msg 6 83 160 240 360 410 530 600 700 800 950 1000;
#X obj 272 394 print PY4PDPASS;
#N canvas 46 227 699 564 audio-output 0;
#X obj 194 24 r record;
#X obj 228 89 getTestId;
#X obj 246 61 bng 15 250 50 0 empty empty empty 0 -8 0 8 #fcfcfc #000000 #000000;
#X obj 228 110 symbol;
#X obj 194 45 t b b;
#X msg 194 89 start;
#X msg 213 210 stop;
#X obj 213 189 r stop;
#X obj 23 11 inlet~;
#X msg 228 136 open TEST14-\$1.wav;
#X obj 23 251 writesf~ 2, f 23;
#X obj 23 105 snake~ out 10, f 23;
#X obj 23 77 /~ 40;
#X connect 0 0 4 0;
#X connect 1 0 3 0;
#X connect 2 0 1 0;
#X connect 3 0 9 0;
#X connect 4 0 5 0;
#X connect 4 1 1 0;
#X connect 5 0 10 0;
#X connect 6 0 10 0;
#X connect 7 0 6 0;
#X connect 8 0 12 0;
#X connect 9 0 10 0;
#X connect 11 0 10 0;
#X connect 11 1 10 1;
#X connect 11 2 10 0;
#X connect 11 3 10 1;
#X connect 11 4 10 0;
#X connect 11 5 10 1;
#X connect 11 6 10 0;
#X connect 11 7 10 1;
#X connect 11 8 10 0;
#X connect 11 9 10 1;
#X connect 12 0 11 0;
#X restore 46 158 pd audio-output;
#X obj 250 294 t b f b;
#X obj 359 315 s stop;
#X obj 135 56 s record;
#X obj 444 89 del 5 1 sec;
#X connect 1 0 3 0;
#X connect 3 0 7 0;
#X connect 3 0 38 0;
#X connect 3 1 2 0;
#X connect 3 2 19 0;
#X connect 4 0 3 0;
#X connect 7 0 33 0;
#X connect 7 1 12 0;
#X connect 8 0 9 0;
#X connect 9 0 17 1;
#X connect 9 0 28 1;
#X connect 10 0 6 0;
#X connect 10 1 6 1;
#X connect 10 2 6 0;
#X connect 10 3 6 1;
#X connect 10 4 6 0;
#X connect 10 5 6 1;
#X connect 10 6 6 0;
#X connect 10 7 6 0;
#X connect 10 8 6 1;
#X connect 10 9 6 0;
#X connect 11 0 13 0;
#X connect 11 0 35 0;
#X connect 12 0 11 1;
#X connect 13 0 10 0;
#X connect 14 0 15 0;
#X connect 15 0 16 0;
#X connect 16 0 17 0;
#X connect 16 0 28 0;
#X connect 17 0 18 0;
#X connect 18 0 20 1;
#X connect 19 0 14 0;
#X connect 19 1 27 0;
#X connect 19 2 39 0;
#X connect 20 0 36 0;
#X connect 22 0 20 0;
#X connect 23 0 19 0;
#X connect 24 0 34 0;
#X connect 24 1 29 0;
#X connect 27 0 8 0;
#X connect 28 0 29 1;
#X connect 29 0 25 0;
#X connect 30 0 29 0;
#X connect 31 0 14 0;
#X connect 32 0 8 0;
#X connect 33 0 11 0;
#X connect 36 0 26 0;
#X connect 36 1 24 0;
#X connect 36 2 37 0;
#X connect 39 0 21 0;
