#N canvas 703 33 1032 856 8;
#X obj 427 4 py4pd -lib py4pd;
#X obj 3 5 r start-test;
#X obj 72 5 bng 15 250 50 0 empty empty empty 0 -8 0 8 #fcfcfc #000000 #000000;
#X obj 180 173 sel 1 0;
#X obj 196 192 print ERROR;
#X msg 138 228 \; pd quit;
#X obj 180 210 print PY4PDPASS;
#X obj 138 154 t b f, f 9;
#N canvas 640 150 849 707 pd.get_args 0;
#X msg 7 54 32;
#X obj 7 16 inlet;
#X obj 7 111 py.nth None 0;
#X obj 7 132 py2pd;
#X obj 7 155 sel 243;
#X obj 7 90 py.listcomp [243 \, [random.randint(10 \, 400) for _ in range(in1)]] -a 1, f 72;
#X msg 7 176 1;
#X obj 7 197 outlet;
#X connect 0 0 5 0;
#X connect 1 0 0 0;
#X connect 2 0 3 0;
#X connect 3 0 4 0;
#X connect 4 0 6 0;
#X connect 5 0 2 0;
#X connect 6 0 7 0;
#X restore 3 36 pd pd.get_args;
#X obj 353 4 py4pd -lib py;
#N canvas 421 15 786 930 out 0;
#X obj 7 4 inlet;
#X obj 7 107 t b b, f 9;
#X msg 7 127 10;
#X obj 7 205 sel 0;
#X obj 60 205 sel 1;
#X obj 113 205 sel 2;
#X obj 166 205 sel 3;
#X obj 219 205 sel 4;
#X obj 7 226 int, f 5;
#X obj 7 247 + 1;
#X obj 7 268 nbx 5 14 -1e+37 1e+37 0 0 empty empty empty 0 -8 0 8 #fcfcfc #000000 #000000 0 256;
#X obj 60 226 int, f 5;
#X obj 60 247 + 1;
#X obj 60 268 nbx 5 14 -1e+37 1e+37 0 0 empty empty empty 0 -8 0 8 #fcfcfc #000000 #000000 0 256;
#X obj 113 225 int, f 5;
#X obj 113 246 + 1;
#X obj 113 267 nbx 5 14 -1e+37 1e+37 0 0 empty empty empty 0 -8 0 8 #fcfcfc #000000 #000000 0 256;
#X obj 166 225 int, f 5;
#X obj 166 246 + 1;
#X obj 166 267 nbx 5 14 -1e+37 1e+37 0 0 empty empty empty 0 -8 0 8 #fcfcfc #000000 #000000 0 256;
#X obj 219 227 int, f 5;
#X obj 219 248 + 1;
#X obj 219 269 nbx 5 14 -1e+37 1e+37 0 0 empty empty empty 0 -8 0 8 #fcfcfc #000000 #000000 0 256;
#X msg 49 127 5;
#X obj 7 157 pd.out, f 43;
#X obj 7 313 sel 2;
#X obj 7 334 int;
#X obj 7 355 + 1;
#X obj 7 376 nbx 5 14 -1e+37 1e+37 0 0 empty empty empty 0 -8 0 8 #fcfcfc #000000 #000000 0 256;
#X obj 7 395 sel 5;
#X msg 7 416 1;
#X obj 7 437 outlet;
#X obj 7 25 sel 1;
#X connect 0 0 32 0;
#X connect 1 0 2 0;
#X connect 1 1 23 0;
#X connect 2 0 24 0;
#X connect 3 0 8 0;
#X connect 4 0 11 0;
#X connect 5 0 14 0;
#X connect 6 0 17 0;
#X connect 7 0 20 0;
#X connect 8 0 9 0;
#X connect 9 0 8 1;
#X connect 9 0 10 0;
#X connect 10 0 25 0;
#X connect 11 0 12 0;
#X connect 12 0 11 1;
#X connect 12 0 13 0;
#X connect 13 0 25 0;
#X connect 14 0 15 0;
#X connect 15 0 16 0;
#X connect 15 0 14 1;
#X connect 16 0 25 0;
#X connect 17 0 18 0;
#X connect 18 0 17 1;
#X connect 18 0 19 0;
#X connect 19 0 25 0;
#X connect 20 0 21 0;
#X connect 21 0 20 1;
#X connect 21 0 22 0;
#X connect 22 0 25 0;
#X connect 23 0 24 0;
#X connect 24 0 3 0;
#X connect 24 1 4 0;
#X connect 24 2 5 0;
#X connect 24 3 6 0;
#X connect 24 4 7 0;
#X connect 25 0 26 0;
#X connect 26 0 27 0;
#X connect 27 0 26 1;
#X connect 27 0 28 0;
#X connect 28 0 29 0;
#X connect 29 0 30 0;
#X connect 30 0 31 0;
#X connect 32 0 1 0;
#X restore 3 73 pd out;
#N canvas 348 204 450 387 get_patch_dir 0;
#X obj 7 3 inlet;
#X msg 7 53 get_patch_dir;
#X obj 7 95 route -1;
#X obj 7 116 print;
#X obj 44 168 outlet;
#X msg 44 146 1;
#X obj 7 24 sel 1;
#X obj 7 74 pd-mod;
#X connect 0 0 6 0;
#X connect 1 0 7 0;
#X connect 2 0 3 0;
#X connect 2 1 5 0;
#X connect 5 0 4 0;
#X connect 6 0 1 0;
#X connect 7 0 2 0;
#X restore 3 55 pd get_patch_dir;
#N canvas 580 116 450 427 get_vec_size 0;
#X obj 7 4 inlet;
#X obj 7 25 sel 1;
#X msg 7 46 get_vec_size;
#X obj 7 83 pd-mod;
#X msg 81 45 reload;
#X obj 7 104 nbx 5 14 -1e+37 1e+37 0 0 empty empty empty 0 -8 0 8 #fcfcfc #000000 #000000 0 256;
#X obj 132 86 block~ 64;
#X obj 7 123 sel 64;
#X obj 7 185 outlet;
#X msg 7 144 1;
#X connect 0 0 1 0;
#X connect 1 0 2 0;
#X connect 2 0 3 0;
#X connect 3 0 5 0;
#X connect 4 0 3 0;
#X connect 5 0 7 0;
#X connect 7 0 9 0;
#X connect 9 0 8 0;
#X restore 3 91 pd get_vec_size;
#X f 19;
#N canvas 580 116 450 496 get_py4pd_dir 0;
#X obj 7 4 inlet;
#X obj 7 25 sel 1;
#X obj 7 83 pd-mod;
#X msg 84 46 reload;
#X obj 132 86 block~ 64;
#X msg 7 46 get_py4pd_dir;
#X obj 7 112 route -1, f 18;
#X obj 7 133 sel -1;
#X obj 7 154 print ERROR;
#X obj 94 185 outlet;
#X msg 94 147 1;
#X connect 0 0 1 0;
#X connect 1 0 5 0;
#X connect 2 0 6 0;
#X connect 3 0 2 0;
#X connect 5 0 2 0;
#X connect 6 0 7 0;
#X connect 6 1 10 0;
#X connect 7 0 8 0;
#X connect 10 0 9 0;
#X restore 3 110 pd get_py4pd_dir;
#X f 19;
#N canvas 547 210 450 496 tabwrite 0;
#X obj 7 4 inlet;
#X obj 7 25 sel 1;
#X obj 7 83 pd-mod;
#X msg 84 46 reload;
#X obj 132 86 block~ 64;
#X obj 7 112 route -1, f 18;
#X obj 7 133 sel -1;
#X obj 7 154 print ERROR;
#X obj 94 185 outlet;
#X msg 94 147 1;
#X msg 7 46 tabwrite;
#X connect 0 0 1 0;
#X connect 1 0 10 0;
#X connect 2 0 5 0;
#X connect 3 0 2 0;
#X connect 5 0 6 0;
#X connect 5 1 9 0;
#X connect 6 0 7 0;
#X connect 9 0 8 0;
#X connect 10 0 2 0;
#X restore 3 130 pd tabwrite;
#X f 19;
#N canvas 0 50 450 250 (subpatch) 0;
#X array pd-test 5 float 3;
#A 0 10 20 30 40 50;
#X coords 0 100 5 -100 200 40 1 0 0;
#X restore 100 20 graph;
#N canvas 547 210 385 404 tabread 0;
#X obj 7 4 inlet;
#X obj 7 25 sel 1;
#X obj 7 83 pd-mod;
#X msg 55 46 reload;
#X obj 52 110 block~ 64;
#X obj 7 130 route -1, f 18;
#X obj 7 179 print ERROR;
#X obj 94 178 outlet;
#X msg 94 155 1;
#X msg 7 46 tabread;
#X connect 0 0 1 0;
#X connect 1 0 9 0;
#X connect 2 0 5 0;
#X connect 3 0 2 0;
#X connect 5 0 6 0;
#X connect 5 1 8 0;
#X connect 8 0 7 0;
#X connect 9 0 2 0;
#X restore 3 149 pd tabread;
#X f 19;
#N canvas 547 210 385 404 print 0;
#X obj 7 4 inlet;
#X obj 7 25 sel 1;
#X obj 7 83 pd-mod;
#X msg 55 46 reload;
#X obj 7 130 route -1, f 18;
#X obj 7 179 print ERROR;
#X obj 94 178 outlet;
#X msg 94 155 1;
#X msg 7 46 print;
#X obj 18 105 print;
#X connect 0 0 1 0;
#X connect 1 0 8 0;
#X connect 2 0 4 0;
#X connect 2 0 9 0;
#X connect 3 0 2 0;
#X connect 4 0 5 0;
#X connect 4 1 7 0;
#X connect 7 0 6 0;
#X connect 8 0 2 0;
#X restore 3 168 pd print;
#X f 19;
#N canvas 547 210 385 404 logpost 0;
#X obj 7 4 inlet;
#X obj 7 25 sel 1;
#X obj 7 83 pd-mod;
#X msg 55 46 reload;
#X obj 7 130 route -1, f 18;
#X obj 7 179 print ERROR;
#X obj 94 178 outlet;
#X msg 94 155 1;
#X obj 18 105 print;
#X msg 7 46 logpost;
#X connect 0 0 1 0;
#X connect 1 0 9 0;
#X connect 2 0 4 0;
#X connect 2 0 8 0;
#X connect 3 0 2 0;
#X connect 4 0 5 0;
#X connect 4 1 7 0;
#X connect 7 0 6 0;
#X connect 9 0 2 0;
#X restore 3 188 pd logpost;
#X f 19;
#N canvas 547 210 385 404 error 0;
#X obj 7 4 inlet;
#X obj 7 25 sel 1;
#X obj 7 83 pd-mod;
#X obj 7 130 route -1, f 18;
#X obj 7 179 print ERROR;
#X obj 94 178 outlet;
#X msg 94 155 1;
#X msg 7 46 error;
#X msg 56 50 reload;
#X connect 0 0 1 0;
#X connect 1 0 7 0;
#X connect 2 0 3 0;
#X connect 3 0 4 0;
#X connect 3 1 6 0;
#X connect 6 0 5 0;
#X connect 7 0 2 0;
#X connect 8 0 2 0;
#X restore 3 209 pd error;
#X f 19;
#N canvas 547 210 385 404 search 0;
#X obj 7 4 inlet;
#X obj 7 25 sel 1;
#X obj 7 83 pd-mod;
#X obj 7 130 route -1, f 18;
#X obj 7 179 print ERROR;
#X obj 94 178 outlet;
#X msg 94 155 1;
#X msg 27 65 reload;
#X msg 7 46 search-patches;
#X obj 7 104 print;
#X connect 0 0 1 0;
#X connect 1 0 8 0;
#X connect 2 0 3 0;
#X connect 2 0 9 0;
#X connect 3 0 4 0;
#X connect 3 1 6 0;
#X connect 6 0 5 0;
#X connect 7 0 2 0;
#X connect 8 0 2 0;
#X restore 3 230 pd search;
#X f 19;
#X obj 3 251 s section2;
#X obj 138 80 r section2;
#N canvas 547 210 385 404 get_patch_zoom 0;
#X obj 7 4 inlet;
#X obj 7 25 sel 1;
#X obj 7 83 pd-mod;
#X obj 7 130 route -1, f 18;
#X obj 7 179 print ERROR;
#X obj 94 178 outlet;
#X msg 94 155 1;
#X msg 27 65 reload;
#X msg 7 46 get_patch_zoom;
#X connect 0 0 1 0;
#X connect 1 0 8 0;
#X connect 2 0 3 0;
#X connect 3 0 4 0;
#X connect 3 1 6 0;
#X connect 6 0 5 0;
#X connect 7 0 2 0;
#X connect 8 0 2 0;
#X restore 138 102 pd get_patch_zoom;
#X f 19;
#N canvas 547 210 385 404 get_outlet_count 0;
#X obj 7 4 inlet;
#X obj 7 25 sel 1;
#X obj 7 83 pd-mod;
#X obj 7 130 route -1, f 18;
#X obj 7 179 print ERROR;
#X obj 94 178 outlet;
#X msg 94 155 1;
#X msg 7 46 get_outlet_count;
#X connect 0 0 1 0;
#X connect 1 0 7 0;
#X connect 2 0 3 0;
#X connect 3 0 4 0;
#X connect 3 1 6 0;
#X connect 6 0 5 0;
#X connect 7 0 2 0;
#X restore 138 123 pd get_outlet_count;
#X connect 1 0 8 0;
#X connect 2 0 8 0;
#X connect 3 0 6 0;
#X connect 3 1 4 0;
#X connect 7 0 5 0;
#X connect 7 1 3 0;
#X connect 8 0 11 0;
#X connect 10 0 12 0;
#X connect 11 0 10 0;
#X connect 12 0 13 0;
#X connect 13 0 14 0;
#X connect 14 0 16 0;
#X connect 16 0 17 0;
#X connect 17 0 18 0;
#X connect 18 0 19 0;
#X connect 19 0 20 0;
#X connect 20 0 21 0;
#X connect 22 0 23 0;
#X connect 23 0 24 0;
#X connect 24 0 7 0;
