#N canvas 703 33 375 405 8;
#X obj 3 5 r start-test;
#X obj 72 5 bng 15 250 50 0 empty empty empty 0 -8 0 8 #fcfcfc #000000 #000000;
#X obj 45 92 sel 1 0;
#X obj 61 111 print ERROR;
#X msg 3 153 \; pd quit;
#X obj 45 129 print PY4PDPASS;
#X obj 3 73 t b f, f 9;
#X obj 3 48 py4pd py importsvgpathtools;
#X msg 3 26 run;
#X connect 0 0 8 0;
#X connect 2 0 5 0;
#X connect 2 1 3 0;
#X connect 6 0 4 0;
#X connect 6 1 2 0;
#X connect 7 0 6 0;
#X connect 8 0 7 0;
