#N canvas 917 300 760 524 8;
#X obj 10 10 py4pd -lib pip;
#X obj 38 86 pip;
#X obj 41 57 bng 15 250 50 0 empty empty empty 0 -8 0 8 #fcfcfc #000000 #000000;
#X obj 202 32 osc~ 440;
#X obj 201 121 else/meter~;
#X obj 96 189 dac~;
#X obj 123 149 *~ 0.1;
#X obj 202 84 *~;
#X obj 273 61 osc~ 1;
#X connect 2 0 1 0;
#X connect 3 0 6 0;
#X connect 3 0 7 0;
#X connect 6 0 5 0;
#X connect 6 0 5 1;
#X connect 7 0 4 0;
#X connect 8 0 7 1;
