#N canvas 963 23 951 1016 10;
#X obj 380 91 py4pd;
#X obj 99 264 pyrandom, f 19;
#X msg 117 222 outsymbol;
#X msg 57 222 outgimme;
#X obj 210 223 nbx 5 16 -1e+37 1e+37 0 0 empty empty empty 0 -9 0 10 #fcfcfc #000000 #000000 0 256;
#X obj 145 55 metro 30;
#X obj 140 21 tgl 18 0 empty empty empty 0 -9 0 10 #fcfcfc #000000 #000000 0 1;
#X obj 99 286 nbx 5 16 -1e+37 1e+37 0 0 empty empty empty 0 -9 0 10 #fcfcfc #000000 #000000 0 256;
#X obj 145 77 int;
#X obj 145 99 + 1;
#X obj 202 185 expr random(1 \, 50000);
#X msg 14 218 random;
#X obj 145 143 sel 0 1 2 3;
#X obj 145 121 % 4;
#X connect 1 0 7 0;
#X connect 2 0 1 0;
#X connect 3 0 1 0;
#X connect 4 0 1 1;
#X connect 5 0 8 0;
#X connect 6 0 5 0;
#X connect 8 0 9 0;
#X connect 9 0 8 1;
#X connect 9 0 13 0;
#X connect 10 0 4 0;
#X connect 11 0 1 0;
#X connect 12 0 3 0;
#X connect 12 1 2 0;
#X connect 12 2 10 0;
#X connect 12 3 11 0;
#X connect 13 0 12 0;
