#N canvas 963 23 951 1016 10;
#X declare -lib py4pd;
#X declare -lib else;
#N canvas 963 550 951 489 (subpatch) 0;
#X array myarray 100 float 2;
#X coords 0 1 100 0 200 140 1 0 0;
#X restore 211 15 graph;
#X obj 18 272 pytest, f 8;
#X obj 4 5 declare -lib py4pd;
#X obj 18 205 nbx 5 16 -1e+37 1e+37 0 0 empty empty empty 0 -9 0 10 #fcfcfc #000000 #000000 0 256;
#X obj 267 193 declare -lib else;
#X obj 18 303 *~ 0.1;
#X obj 18 355 dac~;
#X msg 90 203 freq \$1;
#X obj 89 161 nbx 5 16 -1e+37 1e+37 0 0 empty empty empty 0 -9 0 10 #fcfcfc #000000 #000000 0 256;
#X connect 1 0 5 0;
#X connect 3 0 1 0;
#X connect 5 0 6 0;
#X connect 5 0 6 1;
#X connect 7 0 1 0;
#X connect 8 0 7 0;
