#N canvas 695 29 874 887 8;
#X obj 53 37 bng 15 250 50 0 empty empty empty 0 -8 0 8 #fcfcfc #000000 #000000;
#X obj 53 252 print out0;
#X obj 86 217 print out1;
#X obj 119 183 print out2;
#X obj 185 135 print out4;
#X obj 152 157 print out3;
#X msg 64 81 reload;
#X obj 14 11 py4pd -lib outlet;
#X obj 53 107 py.out, f 27;
#X msg 54 281 s;
#X obj 54 398 print out0;
#X obj 171 398 print out1;
#X obj 54 351 py.setout None 1 -outn 2;
#X msg 105 301 reload;
#X msg 171 312 0;
#X obj 150 36 py4pd -lib py4pd;
#X connect 0 0 8 0;
#X connect 6 0 8 0;
#X connect 8 0 1 0;
#X connect 8 1 2 0;
#X connect 8 2 3 0;
#X connect 8 3 5 0;
#X connect 8 4 4 0;
#X connect 9 0 12 0;
#X connect 12 0 10 0;
#X connect 12 1 11 0;
#X connect 13 0 12 0;
#X connect 14 0 12 1;
