#N canvas 353 437 652 486 8;
#X obj 13 6 py4pd -lib kwargs;
#X obj 84 135 pykwargs;
#X msg 84 53 kwargs fft 1024;
#X obj 42 96 bng 15 250 50 0 empty empty empty 0 -8 0 8 #fcfcfc #000000 #000000;
#X msg 136 74 kwargs mything 1 2 3 4 5;
#X text 64 95 Run;
#X connect 2 0 1 0;
#X connect 3 0 1 0;
#X connect 4 0 1 0;
