#N canvas 703 33 1032 562 8;
#X obj 7 13 py4pd -lib py4pd;
#X obj 6 194 nbx 5 14 -1e+37 1e+37 0 0 empty empty empty 0 -8 0 8 #fcfcfc #000000 #000000 0 256;
#X obj 6 155 int 1;
#X obj 6 176 + 1;
#X text 97 153 NOTE: Note that a[0] is relative to the first inlet (from left to right) \, a[1] to the second \, and so on.;
#X obj 6 109 b;
#X obj 49 156 py.print;
#X msg 31 52 reload;
#X obj 179 233 py.list -a 4;
#X msg 123 194 1 2 3 4;
#X msg 192 195 5 6 7 8 9;
#X msg 252 194 10 11 12 13;
#X msg 265 214 14 15 16 17;
#X obj 179 254 py.print;
#X obj 6 88 py.listcomp [random.randint(10 \, 400) for _ in range(in1)] -a 1, f 64;
#X msg 6 52 32;
#X connect 2 0 3 0;
#X connect 3 0 2 1;
#X connect 3 0 1 0;
#X connect 5 0 2 0;
#X connect 7 0 14 0;
#X connect 8 0 13 0;
#X connect 9 0 8 0;
#X connect 10 0 8 1;
#X connect 11 0 8 2;
#X connect 12 0 8 3;
#X connect 14 0 5 0;
#X connect 14 0 6 0;
#X connect 15 0 14 0;
