#N canvas 856 60 1008 859 12;
#X obj 8 156 py4pd;
#X obj 60 301 osc~ 220;
#X obj 60 370 dac~;
#X obj 241 9 loadbang;
#X obj 241 34 delay 1000 1 msec;
#X obj 241 59 t b b b b;
#X msg 56 36 \; pd dsp 1;
#X obj 169 14 bng 20 250 50 0 empty empty empty 0 -10 0 12 #fcfcfc #000000 #000000;
#X obj 8 185 print result;
#X obj 60 341 *~ 0.1;
#X msg 8 107 run;
#X msg 135 160 runmode 0;
#X msg 148 106 set mypy printThread;
#X obj 193 285 py4pd;
#X obj 193 314 print result;
#X msg 193 236 run;
#X msg 320 289 runmode 0;
#X msg 333 235 set mypy printThread;
#X msg 69 107 runmode 1;
#X msg 254 236 runmode 1;
#X connect 0 0 8 0;
#X connect 1 0 9 0;
#X connect 3 0 4 0;
#X connect 3 0 6 0;
#X connect 4 0 5 0;
#X connect 5 2 18 0;
#X connect 5 3 12 0;
#X connect 7 0 5 0;
#X connect 9 0 2 0;
#X connect 9 0 2 1;
#X connect 10 0 0 0;
#X connect 11 0 0 0;
#X connect 12 0 0 0;
#X connect 13 0 14 0;
#X connect 15 0 13 0;
#X connect 16 0 13 0;
#X connect 17 0 13 0;
#X connect 18 0 0 0;
#X connect 19 0 13 0;
