#N canvas 0 0 943 1005 10;
#X declare -lib py4pd;
#X declare -path py4pd;
#X declare -lib loris;
#X declare -lib openmusic;
#X obj 2 6 declare -lib py4pd;
#X obj 120 6 declare -path py4pd;
#X obj 121 57 py.pip;
#X msg 121 28 pip install git+https://github.com/charlesneimog/loris;
#X obj 2 28 declare -lib loris;
#X msg 22 122 reload;
#X msg 69 155 analyze tab;
#X obj 22 222 l.analyzer 440;
#X obj 22 79 declare -lib openmusic;
#X obj 22 272 py.iterate;
#X obj 198 166 array define tab 48000;
#X obj 308 226 osc~ 440;
#X obj 308 248 *~ 0.2;
#X obj 341 269 bng 18 250 50 0 empty empty empty 0 -9 0 10 #fcfcfc #000000 #000000;
#X obj 308 309 tabwrite~ tab;
#X obj 56 318 py.iterate;
#X text 113 222 <= Partial List;
#X text 93 271 <= Partial;
#X text 122 316 <= Breakpoint;
#X connect 3 0 2 0;
#X connect 5 0 7 0;
#X connect 6 0 7 0;
#X connect 7 0 9 0;
#X connect 9 0 15 0;
#X connect 11 0 12 0;
#X connect 12 0 14 0;
#X connect 13 0 14 0;
