#N canvas 693 268 867 534 8;
#X obj 8 6 py4pd -lib py4pd;
#X obj 35 129 py.list -a 3;
#X msg 35 50 1 2 3 4 5;
#X msg 63 79 1 2 3 4 5;
#X msg 92 100 1 2 3 4 5;
#X obj 35 150 py.print;
#X connect 1 0 5 0;
#X connect 2 0 1 0;
#X connect 3 0 1 1;
#X connect 4 0 1 2;
