#N canvas 476 73 599 565 12;
#X obj 69 366 py4pd;
#X obj 74 488 bng 23 250 50 0 nutelaOS akdkabdk empty 0 -10 0 12 #dfdfdf #000000 #000000;
#X obj 74 518 bng 23 250 50 0 linux adjhkahdk empty 0 -10 0 12 #dfdfdf #000000 #000000;
#N canvas 604 170 651 438 links 0;
#X obj 108 378 pdcontrol;
#X obj 133 192 r linux;
#X msg 133 224 browse https://www.charlesneimog.com/py4pd/setup/#install-python;
#X obj 108 125 r nutelaOS;
#X obj 157 271 r howinstallpython;
#X msg 157 303 browse https://www.charlesneimog.com/py4pd/setup/#install-python;
#X msg 108 160 browse https://www.python.org/downloads/release/python-3114;
#X obj 68 25 inlet;
#X obj 68 55 symbol;
#X msg 68 89 browse https://\$1;
#X connect 1 0 2 0;
#X connect 2 0 0 0;
#X connect 3 0 6 0;
#X connect 4 0 5 0;
#X connect 5 0 0 0;
#X connect 6 0 0 0;
#X connect 7 0 8 0;
#X connect 8 0 9 0;
#X connect 9 0 0 0;
#X restore 262 319 pd links;
#X obj 74 459 bng 23 250 50 0 howinstallpython howinstallpythonr empty 0 -10 0 12 #dfdfdf #000000 #000000;
#X text 59 83 The [py4pd] external allows you to use Python in Pure Data. It is similar to py/pyext \, but is simpler to maintain \, keep it up to date \, use modules \, lists and other things., f 71;
#X text 103 463 <-- Click to see how to install Python!;
#X text 103 490 <-- Click for MacOS OR Windows (go to the bottom of page).;
#X text 103 521 <-- Click on this bang for Linux.;
#X obj 59 44 cnv 5 5 22 empty empty Thanks\ for\ downloading\ [py4pd]\ by\ Charles\ K.\ Neimog! 10 12 0 15 #000000 #202020 0;
#X text 59 232 [py4pd] is used by third-party libraries. I already upload some objects to deken. You can search for pd-ji (Just Intonation Tools) \, Orchidea (load the free Orchidea samples using midi data) and others. Check the complete list in., f 71;
#X msg 262 288 charlesneimog.github.io/py4pd;
#X text 59 133 With Python in Pd you can generate scores \, work with AI \, use lots of Audio Analysis tools and OpenMusic functions with libraries like om_py \, music21 \, neoscore and others. It also brings the feature to write Pd externals in pure Python code \, what allows to use all the big Python enviroment in PureData., f 71;
#X text 114 365 <-- IMPORTANT: If this object failed to load \, Python is not installed in your system. This version uses python 3.11 and you CAN'T use any other version.;
#X connect 11 0 3 0;
