#N canvas 868 169 735 686 8;
#X text 89 2 Welcome to the py4pd documentation!, f 36;
#X text 1 22 py4pd allows the use of Python as an object in PureData. It is similar to py/pyext \, but is simpler to keep up to date \, use modules \, use lists \, and other things., f 71;
#X obj 4 125 py4pd;
#X obj 3 255 bng 20 250 50 0 nutelaOS empty empty 0 -10 0 12 #fcfcfc #000000 #000000;
#X obj 3 280 bng 20 250 50 0 linux empty empty 0 -10 0 12 #fcfcfc #000000 #000000;
#N canvas 0 32 1375 516 links 0;
#X obj 36 176 pdcontrol;
#X obj 119 83 r linux;
#X msg 36 58 browse https://www.python.org/downloads/release/python-31011;
#X msg 119 103 browse https://www.charlesneimog.com/py4pd/setup/#install-python;
#X obj 36 8 r nutelaOS;
#X connect 1 0 3 0;
#X connect 2 0 0 0;
#X connect 3 0 0 0;
#X connect 4 0 2 0;
#X restore 3 234 pd links;
#X text 1 65 With Python as an object \, you can see scores inside PureData \, work with AI \, lot of Audio Analysis tools \, use svg/draws as scores \, and OpenMusic functions in libraries like om_py \, music21 \, neoscore \, and others., f 71;
#X text 4 176 py4pd is used for third-party libraries. I already upload some objects in deken. You can search for pd-ji (Just Intonation Tools) \, Orchidea (load the free Orchidea samples using midi data) \, and others. Check the complete list in www.charlesneimog.com/py4pd/, f 70;
#X text 27 255 Click on this bang for MacOS OR Windows| Go to the bottom of page., f 66;
#X text 27 281 Click on this bang for Linux.;
#X text 39 121 IMPORTANT: If this object not work \, Python it is not installed in your system. You can install it following the steps in this website: https://www.charlesneimog.com/py4pd/setup/., f 63;
#X text 133 322 by Charles K. Neimog;
