#N canvas 868 169 735 751 8;
#X text 89 2 Welcome to the py4pd documentation!, f 36;
#X text 1 22 py4pd allows the use of Python as an object in PureData. It is similar to py/pyext \, but is simpler to keep up to date \, use modules \, use lists \, and other things., f 71;
#X obj 4 125 py4pd;
#X obj 3 285 bng 20 250 50 0 nutelaOS empty empty 0 -10 0 12 #fcfcfc #000000 #000000;
#X obj 3 310 bng 20 250 50 0 linux empty empty 0 -10 0 12 #fcfcfc #000000 #000000;
#N canvas 0 32 1375 516 links 1;
#X obj 36 176 pdcontrol;
#X obj 119 83 r linux;
#X msg 119 103 browse https://www.charlesneimog.com/py4pd/setup/#install-python;
#X obj 36 8 r nutelaOS;
#X obj 460 126 r howinstallpython;
#X msg 356 176 browse https://www.charlesneimog.com/py4pd/setup/#install-python;
#X msg 36 58 browse https://www.python.org/downloads/release/python-3114;
#X connect 1 0 2 0;
#X connect 2 0 0 0;
#X connect 3 0 6 0;
#X connect 4 0 5 0;
#X connect 5 0 0 0;
#X connect 6 0 0 0;
#X restore 3 264 pd links;
#X text 1 65 With Python as an object \, you can see scores inside PureData \, work with AI \, lot of Audio Analysis tools \, use svg/draws as scores \, and OpenMusic functions in libraries like om_py \, music21 \, neoscore \, and others., f 71;
#X text 27 285 Click on this bang for MacOS OR Windows| Go to the bottom of page., f 66;
#X text 27 311 Click on this bang for Linux.;
#X text 133 352 by Charles K. Neimog;
#X text 4 206 py4pd is used for third-party libraries. I already upload some objects in deken. You can search for pd-ji (Just Intonation Tools) \, Orchidea (load the free Orchidea samples using midi data) \, and others. Check the complete list in www.charlesneimog.com/py4pd/., f 70;
#X obj 3 167 bng 20 250 50 0 howinstallpython howinstallpythonr empty 0 -10 0 12 #fcfcfc #000000 #000000;
#X text 26 168 <= Click to see how to install Python!;
#X text 38 121 <= IMPORTANT: If this object not work \, Python it is not installed in your system. This version uses python3.11. You can install it click in this Bang:, f 63;
