#N canvas 1075 374 784 544 8;
#X obj 3 3 py4pd -lib py4pd;
#X obj 4 77 py.mklist;
#X obj 90 3 py4pd -lib tree;
#X obj 4 135 omtree;
#X msg 17 103 reload;
#X msg 20 48 [[[4 4] [1 [1 [1 1]] 1 1]]];
#X obj 4 167 py.show 225 124;
#X msg 4 25 [[[2 4] [1 1 1 1 4]]];
#X connect 1 0 3 0;
#X connect 3 0 6 0;
#X connect 4 0 3 0;
#X connect 5 0 1 0;
#X connect 7 0 1 0;
