#N canvas 496 236 1281 556 8;
#N canvas 0 50 450 250 (subpatch) 0;
#X array iaAudio 929792 float 2;
#X coords 0 1 929792 -1 200 140 1 0 0;
#X restore 13 113 graph;
#X obj 434 30 tabplay~ iaAudio;
#X obj 434 64 dac~;
#X obj 434 7 bng 20 250 50 0 empty empty empty 0 -10 0 12 #fcfcfc #000000 #000000;
#X obj 511 57 bng 20 250 50 0 empty empty empty 0 -10 0 12 #fcfcfc #000000 #000000;
#N canvas 0 0 1264 593 downloadModel 0;
#X obj 58 156 pdcontrol;
#X msg 58 109 browse https://nubo.ircam.fr/index.php/s/KdG9Gim46qLnZeL/download;
#X obj 58 41 inlet;
#X connect 1 0 0 0;
#X connect 2 0 1 0;
#X restore 217 180 pd downloadModel;
#X obj 217 139 bng 20 250 50 0 empty empty empty 0 -10 0 12 #fcfcfc #000000 #000000;
#X obj 13 14 py4pd -lib ia;
#X text 213 108 <= This example uses Python Code from nn~.;
#X obj 379 189 py4pd -lib py4pd;
#X text 374 169 Install Packages;
#N canvas 0 50 450 250 (subpatch) 0;
#X coords 0 1 100 -1 250 91 1;
#X restore 373 164 graph;
#X text 244 138 Click to download nn model from Ircam.;
#X obj 378 234 py4pd;
#X obj 503 234 py4pd;
#X msg 378 213 pip install librosa;
#X msg 503 213 pip install torch;
#X msg 14 36 Hp-pizz.wav;
#X obj 14 64 py4pd-nn None percussion.ts;
#X connect 1 0 2 0;
#X connect 1 0 2 1;
#X connect 1 1 4 0;
#X connect 3 0 1 0;
#X connect 6 0 5 0;
#X connect 15 0 13 0;
#X connect 16 0 14 0;
#X connect 17 0 18 0;
