#N canvas 672 12 1081 825 8;
#X obj 9 8 py4pd -lib py;
#X obj 135 7 r start-test;
#X msg 211 54 \; pd dsp 1;
#X obj 135 35 t b b b, f 31;
#X obj 204 7 bng 15 250 50 0 empty empty empty 0 -8 0 8 #fcfcfc #000000 #000000;
#X obj 8 26 py4pd -lib py4pd;
#X obj 434 175 py.memuse;
#X obj 434 196 nbx 5 14 -1e+37 1e+37 0 0 empty empty empty 0 -8 0 8 #fcfcfc #000000 #000000 0 256;
#X obj 287 137 metro 1000;
#X obj 287 181 py.memuse;
#X obj 287 202 nbx 5 14 -1e+37 1e+37 0 0 empty empty empty 0 -8 0 8 #fcfcfc #000000 #000000 0 256;
#X obj 287 234 expr if(($f1 - $f2) < 3 \, 1 \, 0);
#X obj 287 255 tgl 15 0 empty empty empty 0 -8 0 8 #fcfcfc #000000 #000000 0 1;
#X obj 287 60 t b b b, f 32;
#X obj 250 273 f, f 8;
#X obj 444 110 s pass;
#X obj 250 234 r pass;
#X obj 307 22 bng 15 250 50 0 empty empty empty 0 -8 0 8 #fcfcfc #000000 #000000;
#X obj 321 316 sel 1 0;
#X obj 337 334 print ERROR;
#X msg 250 373 \; pd quit;
#X obj 7 92 osc~ 300;
#X obj 104 92 osc~ 500;
#X obj 55 92 osc~ 400;
#X obj 7 112 snake~ in 3, f 20;
#X obj 7 158 audio~ -ch 3;
#X obj 7 206 snake~ out 3;
#X obj 7 233 +~, f 6;
#X obj 7 268 +~, f 12;
#X obj 7 289 *~ 0.3;
#X obj 7 332 dac~;
#X obj 444 89 del 15 1 sec;
#X obj 321 352 print PY4PDPASS;
#X obj 135 65 s record;
#N canvas 80 118 699 564 audio-output 0;
#X obj 23 251 writesf~;
#X obj 111 21 r record;
#X obj 145 86 getTestId;
#X obj 163 58 bng 15 250 50 0 empty empty empty 0 -8 0 8 #fcfcfc #000000 #000000;
#X obj 145 107 symbol;
#X obj 111 42 t b b;
#X msg 111 86 start;
#X msg 130 207 stop;
#X obj 130 186 r stop;
#X obj 23 43 inlet~;
#X msg 145 133 open TEST13-\$1.wav;
#X connect 1 0 5 0;
#X connect 2 0 4 0;
#X connect 3 0 2 0;
#X connect 4 0 10 0;
#X connect 5 0 6 0;
#X connect 5 1 2 0;
#X connect 6 0 0 0;
#X connect 7 0 0 0;
#X connect 8 0 7 0;
#X connect 9 0 0 0;
#X connect 10 0 0 0;
#X restore 37 333 pd audio-output;
#X obj 250 294 t b f b, f 33;
#X obj 412 352 s stop;
#X connect 1 0 3 0;
#X connect 3 0 33 0;
#X connect 3 1 2 0;
#X connect 3 2 13 0;
#X connect 4 0 3 0;
#X connect 6 0 7 0;
#X connect 7 0 11 1;
#X connect 8 0 9 0;
#X connect 9 0 10 0;
#X connect 10 0 11 0;
#X connect 11 0 12 0;
#X connect 12 0 14 1;
#X connect 13 0 8 0;
#X connect 13 1 6 0;
#X connect 13 2 31 0;
#X connect 14 0 35 0;
#X connect 16 0 14 0;
#X connect 17 0 13 0;
#X connect 18 0 32 0;
#X connect 18 1 19 0;
#X connect 21 0 24 0;
#X connect 22 0 24 2;
#X connect 23 0 24 1;
#X connect 24 0 25 0;
#X connect 25 0 26 0;
#X connect 26 0 27 0;
#X connect 26 1 27 1;
#X connect 26 2 28 1;
#X connect 27 0 28 0;
#X connect 28 0 29 0;
#X connect 29 0 30 0;
#X connect 29 0 30 1;
#X connect 29 0 34 0;
#X connect 31 0 15 0;
#X connect 35 0 20 0;
#X connect 35 1 18 0;
#X connect 35 2 36 0;
