#N canvas 654 333 780 300 8;
#X obj 8 103 py4pd py pdsum;
#X msg 8 31 pointers \$1;
#X obj 8 10 tgl 15 0 empty empty empty 0 -8 0 8 #fcfcfc #000000 #000000 0 1;
#X msg 30 68 run 2 2;
#X obj 8 124 else/display;
#X obj 288 101 py4pd py pdsum;
#X msg 288 29 pointers \$1;
#X obj 288 8 tgl 15 0 empty empty empty 0 -8 0 8 #fcfcfc #000000 #000000 0 1;
#X msg 310 66 run 2 2;
#X obj 288 122 else/display;
#X text 87 10 With this you can work with Python data types inside PureData. It is useful for work with Partial Tracking \, for example., f 36;
#X connect 0 0 4 0;
#X connect 1 0 0 0;
#X connect 2 0 1 0;
#X connect 3 0 0 0;
#X connect 5 0 9 0;
#X connect 6 0 5 0;
#X connect 7 0 6 0;
#X connect 8 0 5 0;
