#N canvas 676 32 627 585 8;
#X obj 5 8 py4pd -lib multichannel;
#X obj 254 212 else/setdsp~;
#X obj 131 8 py4pd -lib py4pd;
#X msg 41 66 reload;
#X obj 4 95 sinusoids~ -ch 3;
#X msg 4 42 300 600;
#X msg 81 66 0.1 0.1;
#X obj 4 154 dac~;
#X connect 3 0 4 0;
#X connect 4 0 7 0;
#X connect 4 0 7 1;
#X connect 5 0 4 0;
#X connect 6 0 4 1;
