#N canvas 676 32 627 585 8;
#X obj 5 8 py4pd -lib multichannel;
#X obj 254 212 else/setdsp~;
#X obj 131 8 py4pd -lib py4pd;
#X msg 41 66 reload;
#X msg 81 66 0.1 0.1 0.1;
#X obj 4 95 sinusoids~ -ch 3;
#X obj 109 150 clone -d pd 4;
#A canvas 26 231 571 331 8;
#X obj 27 19 inlet~;
#X obj 27 44 osc~ 330;
#X obj 48 88 outlet~;
#X connect 0 0 1 0;
#X connect 1 0 2 0;
#X pop clone;
#X obj 109 171 dac~;
#X msg 4 42 300 300 300;
#X obj 4 194 dac~ 1 2;
#X connect 3 0 5 0;
#X connect 4 0 5 1;
#X connect 5 0 9 0;
#X connect 5 0 9 1;
#X connect 6 0 7 0;
#X connect 8 0 5 0;
