#N canvas 795 114 1114 601 8;
#X obj 60 26 py4pd -lib anything;
#X obj 60 236 py.anything;
#X obj 60 50 tgl 15 0 empty empty empty 0 -8 0 8 #fcfcfc #000000 #000000 0 1;
#X obj 60 70 metro 1000;
#X obj 60 91 int;
#X obj 60 112 + 1;
#X obj 60 154 sel 0 1 2 3, f 58;
#X msg 60 175 casa;
#X msg 204 174 haus;
#X obj 60 133 % 4;
#X msg 131 175 234;
#X obj 60 196 symbol;
#X msg 275 174 1 2 3 4 5;
#X obj 60 257 else/display;
#X connect 1 0 13 0;
#X connect 2 0 3 0;
#X connect 3 0 4 0;
#X connect 4 0 5 0;
#X connect 5 0 4 1;
#X connect 5 0 9 0;
#X connect 6 0 7 0;
#X connect 6 1 10 0;
#X connect 6 2 8 0;
#X connect 6 3 12 0;
#X connect 7 0 11 0;
#X connect 8 0 1 0;
#X connect 9 0 6 0;
#X connect 10 0 1 0;
#X connect 11 0 1 0;
#X connect 12 0 1 0;
