#N canvas 836 364 698 584 8;
#X obj 19 163 nbx 5 14 -1e+37 1e+37 0 0 empty empty empty 0 -8 0 8 #fcfcfc #000000 #000000 0 256;
#X obj 19 49 tgl 15 0 empty empty empty 0 -8 0 8 #fcfcfc #000000 #000000 0 1;
#X obj 19 79 metro 1000;
#X obj 18 17 py4pd -lib float;
#X obj 19 142 py.floatRandom;
#X obj 19 100 expr random(100 \, 100000);
#X obj 19 121 nbx 5 14 -1e+37 1e+37 0 0 empty empty empty 0 -8 0 8 #fcfcfc #000000 #000000 0 256;
#X connect 1 0 2 0;
#X connect 2 0 5 0;
#X connect 4 0 0 0;
#X connect 5 0 6 0;
#X connect 6 0 4 0;
