#N canvas 795 114 896 610 8;
#X obj 67 65 tgl 15 0 empty empty empty 0 -8 0 8 #fcfcfc #000000 #000000 0 1;
#X obj 67 85 metro 1000;
#X obj 66 40 py4pd -lib list;
#X obj 67 186 py.listmultiplier;
#X obj 67 106 t b b b, f 56;
#X obj 67 163 pack f f f, f 56;
#X obj 67 127 random 200;
#X obj 206 127 random 200;
#X obj 344 129 random 200;
#X listbox 67 207 20 0 0 0 - - - 24;
#X connect 0 0 1 0;
#X connect 1 0 4 0;
#X connect 3 0 9 0;
#X connect 4 0 6 0;
#X connect 4 1 7 0;
#X connect 4 2 8 0;
#X connect 5 0 3 0;
#X connect 6 0 5 0;
#X connect 7 0 5 1;
#X connect 8 0 5 2;
