#N canvas 407 113 406 255 8;
#X obj 14 11 py4pd -lib player;
#X obj 15 194 py.player;
#X obj 15 34 bng 15 250 50 0 empty empty empty 0 -8 0 8 #fcfcfc #000000 #000000;
#X msg 44 63 play;
#X msg 61 105 stop;
#X msg 56 141 clear;
#X obj 15 215 print;
#X text 32 33 Run this script.;
#X text 74 63 Then Play it.;
#X text 91 105 You can stop it.;
#X text 92 141 You can clear all the data inside the player.;
#X connect 1 0 6 0;
#X connect 2 0 1 0;
#X connect 3 0 1 0;
#X connect 4 0 1 0;
#X connect 5 0 1 0;
