#N canvas 688 117 874 630 8;
#X obj 14 11 py4pd -lib player;
#X obj 53 136 py.player;
#X obj 53 37 bng 15 250 50 0 empty empty empty 0 -8 0 8 #fcfcfc #000000 #000000;
#X msg 98 43 play;
#X msg 104 63 stop;
#X msg 109 86 clear;
#X obj 53 157 print;
#X msg 247 80 pointers 0;
#X obj 247 43 loadbang;
#X connect 1 0 6 0;
#X connect 2 0 1 0;
#X connect 3 0 1 0;
#X connect 4 0 1 0;
#X connect 5 0 1 0;
#X connect 7 0 1 0;
#X connect 8 0 7 0;
