#N canvas 1009 325 754 488 8;
#X obj 33 86 py4pd;
#X msg 50 49 run 4 4;
#X obj 33 107 nbx 5 14 -1e+37 1e+37 0 0 empty empty empty 0 -8 0 8 #fcfcfc #000000 #000000 0 256;
#X obj 33 126 print;
#X obj 171 62 py4pd;
#X msg 171 18 detach;
#X obj 321 214 dac~;
#X obj 321 171 osc~ 330;
#X obj 171 83 nbx 5 14 -1e+37 1e+37 0 0 empty empty empty 0 -8 0 8 #fcfcfc #000000 #000000 0 256;
#X obj 126 173 py4pd;
#X msg 124 129 detach;
#X obj 126 194 nbx 5 14 -1e+37 1e+37 0 0 empty empty empty 0 -8 0 8 #fcfcfc #000000 #000000 0 256;
#X msg 182 134 set threadtest mytest;
#X msg 28 24 set threadtest mytest;
#X msg 227 23 set threadtest neoscore;
#X obj 321 192 *~ 0.1;
#X connect 0 0 2 0;
#X connect 1 0 0 0;
#X connect 2 0 3 0;
#X connect 4 0 8 0;
#X connect 5 0 4 0;
#X connect 7 0 15 0;
#X connect 9 0 11 0;
#X connect 10 0 9 0;
#X connect 12 0 9 0;
#X connect 13 0 0 0;
#X connect 14 0 4 0;
#X connect 15 0 6 0;
