#N canvas 600 295 754 617 8;
#X obj 27 83 print;
#X obj 27 62 py4pd threadtest myclass;
#X msg 27 39 run;
#X msg 163 105 symbol;
#X msg 101 104 float 3;
#X msg 213 105 list 1 2 3 4;
#X msg 218 136 anything 23;
#X obj 23 137 bng 15 250 50 0 empty empty empty 0 -8 0 8 #fcfcfc #000000 #000000;
#X msg 56 142 mymethod;
#X obj 101 206 myclass;
#X connect 1 0 0 0;
#X connect 2 0 1 0;
#X connect 3 0 9 0;
#X connect 4 0 9 0;
#X connect 5 0 9 0;
#X connect 6 0 9 0;
#X connect 7 0 9 0;
#X connect 8 0 9 0;
