#N canvas 746 88 754 686 8;
#X obj 8 98 nbx 5 14 -1e+37 1e+37 0 0 empty empty empty 0 -8 0 8 #fcfcfc #000000 #000000 0 256;
#X obj 5 5 py4pd -lib threadtest;
#X obj 8 77 myobj, f 21;
#X msg 8 54 list 100.4 232 3 4;
#X msg 110 54 40 328 298 2378;
#X obj 73 245 nbx 5 14 -1e+37 1e+37 0 0 empty empty empty 0 -8 0 8 #fcfcfc #000000 #000000 0 256;
#X obj 73 224 myobj, f 21;
#X msg 175 201 40 328 298 2378;
#X msg 73 201 asd 100.4 232 3 4;
#X obj 30 152 bng 15 250 50 0 empty empty empty 0 -8 0 8 #fcfcfc #000000 #000000;
#X obj 141 24 bng 15 250 50 0 empty empty empty 0 -8 0 8 #fcfcfc #000000 #000000;
#X connect 2 0 0 0;
#X connect 3 0 2 0;
#X connect 4 0 2 1;
#X connect 6 0 5 0;
#X connect 7 0 6 1;
#X connect 8 0 6 0;
#X connect 9 0 6 0;
#X connect 10 0 2 0;
