#N canvas 746 88 754 686 8;
#X msg 110 54 40;
#X obj 8 98 nbx 5 14 -1e+37 1e+37 0 0 empty empty empty 0 -8 0 8 #fcfcfc #000000 #000000 0 256;
#X obj 5 5 py4pd -lib threadtest;
#X obj 8 77 myobj, f 21;
#X msg 8 54 list 100.4 232 3 4;
#X connect 0 0 3 1;
#X connect 3 0 1 0;
#X connect 4 0 3 0;
