#N canvas 742 32 840 686 8;
#X obj 5 5 py4pd -lib py;
#X obj 54 112 sinusoids~;
#X msg 54 65 440 400;
#X msg 101 87 0.1 0.1;
#X obj 54 156 dac~;
#X connect 1 0 4 0;
#X connect 1 0 4 1;
#X connect 2 0 1 0;
#X connect 3 0 1 1;
