#N canvas 686 36 1179 936 8;
#X obj 5 5 py4pd -lib py4pd;
#X obj 135 10 r start-test;
#X obj 218 12 bng 15 250 50 0 empty empty empty 0 -8 0 8 #fcfcfc #000000 #000000;
#X obj 27 258 sel 0 1;
#X obj 27 298 print ERROR;
#X obj 43 279 print PASS;
#X msg 5 343 \; pd quit;
#X obj 5 238 t b f;
#N canvas 130 168 450 300 new_patch 0;
#X restore 430 5 pd new_patch;
#X obj 135 107 py.iterate;
#N canvas 69 374 626 577 loop 1;
#X obj 8 5 inlet;
#X obj 8 27 py.iterate, f 22;
#X obj 115 224 py.collect;
#X obj 115 255 outlet;
#X obj 8 92 py* None 20;
#X obj 8 48 t a a;
#X obj 72 92 py* None 50;
#X obj 8 113 py.list -a 2;
#X connect 0 0 1 0;
#X connect 1 0 5 0;
#X connect 1 1 2 0;
#X connect 2 0 3 0;
#X connect 4 0 7 0;
#X connect 5 0 4 0;
#X connect 5 1 6 0;
#X connect 6 0 7 1;
#X connect 7 0 2 0;
#X restore 135 143 pd loop;
#X obj 182 178 py.collect;
#X obj 182 199 py.print;
#X obj 135 82 py.list -a 2;
#X msg 135 61 1 2 3 4 5;
#X obj 135 34 t b b;
#X msg 192 61 6 7 8 9 10;
#X obj 86 144 py.print;
#X connect 1 0 15 0;
#X connect 2 0 15 0;
#X connect 3 0 4 0;
#X connect 3 1 5 0;
#X connect 7 0 6 0;
#X connect 7 1 3 0;
#X connect 9 0 10 0;
#X connect 9 0 17 0;
#X connect 9 1 11 0;
#X connect 10 0 11 0;
#X connect 11 0 12 0;
#X connect 13 0 9 0;
#X connect 14 0 13 0;
#X connect 15 0 14 0;
#X connect 15 1 16 0;
#X connect 16 0 13 1;
