#N canvas 164 17 1200 800 8;
#X obj 19 13 py4pd -lib py4pd;
#X msg 19 47 play;
#X msg 49 47 stop;
#X obj 252 11 py4pd -lib main;
#X obj 253 55 descritores 640 480;
#X obj 253 37 bng 15 250 50 0 empty empty empty 0 -8 0 8 #fcfcfc #000000 #000000;
#X obj 336 32 py4pd;
#X msg 336 11 pipinstall local audioflux;
#X obj 18 110 py.iterate;
#X msg 18 82 1 2 3 4 5 6 7;
#X obj 18 152 py.collect;
#X obj 18 173 py2pd;
#X obj 18 194 else/display;
#X obj 18 131 py+ None 20;
#X connect 5 0 4 0;
#X connect 7 0 6 0;
#X connect 8 0 13 0;
#X connect 8 1 10 0;
#X connect 9 0 8 0;
#X connect 10 0 11 0;
#X connect 11 0 12 0;
#X connect 13 0 10 0;
