#N canvas 0 0 943 1005 10;
#X declare -lib py4pd -path py4pd;
#X obj 9 178 py.2pd;
#X text 64 178 Convert PyObject to Pd atoms.;
#X obj 9 79 py.2py;
#X text 64 79 Convert Pd atoms to PyObject.;
#X msg 9 45 1 2 3 4 5 6;
#X obj 67 127 print PyObject;
#X obj 9 203 print;
#X obj 9 7 declare -lib py4pd -path py4pd;
#X obj 175 127 py.print;
#X connect 0 0 6 0;
#X connect 2 0 5 0;
#X connect 2 0 0 0;
#X connect 2 0 8 0;
#X connect 4 0 2 0;
