#N canvas 0 0 943 1005 10;
#X declare -lib py4pd;
#X obj 9 7 declare -lib py4pd;
#X obj 15 102 py.iterate;
#X msg 15 49 1 2 3 4 5 6;
#X obj 15 238 py.collect;
#X obj 15 124 py.2pd;
#X obj 15 158 * 100;
#X obj 15 192 py.2py;
#X obj 15 260 py.print;
#X connect 1 0 4 0;
#X connect 1 1 3 1;
#X connect 2 0 1 0;
#X connect 3 0 7 0;
#X connect 4 0 5 0;
#X connect 5 0 6 0;
#X connect 6 0 3 0;
