#N canvas 0 0 943 1005 10;
#X declare -lib py4pd;
#X obj 9 7 declare -lib py4pd;
#X msg 15 49 1 2 3 4 5 6;
#X obj 15 150 py.+, f 7;
#X msg 54 115 1 2 3 4 5 6;
#X obj 15 172 py.print;
#X msg 148 49 1 2 3 4 5 6;
#X obj 148 150 py.+, f 7;
#X obj 148 172 py.print;
#X msg 187 115 10;
#X obj 240 152 py.+, f 7;
#X obj 240 174 py.print;
#X msg 279 117 1 2 3 4 5;
#X msg 240 51 10;
#X msg 12 246 1 2 3 4 5 6;
#X msg 51 274 1 2 3 4 5 6;
#X obj 12 322 py.print;
#X msg 145 246 1 2 3 4 5 6;
#X obj 145 322 py.print;
#X msg 184 265 10;
#X obj 237 324 py.print;
#X msg 276 267 1 2 3 4 5;
#X msg 237 248 10;
#X obj 12 300 py.-, f 7;
#X obj 145 300 py.-, f 7;
#X obj 237 302 py.-, f 7;
#X msg 446 44 1 2 3 4 5 6;
#X msg 485 72 1 2 3 4 5 6;
#X obj 446 120 py.print;
#X msg 579 44 1 2 3 4 5 6;
#X obj 579 120 py.print;
#X msg 618 63 10;
#X obj 671 122 py.print;
#X msg 710 65 1 2 3 4 5;
#X msg 671 46 10;
#X obj 446 98 py.*, f 7;
#X obj 579 98 py.*, f 7;
#X obj 671 100 py.*, f 7;
#X msg 450 250 1 2 3 4 5 6;
#X msg 489 278 1 2 3 4 5 6;
#X obj 450 326 py.print;
#X msg 583 250 1 2 3 4 5 6;
#X obj 583 326 py.print;
#X msg 622 269 10;
#X obj 675 328 py.print;
#X msg 714 271 1 2 3 4 5;
#X msg 675 252 10;
#X obj 675 306 py./, f 7;
#X obj 583 304 py./, f 7;
#X obj 450 304 py./, f 7;
#X connect 1 0 2 0;
#X connect 2 0 4 0;
#X connect 3 0 2 1;
#X connect 5 0 6 0;
#X connect 6 0 7 0;
#X connect 8 0 6 1;
#X connect 9 0 10 0;
#X connect 11 0 9 1;
#X connect 12 0 9 0;
#X connect 13 0 22 0;
#X connect 14 0 22 1;
#X connect 16 0 23 0;
#X connect 18 0 23 1;
#X connect 20 0 24 1;
#X connect 21 0 24 0;
#X connect 22 0 15 0;
#X connect 23 0 17 0;
#X connect 24 0 19 0;
#X connect 25 0 34 0;
#X connect 26 0 34 1;
#X connect 28 0 35 0;
#X connect 30 0 35 1;
#X connect 32 0 36 1;
#X connect 33 0 36 0;
#X connect 34 0 27 0;
#X connect 35 0 29 0;
#X connect 36 0 31 0;
#X connect 37 0 48 0;
#X connect 38 0 48 1;
#X connect 40 0 47 0;
#X connect 42 0 47 1;
#X connect 44 0 46 1;
#X connect 45 0 46 0;
#X connect 46 0 43 0;
#X connect 47 0 41 0;
#X connect 48 0 39 0;
