#N canvas 0 0 1896 1005 10;
#X declare -lib py4pd;
#X obj 9 7 declare -lib py4pd;
#X obj 11 122 py.print;
#N canvas 0 0 943 1005 (subpatch) 0;
#X obj 9 79 py.2py;
#X text 64 79 Convert Pd atoms to PyObject.;
#X msg 9 45 1 2 3 4 5 6;
#X obj 9 101 outlet;
#X obj 9 18 inlet;
#X connect 0 0 3 0;
#X connect 2 0 0 0;
#X connect 4 0 2 0;
#X restore 11 63 pd;
#X obj 11 34 bng 18 250 50 0 empty empty empty 0 -9 0 10 #fcfcfc #000000 #000000;
#X text 37 60 py.print can be used to print PyObject after convertion to PyObject using py.2py.;
#X obj 11 192 py.2py;
#X msg 11 163 1 2 3 4 5 6 7 8 9 10;
#X obj 11 262 py.first;
#X obj 68 262 py.second;
#X obj 128 262 py.third;
#X obj 187 262 py.nth 4;
#X obj 280 262 py.rest;
#X obj 280 284 py.2pd;
#X listbox 280 306 20 0 0 0 - - - 0;
#X obj 187 284 py.2pd;
#X obj 128 284 py.2pd;
#X obj 128 306 nbx 5 16 -1e+37 1e+37 0 0 empty empty empty 0 -9 0 10 #fcfcfc #000000 #000000 0 256;
#X obj 68 284 py.2pd;
#X obj 68 306 nbx 5 16 -1e+37 1e+37 0 0 empty empty empty 0 -9 0 10 #fcfcfc #000000 #000000 0 256;
#X obj 11 284 py.2pd;
#X obj 11 306 nbx 5 16 -1e+37 1e+37 0 0 empty empty empty 0 -9 0 10 #fcfcfc #000000 #000000 0 256;
#X obj 187 306 nbx 5 16 -1e+37 1e+37 0 0 empty empty empty 0 -9 0 10 #fcfcfc #000000 #000000 0 256;
#X obj 11 404 py.list;
#X msg 11 352 1 2 3 4;
#X msg 50 374 5 6 7 8;
#X obj 11 426 py.print;
#X msg 113 352 1 2 3 4;
#X msg 164 377 5 6 7 8;
#X obj 113 426 py.print;
#X obj 113 404 py.append;
#X obj 237 405 py.butlast;
#X msg 237 378 1 2 3 4;
#X obj 237 427 py.print;
#X msg 306 378 1 2 3 4;
#X obj 306 427 py.print;
#X obj 306 405 py.reverse;
#X msg 373 378 1 2 3 4;
#X obj 373 405 py.length;
#X obj 373 427 nbx 5 16 -1e+37 1e+37 0 0 empty empty empty 0 -9 0 10 #fcfcfc #000000 #000000 0 256;
#X msg 229 125 1 2 3 4;
#X obj 229 174 py.print;
#X obj 229 152 py.remove 3;
#X obj 364 154 py.split 4, f 28;
#X msg 364 119 1 2 3 4;
#X obj 364 175 py.2pd;
#X obj 364 197 nbx 3 16 -1e+37 1e+37 0 0 empty empty empty 0 -9 0 10 #fcfcfc #000000 #000000 0 256;
#X obj 419 174 py.2pd;
#X obj 419 196 nbx 3 16 -1e+37 1e+37 0 0 empty empty empty 0 -9 0 10 #fcfcfc #000000 #000000 0 256;
#X obj 474 174 py.2pd;
#X obj 474 196 nbx 3 16 -1e+37 1e+37 0 0 empty empty empty 0 -9 0 10 #fcfcfc #000000 #000000 0 256;
#X obj 529 174 py.2pd;
#X obj 529 196 nbx 3 16 -1e+37 1e+37 0 0 empty empty empty 0 -9 0 10 #fcfcfc #000000 #000000 0 256;
#X connect 2 0 1 0;
#X connect 3 0 2 0;
#X connect 5 0 7 0;
#X connect 5 0 8 0;
#X connect 5 0 9 0;
#X connect 5 0 10 0;
#X connect 5 0 11 0;
#X connect 6 0 5 0;
#X connect 7 0 19 0;
#X connect 8 0 17 0;
#X connect 9 0 15 0;
#X connect 10 0 14 0;
#X connect 11 0 12 0;
#X connect 12 0 13 0;
#X connect 14 0 21 0;
#X connect 15 0 16 0;
#X connect 17 0 18 0;
#X connect 19 0 20 0;
#X connect 22 0 25 0;
#X connect 23 0 22 0;
#X connect 24 0 22 1;
#X connect 26 0 29 0;
#X connect 27 0 29 1;
#X connect 29 0 28 0;
#X connect 30 0 32 0;
#X connect 31 0 30 0;
#X connect 33 0 35 0;
#X connect 35 0 34 0;
#X connect 36 0 37 0;
#X connect 37 0 38 0;
#X connect 39 0 41 0;
#X connect 41 0 40 0;
#X connect 42 0 44 0;
#X connect 42 1 46 0;
#X connect 42 2 48 0;
#X connect 42 3 50 0;
#X connect 43 0 42 0;
#X connect 44 0 45 0;
#X connect 46 0 47 0;
#X connect 48 0 49 0;
#X connect 50 0 51 0;
