#N canvas 1047 80 799 511 8;
#X obj 27 6 py4pd -lib py4pd;
#X obj 53 60 py.iterate, f 15;
#X msg 53 38 1 2 3 4 5 6 7;
#X obj 53 119 py.sum;
#X msg 80 97 4;
#X obj 53 156 py.collect;
#X obj 53 177 print;
#X msg 185 57 reload;
#X msg 157 109 reload;
#X connect 1 0 3 0;
#X connect 2 0 1 0;
#X connect 3 0 5 0;
#X connect 4 0 3 1;
#X connect 5 0 6 0;
#X connect 7 0 1 0;
#X connect 8 0 3 0;
