#N canvas 974 59 799 799 8;
#X obj 9 6 py4pd -lib py4pd;
#X obj 122 303 py.and -a 4;
#X obj 187 303 py.or -a 4;
#X obj 10 91 py>, f 7;
#X msg 253 331 4;
#X obj 253 358 py== 4 4 4 4 -a 4;
#X msg 42 71 4;
#X obj 10 53 t f b;
#X obj 10 34 nbx 5 14 -1e+37 1e+37 0 0 empty empty empty 0 -8 0 8 #fcfcfc #000000 #000000 0 256;
#X obj 10 112 s p;
#X obj 5 341 r p;
#X obj 5 362 py.print;
#X obj 253 379 s p;
#X msg 115 72 4;
#X obj 83 54 t f b;
#X obj 83 35 nbx 5 14 -1e+37 1e+37 0 0 empty empty empty 0 -8 0 8 #fcfcfc #000000 #000000 0 256;
#X obj 83 113 s p;
#X obj 83 92 py<, f 7;
#X obj 295 140 py.equal -a 5;
#X obj 30 233 s p;
#X obj 30 212 pyisin None 3;
#X msg 30 160 3;
#X msg 92 190 1 2 3 4 5;
#X connect 3 0 9 0;
#X connect 4 0 5 0;
#X connect 5 0 12 0;
#X connect 6 0 3 1;
#X connect 7 0 3 0;
#X connect 7 1 6 0;
#X connect 8 0 7 0;
#X connect 10 0 11 0;
#X connect 13 0 17 1;
#X connect 14 0 17 0;
#X connect 14 1 13 0;
#X connect 15 0 14 0;
#X connect 17 0 16 0;
#X connect 20 0 19 0;
#X connect 21 0 20 0;
#X connect 22 0 20 1;
