#N canvas 669 -1 501 417 8;
#X obj 9 6 py4pd -lib py4pd;
#X obj 7 75 py.iterate;
#X obj 7 120 py.collect;
#N canvas 130 168 450 300 process 0;
#X obj 7 5 inlet;
#X obj 7 131 outlet;
#X obj 7 26 py* None 50;
#X obj 7 88 py+ 30;
#X obj 7 47 t a b, f 16;
#X obj 84 67 expr random(3290 \, 8923);
#X connect 0 0 2 0;
#X connect 2 0 4 0;
#X connect 3 0 1 0;
#X connect 4 0 3 0;
#X connect 4 1 5 0;
#X connect 5 0 3 1;
#X restore 7 96 pd process;
#X obj 7 141 s p;
#X obj 3 359 r p;
#X obj 3 380 py.print;
#X msg 7 45 2 37 84 95 6;
#X obj 225 146 py.or -a 2;
#X obj 334 120 py.equal None 0 -a 2;
#X obj 225 120 py.equal None 1 -a 2;
#X obj 196 168 py.gate -outn 1, f 16;
#X obj 104 36 nbx 5 14 -1e+37 1e+37 0 0 empty empty empty 0 -8 0 8 #fcfcfc #000000 #000000 0 256;
#X obj 196 189 py- None 1;
#X obj 167 94 t a a a a, f 18;
#X obj 195 14 r call_again;
#X obj 167 315 s call_again;
#X obj 104 55 t f f;
#X obj 167 225 py*;
#X obj 167 246 py2pd;
#X obj 273 303 f;
#X obj 273 324 nbx 5 14 -1e+37 1e+37 0 0 empty empty empty 0 -8 0 8 #fcfcfc #000000 #000000 0 256;
#X obj 167 266 py.recursive;
#X connect 1 0 3 0;
#X connect 1 1 2 0;
#X connect 2 0 4 0;
#X connect 3 0 2 0;
#X connect 5 0 6 0;
#X connect 7 0 1 0;
#X connect 8 0 11 1;
#X connect 9 0 8 1;
#X connect 10 0 8 0;
#X connect 11 0 13 0;
#X connect 11 1 20 0;
#X connect 12 0 17 0;
#X connect 13 0 18 1;
#X connect 14 0 18 0;
#X connect 14 1 11 0;
#X connect 14 2 10 0;
#X connect 14 3 9 0;
#X connect 15 0 14 0;
#X connect 17 1 14 0;
#X connect 18 0 19 0;
#X connect 19 0 20 1;
#X connect 19 0 22 0;
#X connect 20 0 21 0;
#X connect 22 0 16 0;
