#N canvas 669 32 386 327 8;
#X obj 3 3 py4pd -lib py4pd;
#X msg 5 48 1 2 3 4 5 6;
#X obj 5 69 pd2py;
#X obj 5 161 print;
#X text 37 159 The normal print will not work for PyObjects. So you need to use py.print.;
#X msg 80 49 1 2 3 4 5 6;
#X obj 80 70 pd2py;
#X obj 80 105 py.print me;
#X obj 6 255 py.print;
#X msg 6 208 1 2 3 4 5 6;
#X obj 6 229 pd2py;
#X text 145 106 As print \, you can use prefix;
#X connect 1 0 2 0;
#X connect 2 0 3 0;
#X connect 5 0 6 0;
#X connect 6 0 7 0;
#X connect 9 0 10 0;
#X connect 10 0 8 0;
