#N canvas 904 372 660 464 8;
#X obj 11 10 py4pd -lib myNewPdObjects;
#X obj 12 118 mysumObject;
#X msg 12 30 1;
#X msg 29 49 2;
#X msg 46 73 3;
#X msg 64 93 4;
#X obj 12 139 nbx 5 14 -1e+37 1e+37 0 0 empty empty empty 0 -8 0 8 #fcfcfc #000000 #000000 0 256;
#X connect 1 0 6 0;
#X connect 2 0 1 0;
#X connect 3 0 1 1;
#X connect 4 0 1 2;
#X connect 5 0 1 3;
