#N canvas 0 0 943 1005 10;
#X declare -lib py4pd;
#X declare -lib openmusic;
#X obj 4 5 declare -lib py4pd;
#X obj 4 25 declare -lib openmusic;
#N canvas 0 0 943 1005 loop 0;
#X obj 13 56 py.iterate, f 17;
#X msg 13 7 1 2 3 4 5;
#X obj 13 230 py.print;
#X obj 13 188 py.collect, f 17;
#X obj 1 93 cnv 18 200 72 empty empty empty 20 12 0 10 #e0e0e0 #404040 0;
#X obj 13 142 py+;
#X msg 28 121 289;
#X text 82 124 Do what you need!;
#X obj 28 97 loadbang;
#X connect 0 0 5 0;
#X connect 0 1 3 1;
#X connect 1 0 0 0;
#X connect 3 0 2 0;
#X connect 5 0 3 0;
#X connect 6 0 5 1;
#X connect 8 0 6 0;
#X restore 3 78 pd loop;
#X obj 141 21 cnv 18 10 10 empty empty <=\ Don't\ forget\ this 20 12 0 10 #ffffff #ff0400 0;
#N canvas 0 0 943 1005 arithmetics 0;
#X obj 10 86 py+;
#X obj 97 86 py-;
#X obj 188 87 py/;
#X obj 285 90 py*;
#X msg 10 20 1 2 3 4;
#X msg 112 21 20 20 20 20;
#X obj 10 108 py.print;
#X obj 97 108 py.print;
#X obj 188 109 py.print;
#X obj 285 112 py.print;
#X connect 0 0 6 0;
#X connect 1 0 7 0;
#X connect 2 0 8 0;
#X connect 3 0 9 0;
#X connect 4 0 0 0;
#X connect 4 0 1 0;
#X connect 4 0 2 0;
#X connect 4 0 3 0;
#X connect 5 0 0 1;
#X connect 5 0 1 1;
#X connect 5 0 2 1;
#X connect 5 0 3 1;
#X restore 53 78 pd arithmetics;
