#N canvas 0 0 943 1036 10;
#X declare -lib py4pd;
#X obj 8 7 declare -lib py4pd;
#X msg 42 100 reload;
#X msg 33 74 init;
#X obj 51 152 py.pip;
#X msg 51 127 pip install pygame;
#X obj 33 193 py.game;
#X obj 202 62 osc~ 440;
#X obj 202 84 *~ 0.2;
#X obj 202 106 dac~;
#X connect 1 0 5 0;
#X connect 2 0 5 0;
#X connect 4 0 3 0;
#X connect 6 0 7 0;
#X connect 7 0 8 0;
