#N canvas 0 0 1299 1132 10;
#X declare -lib py4pd;
#X obj 3 5 cnv 15 301 42 empty empty py.o.train 20 20 2 37 #e0e0e0 #000000 0;
#X obj 305 6 cnv 15 250 40 empty empty empty 12 13 0 18 #7c7c7c #e0e4dc 0;
#N canvas 0 22 450 278 (subpatch) 0;
#X coords 0 1 100 -1 302 42 1 0 0;
#X restore 2 5 graph;
#N canvas 382 141 749 319 (subpatch) 0;
#X coords 0 -1 1 1 252 42 2 100 100;
#X restore 304 5 pd;
#X obj 336 10 cnv 10 10 10 empty empty xlab 0 15 2 30 #7c7c7c #e0e4dc 0;
#X obj 494 26 cnv 10 10 10 empty empty xlab 0 6 2 13 #7c7c7c #e0e4dc 0;
#X obj 23 41 cnv 4 4 4 empty empty Train 0 28 2 18 #e0e0e0 #000000 0;
#X obj 67 41 cnv 4 4 4 empty empty ONNX 0 28 2 18 #e0e0e0 #000000 0;
#X obj 124 41 cnv 4 4 4 empty empty models 0 28 2 18 #e0e0e0 #000000 0;
#X obj 179 41 cnv 4 4 4 empty empty for 0 28 2 18 #e0e0e0 #000000 0;
#X obj 205 41 cnv 4 4 4 empty empty OpenScofo 0 28 2 18 #e0e0e0 #000000 0;
#X text 68 87 [py.o.train] is an object used to train models for timbre recognition used inside OpenScofo.;
#X obj 3 310 cnv 3 550 3 empty empty inlets 8 12 0 13 #dcdcdc #000000 0;
#X obj 0 331 cnv 17 3 17 empty empty 1 5 9 0 16 #dcdcdc #9c9c9c 0;
#X text 25 333 clear;
#X text 278 333 Clear previous analysed sounds.;
#X text 25 353 trainfolder <PATH>;
#X text 25 415 analyze;
#X text 278 415 analyze the sounds and extract MIR.;
#X text 25 445 train;
#X text 278 445 train the model using the current MIR data.;
#X text 25 465 export <MODEL_PATH.onnx>;
#X text 278 465 export the model to a file.;
#X text 25 487 descriptors <descriptor1> <descriptors2>;
#X text 278 487 Selection of the descriptors used to train the model. Check https://charlesneimog.github.io/OpenScofo/descriptors/.;
#X obj 3 521 cnv 15 552 21 empty empty empty 20 12 0 14 #e0e0e0 #202020 0;
#X text 278 354 Path to the trainfolder \, this must have sounds inside categories. tongue-ram for tongue-ram sounds \, pizz for pizz sounds \, etc., f 36;
#N canvas 0 0 925 1132 config 0;
#X msg 44 66 irfolders /home/neimog/Nextcloud/MusicData/Impulse_Responses/02_Ambience_and_Small_Rooms /home/neimog/Nextcloud/MusicData/Impulse_Responses/05_Halls;
#X obj 3 278 outlet;
#X msg 12 30 descriptors mfcc logmel centroid flatness hfr flux zcr irregularity kurtosis;
#X msg 57 156 fftsize 2048;
#X msg 79 198 sr 48000;
#X msg 67 177 hopsize 512;
#X connect 0 0 1 0;
#X connect 2 0 1 0;
#X connect 3 0 1 0;
#X connect 4 0 1 0;
#X connect 5 0 1 0;
#X restore 217 191 pd config;
#X obj 72 274 nbx 5 16 -1e+37 1e+37 0 0 empty empty empty 0 -9 0 10 #fcfcfc #000000 #000000 0 256;
#X obj 15 274 bng 18 250 50 0 empty empty empty 0 -9 0 10 #fcfcfc #000000 #000000;
#X msg 30 147 clear;
#X msg 91 191 train;
#X msg 78 167 analyze;
#X msg 15 124 trainfolder /home/neimog/Downloads/Flute;
#X text 265 124 2) Folder;
#X text 127 167 3) WAIT!;
#X text 127 190 4) WAIT!;
#X text 280 191 1) Configure First;
#X text 132 273 Frames analyzed;
#X msg 229 222 export flute-v4.onnx;
#N canvas 0 0 925 1132 config 0;
#X obj 5 81 py.pip;
#X msg 6 54 pip install OpenScofo;
#X text 141 53 1) Install OpenScofo;
#X connect 1 0 0 0;
#X restore 419 133 pd config;
#X obj 448 54 declare -lib py4pd;
#X obj 15 252 py.o.train;
#X text 359 222 5) Export;
#X text 417 148 On errors or First time \, click open [pd config], f 23;
#X connect 27 0 42 0;
#X connect 30 0 42 0;
#X connect 31 0 42 0;
#X connect 32 0 42 0;
#X connect 33 0 42 0;
#X connect 39 0 42 0;
#X connect 42 0 29 0;
#X connect 42 1 28 0;
