#N canvas 0 0 943 1005 10;
#X declare -lib py4pd;
#X obj 8 7 declare -lib py4pd;
#X msg 42 100 reload;
#X msg 33 74 init;
#X obj 124 32 py.pip;
#X obj 202 62 osc~ 440;
#X obj 202 106 dac~;
#X obj 33 307 py.vispy;
#X msg 124 7 pip install vispy;
#X obj 202 84 *~ 0.05;
#N canvas 0 0 943 1005 label 0;
#X obj 102 80 vsl 15 128 0 255 0 0 empty empty empty 0 -9 0 10 #0800fc #fcfcfc #000000 0 1;
#X obj 109 225 t b f;
#X obj 81 80 vsl 15 128 0 255 0 0 empty empty empty 0 -9 0 10 #00fc00 #000000 #000000 0 1;
#X obj 61 80 vsl 15 128 0 255 0 0 empty empty empty 0 -9 0 10 #fc0000 #000000 #000000 0 1;
#X obj 81 250 t b f;
#X obj 13 449 outlet;
#X obj 161 185 loadbang;
#X msg 161 217 0;
#X obj 80 341 pack f f f;
#X obj 17 375 list;
#X msg 13 413 \$1 \$2 \$3;
#X text 78 55 update;
#X obj 58 57 bng 18 250 50 0 empty empty empty 0 -9 0 10 #fcfcfc #000000 #000000;
#X connect 0 0 1 0;
#X connect 1 0 2 0;
#X connect 1 0 8 0;
#X connect 1 1 8 2;
#X connect 2 0 4 0;
#X connect 3 0 8 0;
#X connect 4 0 3 0;
#X connect 4 0 8 0;
#X connect 4 1 8 1;
#X connect 6 0 7 0;
#X connect 8 0 9 1;
#X connect 9 0 10 0;
#X connect 10 0 5 0;
#X connect 12 0 9 0;
#X coords 0 -1 1 1 80 170 2 50 50;
#X restore 116 67 pd label;
#X msg 116 242 rgb \$1 \$2 \$3;
#X connect 1 0 6 0;
#X connect 2 0 6 0;
#X connect 4 0 8 0;
#X connect 7 0 3 0;
#X connect 8 0 5 0;
#X connect 8 0 5 1;
#X connect 9 0 10 0;
#X connect 10 0 6 0;
