#N canvas 963 23 951 1016 10;
#X declare -lib py4pd;
#X obj 4 5 declare -lib py4pd;
#X obj 23 107 pymetro;
#X obj 23 63 tgl 18 0 empty empty empty 0 -9 0 10 #fcfcfc #000000 #000000 0 1;
#X obj 23 182 bng 18 250 50 0 empty empty empty 0 -9 0 10 #fcfcfc #000000 #000000;
#X obj 62 78 nbx 5 16 -1e+37 1e+37 0 0 empty empty empty 0 -9 0 10 #fcfcfc #000000 #000000 0 256;
#X text 121 76 milliseconds;
#X obj 74 254 noise~;
#X obj 125 256 line, f 10;
#X msg 23 205 0 \, 1 200;
#X obj 125 278 nbx 5 16 -1e+37 1e+37 0 0 empty empty empty 0 -9 0 10 #fcfcfc #000000 #000000 0 256;
#X obj 74 320 *~, f 9;
#X obj 74 342 *~ 0.1;
#X obj 74 394 dac~;
#X connect 1 0 3 0;
#X connect 2 0 1 0;
#X connect 3 0 8 0;
#X connect 4 0 1 1;
#X connect 6 0 10 0;
#X connect 7 0 9 0;
#X connect 8 0 7 0;
#X connect 9 0 10 1;
#X connect 10 0 11 0;
#X connect 11 0 12 0;
#X connect 11 0 12 1;
