#N canvas 0 0 943 1005 10;
#X declare -lib py4pd;
#X obj 4 5 declare -lib py4pd;
#X obj 5 198 pytest, f 8;
#X obj 211 114 pytest~;
#X obj 211 87 sig~ 440;
#X obj 211 136 *~ 0.1;
#X obj 211 185 dac~;
#X obj 211 62 nbx 5 16 -1e+37 1e+37 0 0 empty empty empty 0 -9 0 10 #fcfcfc #000000 #000000 0 256;
#X msg 5 63 print 1 ola mundo;
#X msg 50 102 print 2 ola mundo;
#X obj 5 319 print out1;
#X obj 50 293 print out2;
#X obj 122 293 pytest;
#X msg 76 146 pyobj;
#X obj 259 246 tgl 18 0 empty empty empty 0 -9 0 10 #fcfcfc #000000 #000000 0 1;
#X obj 259 311 print;
#X msg 317 219 reload;
#X obj 259 289 pymetro 100;
#X msg 113 237 pyobj;
#X obj 122 363 print;
#X connect 1 0 9 0;
#X connect 1 1 10 0;
#X connect 1 1 11 0;
#X connect 2 0 4 0;
#X connect 3 0 2 0;
#X connect 4 0 5 0;
#X connect 4 0 5 1;
#X connect 6 0 3 0;
#X connect 7 0 1 0;
#X connect 8 0 1 1;
#X connect 11 1 18 0;
#X connect 12 0 1 1;
#X connect 13 0 16 0;
#X connect 15 0 16 0;
#X connect 16 0 14 0;
#X connect 17 0 11 1;
