#N canvas 706 192 766 679 8;
#X obj 8 7 inlet;
#X msg 8 28 0;
#X obj 11 210 spigot;
#X obj 116 57 r again\$0;
#X obj 121 304 s again\$0;
#X obj 212 77 loadbang;
#X obj 121 285 int, f 7;
#X obj 11 234 t f b f, f 29;
#X obj 82 258 delay 0;
#X obj 11 98 t b f f, f 22;
#X obj 11 130 int, f 10;
#X obj 11 151 + 1;
#X obj 65 165 expr if(($f1 + 2) > $f2 \, 0 \, 1);
#X obj 212 135 \$1;
#X obj 212 105 bng 15 250 50 0 empty empty empty 0 -8 0 8 #fcfcfc #000000 #000000;
#X obj 11 255 outlet;
#X connect 0 0 1 0;
#X connect 1 0 9 0;
#X connect 2 0 7 0;
#X connect 3 0 9 0;
#X connect 5 0 14 0;
#X connect 6 0 4 0;
#X connect 7 0 15 0;
#X connect 7 1 8 0;
#X connect 7 2 6 1;
#X connect 8 0 6 0;
#X connect 9 0 10 0;
#X connect 9 1 12 0;
#X connect 9 2 10 1;
#X connect 10 0 11 0;
#X connect 11 0 2 0;
#X connect 12 0 2 1;
#X connect 13 0 12 1;
#X connect 14 0 13 0;
