#N canvas 442 77 1107 901 8;
#X obj 19 131 py.iterate;
#X obj 19 196 py.collect;
#X obj 19 58 bng 15 250 50 0 empty empty empty 0 -8 0 8 #fcfcfc #000000 #000000;
#X obj 19 8 inlet;
#X obj 96 8 bng 15 250 50 0 empty empty empty 0 -8 0 8 #fcfcfc #000000 #000000;
#X obj 19 35 loop 2001;
#X obj 19 78 loop 30;
#X obj 19 218 py2pd;
#X obj 19 303 count;
#X obj 19 324 nbx 5 14 -1e+37 1e+37 0 0 empty empty empty 0 -8 0 8 #fcfcfc #000000 #000000 0 256;
#X obj 103 303 count;
#X obj 103 324 nbx 5 14 -1e+37 1e+37 0 0 empty empty empty 0 -8 0 8 #fcfcfc #000000 #000000 0 256;
#X obj 19 239 unpack f f f;
#X obj 19 152 py* None 200;
#X obj 19 171 py* None 22;
#X msg 19 111 209 128 167;
#X obj 19 276 sel 919600 563200 734800, f 51;
#X obj 187 302 count;
#X obj 187 323 nbx 5 14 -1e+37 1e+37 0 0 empty empty empty 0 -8 0 8 #fcfcfc #000000 #000000 0 256;
#X obj 19 359 sel 2028;
#X obj 19 381 count;
#X obj 19 402 nbx 5 14 -1e+37 1e+37 0 0 empty empty empty 0 -8 0 8 #fcfcfc #000000 #000000 0 256;
#X obj 19 421 sel 3;
#X msg 19 442 1;
#X obj 19 463 outlet;
#X connect 0 0 13 0;
#X connect 0 1 1 0;
#X connect 1 0 7 0;
#X connect 2 0 6 0;
#X connect 3 0 5 0;
#X connect 4 0 5 0;
#X connect 5 0 2 0;
#X connect 6 0 15 0;
#X connect 7 0 12 0;
#X connect 8 0 9 0;
#X connect 9 0 19 0;
#X connect 10 0 11 0;
#X connect 11 0 19 0;
#X connect 12 0 16 0;
#X connect 12 1 16 0;
#X connect 12 2 16 0;
#X connect 13 0 14 0;
#X connect 14 0 1 0;
#X connect 15 0 0 0;
#X connect 16 0 8 0;
#X connect 16 1 10 0;
#X connect 16 2 17 0;
#X connect 17 0 18 0;
#X connect 18 0 19 0;
#X connect 19 0 20 0;
#X connect 20 0 21 0;
#X connect 21 0 22 0;
#X connect 22 0 23 0;
#X connect 23 0 24 0;
