#N canvas 804 163 813 633 8;
#X obj 12 76 nbx 5 14 -1e+37 1e+37 0 0 empty empty empty 0 -8 0 8 #fcfcfc #000000 #000000 0 256;
#X obj 12 32 loadbang;
#X msg 12 53 440;
#X obj 127 53 hsl 80 10 0 1 0 0 empty empty empty -2 -8 0 8 #fcfcfc #000000 #000000 0 1;
#X obj 124 68 nbx 5 14 -1e+37 1e+37 0 0 empty empty empty 0 -8 0 8 #fcfcfc #000000 #000000 0 256;
#X text 210 49 <= Gain.;
#X obj 12 8 py4pd -lib audioout;
#X obj 12 98 audioout None 0.1 -ch 2;
#X obj 12 156 dac~, f 12;
#X obj 12 119 snake~ out 2;
#X connect 0 0 7 0;
#X connect 1 0 2 0;
#X connect 2 0 0 0;
#X connect 3 0 4 0;
#X connect 4 0 7 1;
#X connect 7 0 9 0;
#X connect 9 0 8 0;
#X connect 9 1 8 1;
