#N canvas 854 408 780 423 8;
#X obj 11 95 py4pd;
#X msg 11 54 version;
#X text 57 52 Output the version of py4pd and Python.;
#X obj 11 116 route py4pd python;
#X obj 11 137 else/display;
#X obj 55 168 else/display;
#X connect 0 0 3 0;
#X connect 1 0 0 0;
#X connect 3 0 4 0;
#X connect 3 1 5 0;
