#N canvas 676 32 633 827 8;
#X obj 5 8 py4pd -lib multichannel;
#X obj 254 326 else/setdsp~;
#X obj 131 8 py4pd -lib py4pd;
#X obj 44 163 sinusoids~ -ch 4;
#X obj 44 253 dac~;
#X obj 108 225 snake~ out 4;
#X obj 108 283 dac~;
#X msg 121 130 0.2 0.2 0.2 0.2;
#X msg 44 75 230 640 300;
#X connect 3 0 4 1;
#X connect 3 0 4 0;
#X connect 3 0 5 0;
#X connect 5 0 6 0;
#X connect 7 0 3 1;
#X connect 8 0 3 0;
