#N canvas 676 32 613 826 8;
#X obj 5 8 py4pd -lib multichannel;
#X obj 254 326 else/setdsp~;
#X msg 59 132 reload;
#X obj 131 8 py4pd -lib py4pd;
#X obj 44 240 snake~ out 4;
#X obj 44 296 snake~ in 4, f 12;
#X obj 44 363 dac~;
#X obj 44 163 sinusoids~ -ch 3;
#X msg 44 75 330 770;
#X msg 121 130 0.6 0.6;
#X text 50 267 <= this is wrong!;
#X obj 102 187 osc~ 330;
#X connect 2 0 7 0;
#X connect 4 0 5 0;
#X connect 5 0 6 0;
#X connect 7 0 4 0;
#X connect 8 0 7 0;
#X connect 9 0 7 1;
#X connect 11 0 5 3;
