#N canvas 795 114 1114 601 8;
#X obj 60 50 tgl 15 0 empty empty empty 0 -8 0 8 #fcfcfc #000000 #000000 0 1;
#X obj 60 91 int;
#X obj 60 112 + 1;
#X obj 60 154 sel 0 1 2 3, f 58;
#X obj 60 133 % 4;
#X obj 60 257 else/display;
#X obj 60 26 py4pd -lib addmethod;
#X obj 60 215 py.methods, f 32;
#X msg 60 176 casa;
#X msg 131 176 home;
#X msg 204 175 haus;
#X msg 275 175 huis;
#X obj 60 70 metro 500;
#X connect 0 0 12 0;
#X connect 1 0 2 0;
#X connect 2 0 1 1;
#X connect 2 0 4 0;
#X connect 3 0 8 0;
#X connect 3 1 9 0;
#X connect 3 2 10 0;
#X connect 3 3 11 0;
#X connect 4 0 3 0;
#X connect 7 0 5 0;
#X connect 8 0 7 0;
#X connect 9 0 7 0;
#X connect 10 0 7 0;
#X connect 11 0 7 0;
#X connect 12 0 1 0;
