#N canvas 967 44 941 992 8;
#X obj 60 50 tgl 15 0 empty empty empty 0 -8 0 8 #fcfcfc #000000 #000000 0 1;
#X obj 60 91 int;
#X obj 60 112 + 1;
#X obj 60 133 % 4;
#X obj 60 269 else/display;
#X msg 155 175 home;
#X obj 60 70 metro 500;
#X obj 176 50 py4pd -lib py4pd;
#X obj 251 197 py.mklist;
#X msg 251 174 [1 2 3 4];
#X obj 60 154 sel 0 1 2, f 58;
#X obj 60 198 pd2py;
#X msg 60 176 1.2;
#X obj 155 196 pd2py;
#X obj 80 50 py4pd -lib addtype;
#X obj 60 227 py.4types, f 32;
#X connect 0 0 6 0;
#X connect 1 0 2 0;
#X connect 2 0 1 1;
#X connect 2 0 3 0;
#X connect 3 0 10 0;
#X connect 5 0 13 0;
#X connect 6 0 1 0;
#X connect 8 0 15 0;
#X connect 9 0 8 0;
#X connect 10 0 12 0;
#X connect 10 1 5 0;
#X connect 10 2 9 0;
#X connect 11 0 15 0;
#X connect 12 0 11 0;
#X connect 13 0 15 0;
#X connect 15 0 4 0;
