#N canvas 795 114 698 757 8;
#X obj 19 49 tgl 15 0 empty empty empty 0 -8 0 8 #fcfcfc #000000 #000000 0 1;
#X obj 19 69 metro 1000;
#X obj 18 17 py4pd -lib symbol;
#X obj 19 90 int;
#X obj 19 111 + 1;
#X obj 19 153 sel 0 1 2 3, f 58;
#X obj 19 241 py.splitSymbol;
#X msg 19 174 casa;
#X msg 90 174 home;
#X msg 163 173 haus;
#X obj 19 217 symbol;
#X obj 19 132 % 4;
#X listbox 19 283 3 0 0 0 - - - 0;
#X listbox 78 283 3 0 0 0 - - - 0;
#X listbox 138 283 3 0 0 0 - - - 0;
#X listbox 196 283 3 0 0 0 - - - 0;
#X obj 19 262 unpack s s s s s, f 48;
#X msg 234 173 huis;
#X connect 0 0 1 0;
#X connect 1 0 3 0;
#X connect 3 0 4 0;
#X connect 4 0 3 1;
#X connect 4 0 11 0;
#X connect 5 0 7 0;
#X connect 5 1 8 0;
#X connect 5 2 9 0;
#X connect 5 3 17 0;
#X connect 6 0 16 0;
#X connect 7 0 10 0;
#X connect 8 0 10 0;
#X connect 9 0 10 0;
#X connect 10 0 6 0;
#X connect 11 0 5 0;
#X connect 16 0 12 0;
#X connect 16 1 13 0;
#X connect 16 2 14 0;
#X connect 16 3 15 0;
#X connect 17 0 10 0;
