#N canvas 6 28 951 1012 10;
#X obj 5 5 py4pd -lib mylib;
#X obj 110 30 py.sum;
#X msg 110 5 4;
#X msg 143 5 5;
#X obj 110 52 nbx 5 16 -1e+37 1e+37 0 0 empty empty empty 0 -9 0 10 #fcfcfc #000000 #000000 0 256;
#X obj 197 31 py.sum;
#X obj 197 53 nbx 5 16 -1e+37 1e+37 0 0 empty empty empty 0 -9 0 10 #fcfcfc #000000 #000000 0 256;
#X msg 197 5 432;
#X msg 230 5 235;
#X obj 3 217 py.listsum;
#X obj 3 139 py4pd -lib mylib;
#X msg 3 167 1 2 3 4 5 6;
#X msg 60 190 1 2 3 4 5 6;
#X obj 3 239 nbx 5 16 -1e+37 1e+37 0 0 empty empty empty 0 -9 0 10 #fcfcfc #000000 #000000 0 256;
#X obj 159 218 py.listsum;
#X obj 159 240 nbx 5 16 -1e+37 1e+37 0 0 empty empty empty 0 -9 0 10 #fcfcfc #000000 #000000 0 256;
#X msg 159 168 4389 5493;
#X msg 216 191 4389 5748 2378;
#X connect 1 0 4 0;
#X connect 2 0 1 0;
#X connect 3 0 1 1;
#X connect 5 0 6 0;
#X connect 7 0 5 0;
#X connect 8 0 5 1;
#X connect 9 0 13 0;
#X connect 11 0 9 0;
#X connect 12 0 9 1;
#X connect 14 0 15 0;
#X connect 16 0 14 0;
#X connect 17 0 14 1;
