#N canvas 707 183 602 630 8;
#X obj 9 11 py4pd -lib py4pd;
#X obj 9 75 py.iterate;
#X msg 9 39 1 2 3 4 5 6;
#X obj 9 167 py.collect;
#X obj 9 146 py+ None 20;
#X obj 9 188 py.print;
#X obj 59 116 py.print;
#X text 80 34 This can be usefull to iterate over some list or list of lists., f 34;
#X connect 1 0 4 0;
#X connect 1 0 6 0;
#X connect 1 1 3 0;
#X connect 2 0 1 0;
#X connect 3 0 5 0;
#X connect 4 0 3 0;
